G75*
%MOIN*%
%OFA0B0*%
%FSLAX24Y24*%
%IPPOS*%
%LPD*%
%AMOC8*
5,1,8,0,0,1.08239X$1,22.5*
%
%ADD10C,0.0100*%
%ADD11C,0.0000*%
%ADD12C,0.0560*%
%ADD13C,0.0600*%
%ADD14C,0.3937*%
%ADD15OC8,0.0520*%
%ADD16C,0.0520*%
%ADD17R,0.0512X0.0591*%
%ADD18R,0.0591X0.0512*%
%ADD19R,0.0394X0.0551*%
%ADD20R,0.0472X0.0472*%
%ADD21C,0.0515*%
%ADD22C,0.0440*%
%ADD23R,0.0748X0.1339*%
%ADD24R,0.0870X0.0240*%
%ADD25R,0.0810X0.0220*%
%ADD26R,0.0880X0.0480*%
%ADD27R,0.0866X0.1417*%
%ADD28R,0.0390X0.0272*%
%ADD29R,0.0620X0.0140*%
%ADD30R,0.1142X0.0984*%
%ADD31C,0.0320*%
%ADD32C,0.0472*%
%ADD33C,0.0120*%
%ADD34C,0.0160*%
%ADD35C,0.0240*%
%ADD36C,0.0400*%
D10*
X001574Y001180D02*
X037386Y001180D01*
X037380Y001174D02*
X037380Y022230D01*
X001574Y022180D01*
X001535Y022178D01*
X001497Y022172D01*
X001460Y022163D01*
X001423Y022150D01*
X001388Y022133D01*
X001355Y022114D01*
X001324Y022091D01*
X001295Y022065D01*
X001269Y022036D01*
X001246Y022005D01*
X001227Y021972D01*
X001210Y021937D01*
X001197Y021900D01*
X001188Y021863D01*
X001182Y021825D01*
X001180Y021786D01*
X001180Y001574D01*
X001182Y001535D01*
X001188Y001497D01*
X001197Y001460D01*
X001210Y001423D01*
X001227Y001388D01*
X001246Y001355D01*
X001269Y001324D01*
X001295Y001295D01*
X001324Y001269D01*
X001355Y001246D01*
X001388Y001227D01*
X001423Y001210D01*
X001460Y001197D01*
X001497Y001188D01*
X001535Y001182D01*
X001574Y001180D01*
D11*
X006050Y002180D02*
X006052Y002230D01*
X006058Y002280D01*
X006068Y002329D01*
X006082Y002377D01*
X006099Y002424D01*
X006120Y002469D01*
X006145Y002513D01*
X006173Y002554D01*
X006205Y002593D01*
X006239Y002630D01*
X006276Y002664D01*
X006316Y002694D01*
X006358Y002721D01*
X006402Y002745D01*
X006448Y002766D01*
X006495Y002782D01*
X006543Y002795D01*
X006593Y002804D01*
X006642Y002809D01*
X006693Y002810D01*
X006743Y002807D01*
X006792Y002800D01*
X006841Y002789D01*
X006889Y002774D01*
X006935Y002756D01*
X006980Y002734D01*
X007023Y002708D01*
X007064Y002679D01*
X007103Y002647D01*
X007139Y002612D01*
X007171Y002574D01*
X007201Y002534D01*
X007228Y002491D01*
X007251Y002447D01*
X007270Y002401D01*
X007286Y002353D01*
X007298Y002304D01*
X007306Y002255D01*
X007310Y002205D01*
X007310Y002155D01*
X007306Y002105D01*
X007298Y002056D01*
X007286Y002007D01*
X007270Y001959D01*
X007251Y001913D01*
X007228Y001869D01*
X007201Y001826D01*
X007171Y001786D01*
X007139Y001748D01*
X007103Y001713D01*
X007064Y001681D01*
X007023Y001652D01*
X006980Y001626D01*
X006935Y001604D01*
X006889Y001586D01*
X006841Y001571D01*
X006792Y001560D01*
X006743Y001553D01*
X006693Y001550D01*
X006642Y001551D01*
X006593Y001556D01*
X006543Y001565D01*
X006495Y001578D01*
X006448Y001594D01*
X006402Y001615D01*
X006358Y001639D01*
X006316Y001666D01*
X006276Y001696D01*
X006239Y001730D01*
X006205Y001767D01*
X006173Y001806D01*
X006145Y001847D01*
X006120Y001891D01*
X006099Y001936D01*
X006082Y001983D01*
X006068Y002031D01*
X006058Y002080D01*
X006052Y002130D01*
X006050Y002180D01*
X006550Y021130D02*
X006552Y021180D01*
X006558Y021230D01*
X006568Y021279D01*
X006582Y021327D01*
X006599Y021374D01*
X006620Y021419D01*
X006645Y021463D01*
X006673Y021504D01*
X006705Y021543D01*
X006739Y021580D01*
X006776Y021614D01*
X006816Y021644D01*
X006858Y021671D01*
X006902Y021695D01*
X006948Y021716D01*
X006995Y021732D01*
X007043Y021745D01*
X007093Y021754D01*
X007142Y021759D01*
X007193Y021760D01*
X007243Y021757D01*
X007292Y021750D01*
X007341Y021739D01*
X007389Y021724D01*
X007435Y021706D01*
X007480Y021684D01*
X007523Y021658D01*
X007564Y021629D01*
X007603Y021597D01*
X007639Y021562D01*
X007671Y021524D01*
X007701Y021484D01*
X007728Y021441D01*
X007751Y021397D01*
X007770Y021351D01*
X007786Y021303D01*
X007798Y021254D01*
X007806Y021205D01*
X007810Y021155D01*
X007810Y021105D01*
X007806Y021055D01*
X007798Y021006D01*
X007786Y020957D01*
X007770Y020909D01*
X007751Y020863D01*
X007728Y020819D01*
X007701Y020776D01*
X007671Y020736D01*
X007639Y020698D01*
X007603Y020663D01*
X007564Y020631D01*
X007523Y020602D01*
X007480Y020576D01*
X007435Y020554D01*
X007389Y020536D01*
X007341Y020521D01*
X007292Y020510D01*
X007243Y020503D01*
X007193Y020500D01*
X007142Y020501D01*
X007093Y020506D01*
X007043Y020515D01*
X006995Y020528D01*
X006948Y020544D01*
X006902Y020565D01*
X006858Y020589D01*
X006816Y020616D01*
X006776Y020646D01*
X006739Y020680D01*
X006705Y020717D01*
X006673Y020756D01*
X006645Y020797D01*
X006620Y020841D01*
X006599Y020886D01*
X006582Y020933D01*
X006568Y020981D01*
X006558Y021030D01*
X006552Y021080D01*
X006550Y021130D01*
D12*
X005180Y019880D02*
X005180Y018680D01*
X006830Y017030D01*
X006830Y009180D01*
X007430Y008580D01*
X007595Y008580D01*
X012880Y008580D01*
X013880Y007580D01*
X013880Y004380D01*
X013988Y004273D01*
X014580Y003680D01*
X015880Y003680D01*
X016730Y003680D01*
X017080Y004030D01*
X017080Y005232D01*
X017030Y005282D01*
X017682Y005282D01*
X018930Y006530D01*
X018930Y007830D01*
X018930Y007980D01*
X019380Y008430D01*
X020180Y008430D01*
X022415Y008430D01*
X024080Y008430D01*
X024580Y008930D01*
X024580Y012030D01*
X025675Y012920D01*
X025830Y012930D01*
X026100Y012705D01*
X024585Y011770D02*
X024450Y011905D01*
X022495Y011905D01*
X022185Y012215D01*
X022185Y013915D01*
X022085Y014015D01*
X018980Y014015D01*
X018180Y014815D01*
X018180Y019880D01*
X017580Y020900D02*
X017580Y021460D01*
X016580Y021460D02*
X016580Y020900D01*
X015580Y020900D02*
X015580Y021460D01*
X014580Y021460D02*
X014580Y020900D01*
X013580Y020900D02*
X013580Y021460D01*
X012580Y021460D02*
X012580Y020900D01*
X011580Y020900D02*
X011580Y021460D01*
X010580Y021460D02*
X010580Y020900D01*
X009580Y020900D02*
X009580Y021460D01*
X008580Y021460D02*
X008580Y020900D01*
X019180Y020900D02*
X019180Y021460D01*
X020180Y021460D02*
X020180Y020900D01*
X021180Y020900D02*
X021180Y021460D01*
X022180Y021460D02*
X022180Y020900D01*
X023180Y020900D02*
X023180Y021460D01*
X024180Y021460D02*
X024180Y020900D01*
X025180Y020900D02*
X025180Y021460D01*
X026180Y021460D02*
X026180Y020900D01*
X023030Y017180D02*
X022185Y016485D01*
X022185Y013915D01*
X024585Y011770D02*
X024585Y011765D01*
X016180Y003380D02*
X015880Y003680D01*
X016180Y003380D02*
X016180Y002180D01*
D13*
X016180Y001880D02*
X016180Y002480D01*
X017180Y002480D02*
X017180Y001880D01*
X018180Y001880D02*
X018180Y002480D01*
X019180Y002480D02*
X019180Y001880D01*
X021180Y001880D02*
X021180Y002480D01*
X022180Y002480D02*
X022180Y001880D01*
X023180Y001880D02*
X023180Y002480D01*
X024180Y002480D02*
X024180Y001880D01*
X025180Y001880D02*
X025180Y002480D01*
X026180Y002480D02*
X026180Y001880D01*
X029630Y002430D02*
X029630Y003030D01*
X030630Y003030D02*
X030630Y002430D01*
X031630Y002430D02*
X031630Y003030D01*
X032630Y003030D02*
X032630Y002430D01*
X033630Y002430D02*
X033630Y003030D01*
X034630Y003030D02*
X034630Y002430D01*
X015180Y002480D02*
X015180Y001880D01*
X014180Y001880D02*
X014180Y002480D01*
X011420Y002396D02*
X011420Y001796D01*
X009640Y001796D02*
X009640Y002396D01*
X009640Y004356D02*
X009640Y004956D01*
X011420Y004956D02*
X011420Y004356D01*
X004432Y004306D02*
X004432Y004906D01*
X002652Y004906D02*
X002652Y004306D01*
X002652Y002346D02*
X002652Y001746D01*
X004432Y001746D02*
X004432Y002346D01*
D14*
X035180Y007180D03*
X035180Y013180D03*
X035180Y019180D03*
D15*
X032580Y021480D03*
X028580Y021480D03*
X031780Y016130D03*
X031780Y012130D03*
X018730Y011380D03*
X017980Y010880D03*
X018730Y010380D03*
D16*
X024270Y007130D02*
X024790Y007130D01*
X027270Y007130D02*
X027790Y007130D01*
X023030Y013920D02*
X023030Y014440D01*
X023030Y016920D02*
X023030Y017440D01*
X028620Y020080D02*
X029140Y020080D01*
X031620Y020080D02*
X032140Y020080D01*
D17*
X030854Y018980D03*
X030106Y018980D03*
X023804Y012840D03*
X023056Y012840D03*
X026906Y008280D03*
X027654Y008280D03*
X030406Y005630D03*
X031154Y005630D03*
X032206Y005630D03*
X032954Y005630D03*
D18*
X030480Y007456D03*
X030480Y008204D03*
X030480Y009356D03*
X030480Y010104D03*
X030480Y011256D03*
X030480Y012004D03*
X029030Y016556D03*
X029030Y017304D03*
X029030Y018256D03*
X029030Y019004D03*
X027580Y019004D03*
X027580Y018256D03*
X026130Y018256D03*
X026130Y019004D03*
X019230Y018964D03*
X019230Y018216D03*
X006230Y005954D03*
X006230Y005206D03*
X012830Y004654D03*
X012830Y003906D03*
D19*
X025756Y014747D03*
X026504Y014747D03*
X027206Y014747D03*
X027954Y014747D03*
X028656Y014747D03*
X029404Y014747D03*
X029030Y015613D03*
X027580Y015613D03*
X026130Y015613D03*
D20*
X031667Y004280D03*
X032493Y004280D03*
X007043Y004130D03*
X006217Y004130D03*
D21*
X006180Y019623D02*
X006180Y020137D01*
X005180Y020137D02*
X005180Y019623D01*
X004180Y019623D02*
X004180Y020137D01*
X007180Y020137D02*
X007180Y019623D01*
X008180Y019623D02*
X008180Y020137D01*
X009180Y020137D02*
X009180Y019623D01*
X010180Y019623D02*
X010180Y020137D01*
X011180Y020137D02*
X011180Y019623D01*
X012180Y019623D02*
X012180Y020137D01*
X013180Y020137D02*
X013180Y019623D01*
X014180Y019623D02*
X014180Y020137D01*
X015180Y020137D02*
X015180Y019623D01*
X016180Y019623D02*
X016180Y020137D01*
X017180Y020137D02*
X017180Y019623D01*
X018180Y019623D02*
X018180Y020137D01*
X019180Y020137D02*
X019180Y019623D01*
D22*
X019180Y005282D03*
X020180Y005282D03*
X021180Y005282D03*
X023280Y005282D03*
X024280Y005282D03*
X025280Y005282D03*
X017030Y005282D03*
X016030Y005282D03*
X015030Y005282D03*
D23*
X033662Y016080D03*
X035198Y016080D03*
D24*
X028310Y011080D03*
X028310Y010580D03*
X028310Y010080D03*
X028310Y009580D03*
X026250Y009580D03*
X026250Y010080D03*
X026250Y010580D03*
X026250Y011080D03*
D25*
X025930Y011080D03*
X025930Y010580D03*
X025930Y010080D03*
X025930Y009580D03*
X028630Y009580D03*
X028630Y010080D03*
X028630Y010580D03*
X028630Y011080D03*
D26*
X022100Y011140D03*
X022100Y010230D03*
X022100Y009320D03*
D27*
X019660Y010230D03*
D28*
X017642Y007754D03*
X016622Y007754D03*
X016622Y007380D03*
X016622Y007006D03*
X017642Y007006D03*
D29*
X020810Y007000D03*
X020810Y007250D03*
X020810Y007510D03*
X020810Y007760D03*
X022150Y007760D03*
X022150Y007510D03*
X022150Y007250D03*
X022150Y007000D03*
D30*
X026100Y012705D03*
X028660Y012705D03*
D31*
X030480Y011256D02*
X030480Y010104D01*
X030480Y009356D02*
X030480Y008204D01*
X026906Y008280D02*
X026866Y008320D01*
X025320Y008320D01*
X024710Y008930D01*
X024580Y008930D01*
X022980Y010230D02*
X022100Y010230D01*
X021280Y010230D01*
X020830Y010680D01*
X020830Y011280D01*
X020730Y011380D01*
X018730Y011380D01*
X017980Y010880D02*
X017980Y009830D01*
X018680Y009130D01*
X020830Y009130D01*
X021020Y009320D01*
X022100Y009320D01*
X022100Y011140D02*
X021930Y011310D01*
X021930Y011530D01*
X021380Y012080D01*
X020980Y012080D01*
X026130Y015613D02*
X026130Y018256D01*
X026130Y019004D02*
X025554Y019004D01*
X025530Y018980D01*
X026130Y019004D02*
X027580Y019004D01*
X029030Y019004D01*
X030082Y019004D01*
X030106Y018980D01*
X029030Y019004D02*
X029030Y019580D01*
X028880Y019730D01*
X028880Y020080D01*
X029030Y018256D02*
X029030Y017304D01*
X029030Y016556D02*
X029030Y015613D01*
X027580Y015613D02*
X027580Y018256D01*
X031780Y016130D02*
X031830Y016080D01*
X033662Y016080D01*
X035180Y016130D02*
X035330Y016280D01*
X035330Y016212D01*
X035198Y016080D01*
X035180Y016130D02*
X035180Y013180D01*
X032954Y005630D02*
X033180Y005404D01*
X033180Y003680D01*
X032630Y003130D01*
X032630Y002730D01*
X032206Y005630D02*
X031154Y005630D01*
X025280Y005282D02*
X024280Y005282D01*
X023693Y004695D01*
X021665Y004695D01*
X021180Y005180D01*
X021180Y005282D01*
X020180Y005282D01*
X016165Y007375D02*
X016160Y007370D01*
X015760Y007375D01*
X015180Y007835D02*
X013585Y009430D01*
X007700Y009430D01*
X007465Y009665D01*
X007465Y017635D01*
X006180Y018920D01*
X006180Y019880D01*
X007180Y019880D02*
X007180Y018670D01*
X008060Y017790D01*
X013370Y017790D01*
X013685Y018110D01*
X013680Y021035D01*
X013580Y021180D01*
X012580Y021180D02*
X012580Y020570D01*
X012665Y020485D01*
X012665Y018440D01*
X012680Y018425D01*
X019230Y018216D02*
X019761Y018191D01*
X019780Y018195D01*
X019230Y018964D02*
X019230Y019830D01*
X019180Y019880D01*
X015180Y007835D02*
X015180Y006515D01*
X016030Y005665D01*
X016030Y005282D01*
X004432Y004606D02*
X004432Y002046D01*
D32*
X005580Y001730D03*
X004330Y006130D03*
X003530Y006130D03*
X002730Y006130D03*
X003380Y010080D03*
X003380Y010880D03*
X003380Y011680D03*
X005630Y011680D03*
X005630Y010880D03*
X005630Y010080D03*
X007980Y010080D03*
X007980Y010880D03*
X007980Y011680D03*
X010430Y011680D03*
X010430Y010880D03*
X010430Y010080D03*
X012680Y010080D03*
X012680Y010880D03*
X012680Y011680D03*
X015030Y011680D03*
X015030Y010880D03*
X015030Y010080D03*
X017280Y010080D03*
X017280Y010880D03*
X017280Y011680D03*
X018405Y012330D03*
X019205Y012330D03*
X020005Y012330D03*
X020980Y012080D03*
X021065Y013155D03*
X022995Y011135D03*
X022980Y010230D03*
X023950Y009320D03*
X025165Y009930D03*
X025220Y010570D03*
X025565Y011690D03*
X024850Y013095D03*
X025550Y015820D03*
X026830Y016355D03*
X026830Y017155D03*
X025550Y017410D03*
X025555Y016615D03*
X028155Y016345D03*
X028155Y017145D03*
X031130Y017380D03*
X031930Y017380D03*
X031930Y018180D03*
X031930Y018980D03*
X025530Y018980D03*
X023680Y019980D03*
X022680Y019980D03*
X021730Y020230D03*
X020180Y019640D03*
X019830Y020280D03*
X020180Y018595D03*
X019780Y018195D03*
X020230Y017160D03*
X021330Y016720D03*
X021395Y017695D03*
X019590Y016300D03*
X017305Y016290D03*
X016650Y016720D03*
X017560Y017675D03*
X014980Y017080D03*
X014980Y016280D03*
X014980Y015480D03*
X014980Y014680D03*
X017230Y014680D03*
X017230Y015480D03*
X012630Y015480D03*
X012630Y016280D03*
X010380Y016280D03*
X010380Y015480D03*
X010380Y014680D03*
X012630Y014680D03*
X011940Y013145D03*
X007930Y014680D03*
X007930Y015480D03*
X007930Y016280D03*
X005580Y016280D03*
X005580Y015480D03*
X005580Y014680D03*
X003330Y014680D03*
X003330Y015480D03*
X003330Y016280D03*
X012680Y018425D03*
X023580Y018930D03*
X029330Y010580D03*
X028745Y008915D03*
X029980Y008780D03*
X032180Y008480D03*
X032180Y010080D03*
X034280Y010130D03*
X035080Y010130D03*
X035880Y010130D03*
X027830Y005130D03*
X027830Y004330D03*
X025530Y004480D03*
X027830Y003030D03*
X020215Y006310D03*
X020060Y007125D03*
X021430Y007510D03*
X018275Y007005D03*
X016580Y006250D03*
X015760Y007375D03*
X014705Y006125D03*
X012830Y006150D03*
X011330Y006130D03*
X010530Y006130D03*
X009730Y006130D03*
X026180Y008880D03*
X035980Y004080D03*
X035980Y003280D03*
X035980Y002480D03*
D33*
X028630Y009580D02*
X028310Y009580D01*
X028310Y010080D02*
X028630Y010080D01*
X028630Y011080D02*
X028310Y011080D01*
X026250Y011080D02*
X025930Y011080D01*
X025930Y010580D02*
X026250Y010580D01*
X026250Y010080D02*
X025930Y010080D01*
X024585Y011765D02*
X025655Y012835D01*
X025675Y012920D01*
X022525Y007775D02*
X022510Y007760D01*
X022150Y007760D01*
X022150Y007250D02*
X021695Y007250D01*
X021635Y007190D01*
X022150Y007000D02*
X022155Y006995D01*
X022520Y006995D01*
X020810Y007510D02*
X020800Y007500D01*
X020595Y007500D01*
X020580Y007515D01*
X020185Y007515D01*
D34*
X020170Y007530D01*
X019630Y007530D01*
X020060Y007125D02*
X020185Y007250D01*
X020810Y007250D01*
X020810Y007030D02*
X020810Y007000D01*
X021300Y007000D01*
X021300Y007094D01*
X021288Y007139D01*
X021271Y007169D01*
X021355Y007134D01*
X021415Y007134D01*
X021415Y006639D01*
X021580Y006474D01*
X021709Y006345D01*
X022809Y006345D01*
X023045Y006109D01*
X023045Y005556D01*
X022975Y005486D01*
X022920Y005354D01*
X022920Y005211D01*
X022975Y005078D01*
X023058Y004995D01*
X021789Y004995D01*
X021540Y005244D01*
X021540Y005354D01*
X021485Y005486D01*
X021384Y005588D01*
X021252Y005642D01*
X021108Y005642D01*
X020976Y005588D01*
X020971Y005582D01*
X020389Y005582D01*
X020384Y005588D01*
X020252Y005642D01*
X020108Y005642D01*
X019976Y005588D01*
X019875Y005486D01*
X019820Y005354D01*
X019820Y005211D01*
X019875Y005078D01*
X019976Y004977D01*
X020108Y004922D01*
X020252Y004922D01*
X020384Y004977D01*
X020389Y004982D01*
X020953Y004982D01*
X021411Y004525D01*
X021495Y004441D01*
X021605Y004395D01*
X023752Y004395D01*
X023863Y004441D01*
X024344Y004922D01*
X024352Y004922D01*
X024484Y004977D01*
X024489Y004982D01*
X025071Y004982D01*
X025076Y004977D01*
X025208Y004922D01*
X025352Y004922D01*
X025484Y004977D01*
X025585Y005078D01*
X025640Y005211D01*
X025640Y005354D01*
X025585Y005486D01*
X025484Y005588D01*
X025352Y005642D01*
X025208Y005642D01*
X025076Y005588D01*
X025071Y005582D01*
X024489Y005582D01*
X024484Y005588D01*
X024352Y005642D01*
X024208Y005642D01*
X024076Y005588D01*
X023975Y005486D01*
X023920Y005354D01*
X023920Y005347D01*
X023568Y004995D01*
X023502Y004995D01*
X023585Y005078D01*
X023640Y005211D01*
X023640Y005354D01*
X023585Y005486D01*
X023485Y005586D01*
X023485Y006291D01*
X023356Y006420D01*
X022991Y006785D01*
X022941Y006785D01*
X022946Y006790D01*
X022951Y006790D01*
X023080Y006919D01*
X023150Y006989D01*
X023150Y007771D01*
X023021Y007900D01*
X022941Y007980D01*
X022745Y007980D01*
X022745Y008010D01*
X024164Y008010D01*
X024318Y008074D01*
X024730Y008486D01*
X025066Y008150D01*
X025150Y008066D01*
X025260Y008020D01*
X026510Y008020D01*
X026510Y007927D01*
X026565Y007872D01*
X026565Y007777D01*
X026617Y007652D01*
X026712Y007557D01*
X026712Y007557D01*
X026887Y007382D01*
X026936Y007362D01*
X026931Y007357D01*
X026870Y007210D01*
X026870Y007050D01*
X026931Y006903D01*
X027043Y006791D01*
X027190Y006730D01*
X027562Y006730D01*
X030233Y004060D01*
X030328Y004020D01*
X031290Y004020D01*
X031290Y003986D01*
X031372Y003904D01*
X031961Y003904D01*
X032043Y003986D01*
X032043Y004574D01*
X031961Y004656D01*
X031372Y004656D01*
X031290Y004574D01*
X031290Y004540D01*
X030488Y004540D01*
X028127Y006901D01*
X028129Y006903D01*
X028190Y007050D01*
X028190Y007174D01*
X029197Y006167D01*
X029322Y006115D01*
X030629Y006115D01*
X030679Y006065D01*
X030092Y006065D01*
X030010Y005983D01*
X030010Y005277D01*
X030092Y005195D01*
X030146Y005195D01*
X030146Y005002D01*
X030186Y004907D01*
X030260Y004833D01*
X030333Y004760D01*
X030428Y004720D01*
X032220Y004720D01*
X032220Y004656D01*
X032199Y004656D01*
X032117Y004574D01*
X032117Y003986D01*
X032199Y003904D01*
X032788Y003904D01*
X032870Y003986D01*
X032870Y004574D01*
X032788Y004656D01*
X032740Y004656D01*
X032740Y004882D01*
X032700Y004977D01*
X032627Y005050D01*
X032483Y005195D01*
X032520Y005195D01*
X032580Y005255D01*
X032640Y005195D01*
X032880Y005195D01*
X032880Y003804D01*
X032546Y003470D01*
X032542Y003470D01*
X032381Y003403D01*
X032257Y003279D01*
X032190Y003118D01*
X032190Y002342D01*
X032257Y002181D01*
X032381Y002057D01*
X032542Y001990D01*
X032718Y001990D01*
X032879Y002057D01*
X033003Y002181D01*
X033070Y002342D01*
X033070Y003118D01*
X033062Y003137D01*
X033350Y003426D01*
X033434Y003510D01*
X033480Y003620D01*
X033480Y005464D01*
X033434Y005574D01*
X033350Y005658D01*
X033350Y005983D01*
X033268Y006065D01*
X032640Y006065D01*
X032580Y006005D01*
X032520Y006065D01*
X031892Y006065D01*
X031810Y005983D01*
X031810Y005930D01*
X031550Y005930D01*
X031550Y005983D01*
X031494Y006039D01*
X031494Y006139D01*
X031442Y006264D01*
X031058Y006648D01*
X030963Y006743D01*
X030838Y006795D01*
X029531Y006795D01*
X028368Y007958D01*
X028243Y008010D01*
X028090Y008010D01*
X028090Y008232D01*
X027702Y008232D01*
X027702Y008328D01*
X027606Y008328D01*
X027606Y008755D01*
X027374Y008755D01*
X027329Y008743D01*
X027288Y008719D01*
X027254Y008686D01*
X027252Y008683D01*
X027220Y008715D01*
X027155Y008715D01*
X027155Y009492D01*
X027115Y009587D01*
X027042Y009660D01*
X026902Y009800D01*
X026807Y009840D01*
X026763Y009840D01*
X026825Y009902D01*
X026825Y010258D01*
X026753Y010330D01*
X026825Y010402D01*
X026825Y010758D01*
X026753Y010830D01*
X026825Y010902D01*
X026825Y011258D01*
X026743Y011340D01*
X026038Y011340D01*
X025889Y011489D01*
X025941Y011615D01*
X025941Y011765D01*
X025884Y011903D01*
X025778Y012009D01*
X025640Y012066D01*
X025490Y012066D01*
X025352Y012009D01*
X025246Y011903D01*
X025189Y011765D01*
X025189Y011615D01*
X025246Y011477D01*
X025305Y011418D01*
X025305Y011393D01*
X025345Y011298D01*
X025390Y011253D01*
X025385Y011248D01*
X025385Y010912D01*
X025390Y010907D01*
X025295Y010946D01*
X025145Y010946D01*
X025007Y010889D01*
X025000Y010882D01*
X025000Y011669D01*
X025005Y011681D01*
X025005Y011834D01*
X025394Y012150D01*
X025472Y012073D01*
X026729Y012073D01*
X026811Y012155D01*
X026811Y013255D01*
X026729Y013337D01*
X025937Y013337D01*
X025886Y013355D01*
X025880Y013354D01*
X025875Y013356D01*
X025797Y013349D01*
X025683Y013341D01*
X025635Y013346D01*
X025604Y013337D01*
X025472Y013337D01*
X025390Y013255D01*
X025390Y013231D01*
X025383Y013224D01*
X024363Y012395D01*
X024342Y012386D01*
X024298Y012342D01*
X024277Y012325D01*
X022669Y012325D01*
X022605Y012389D01*
X022605Y016287D01*
X022909Y016537D01*
X022950Y016520D01*
X023110Y016520D01*
X023257Y016581D01*
X023369Y016693D01*
X023430Y016840D01*
X023430Y017038D01*
X023440Y017056D01*
X023456Y017222D01*
X023430Y017308D01*
X023430Y017520D01*
X023388Y017620D01*
X023392Y017620D01*
X023570Y017442D01*
X023570Y014083D01*
X023610Y013988D01*
X023683Y013915D01*
X024198Y013400D01*
X024293Y013360D01*
X028011Y013360D01*
X027978Y013341D01*
X027945Y013308D01*
X027921Y013267D01*
X027909Y013221D01*
X027909Y012785D01*
X028580Y012785D01*
X028580Y013377D01*
X028558Y013377D01*
X028612Y013400D01*
X028685Y013473D01*
X028876Y013664D01*
X028916Y013759D01*
X028916Y014336D01*
X029088Y014336D01*
X029097Y014327D02*
X029138Y014304D01*
X029183Y014291D01*
X029386Y014291D01*
X029386Y014728D01*
X029422Y014728D01*
X029422Y014291D01*
X029625Y014291D01*
X029670Y014304D01*
X029711Y014327D01*
X029745Y014361D01*
X029769Y014402D01*
X029781Y014448D01*
X029781Y014729D01*
X029422Y014729D01*
X029422Y014765D01*
X029386Y014765D01*
X029386Y015203D01*
X029290Y015203D01*
X029367Y015279D01*
X029367Y015947D01*
X029330Y015984D01*
X029330Y016160D01*
X029383Y016160D01*
X029465Y016242D01*
X029465Y016870D01*
X029405Y016930D01*
X029465Y016990D01*
X029465Y017618D01*
X029383Y017700D01*
X029330Y017700D01*
X029330Y017860D01*
X029383Y017860D01*
X029465Y017942D01*
X029465Y018570D01*
X029405Y018630D01*
X029465Y018690D01*
X029465Y018704D01*
X029710Y018704D01*
X029710Y018627D01*
X029792Y018545D01*
X030420Y018545D01*
X030452Y018577D01*
X030454Y018574D01*
X030488Y018541D01*
X030529Y018517D01*
X030574Y018505D01*
X030806Y018505D01*
X030806Y018932D01*
X030902Y018932D01*
X030902Y018505D01*
X031134Y018505D01*
X031179Y018517D01*
X031220Y018541D01*
X031254Y018574D01*
X031278Y018615D01*
X031290Y018661D01*
X031290Y018932D01*
X033071Y018932D01*
X033071Y018902D02*
X033215Y018366D01*
X033493Y017885D01*
X033885Y017493D01*
X034366Y017215D01*
X034902Y017071D01*
X035458Y017071D01*
X035994Y017215D01*
X036475Y017493D01*
X036867Y017885D01*
X037145Y018366D01*
X037150Y018386D01*
X037150Y013974D01*
X037145Y013994D01*
X036867Y014475D01*
X036475Y014867D01*
X035994Y015145D01*
X035524Y015271D01*
X035630Y015271D01*
X035712Y015353D01*
X035712Y016807D01*
X035630Y016889D01*
X034766Y016889D01*
X034684Y016807D01*
X034684Y015353D01*
X034766Y015271D01*
X034836Y015271D01*
X034366Y015145D01*
X033885Y014867D01*
X033493Y014475D01*
X033215Y013994D01*
X033071Y013458D01*
X033071Y012902D01*
X033215Y012366D01*
X033493Y011885D01*
X033885Y011493D01*
X034366Y011215D01*
X034902Y011071D01*
X035458Y011071D01*
X035994Y011215D01*
X036475Y011493D01*
X036867Y011885D01*
X037145Y012366D01*
X037150Y012386D01*
X037150Y008038D01*
X037133Y008080D01*
X037056Y008231D01*
X036968Y008375D01*
X036869Y008511D01*
X036759Y008640D01*
X036640Y008759D01*
X036511Y008869D01*
X036375Y008968D01*
X036231Y009056D01*
X036080Y009133D01*
X035924Y009197D01*
X035764Y009249D01*
X035599Y009289D01*
X035433Y009315D01*
X035264Y009329D01*
X035260Y009329D01*
X035260Y007260D01*
X035100Y007260D01*
X035100Y009329D01*
X035096Y009329D01*
X034927Y009315D01*
X034761Y009289D01*
X034596Y009249D01*
X034436Y009197D01*
X034280Y009133D01*
X034129Y009056D01*
X033985Y008968D01*
X033849Y008869D01*
X033720Y008759D01*
X033601Y008640D01*
X033491Y008511D01*
X033392Y008375D01*
X033304Y008231D01*
X033227Y008080D01*
X033163Y007924D01*
X033111Y007764D01*
X033071Y007599D01*
X033045Y007433D01*
X033031Y007264D01*
X033031Y007260D01*
X035100Y007260D01*
X035100Y007100D01*
X035260Y007100D01*
X035260Y005031D01*
X035264Y005031D01*
X035433Y005045D01*
X035599Y005071D01*
X035764Y005111D01*
X035924Y005163D01*
X036080Y005227D01*
X036231Y005304D01*
X036375Y005392D01*
X036511Y005491D01*
X036640Y005601D01*
X036759Y005720D01*
X036869Y005849D01*
X036968Y005985D01*
X037056Y006129D01*
X037133Y006280D01*
X037150Y006322D01*
X037150Y001410D01*
X018281Y001410D01*
X018292Y001412D01*
X018364Y001435D01*
X018432Y001469D01*
X018493Y001514D01*
X018546Y001567D01*
X018591Y001628D01*
X018625Y001696D01*
X018648Y001768D01*
X018660Y001842D01*
X018660Y002160D01*
X018200Y002160D01*
X018200Y002200D01*
X018160Y002200D01*
X018160Y002960D01*
X018142Y002960D01*
X018068Y002948D01*
X017996Y002925D01*
X017928Y002891D01*
X017867Y002846D01*
X017814Y002793D01*
X017769Y002732D01*
X017735Y002664D01*
X017712Y002592D01*
X017700Y002518D01*
X017700Y002200D01*
X018160Y002200D01*
X018160Y002160D01*
X017700Y002160D01*
X017700Y001842D01*
X017712Y001768D01*
X017735Y001696D01*
X017769Y001628D01*
X017814Y001567D01*
X017867Y001514D01*
X017928Y001469D01*
X017996Y001435D01*
X018068Y001412D01*
X018079Y001410D01*
X017281Y001410D01*
X017292Y001412D01*
X017364Y001435D01*
X017432Y001469D01*
X017493Y001514D01*
X017546Y001567D01*
X017591Y001628D01*
X017625Y001696D01*
X017648Y001768D01*
X017660Y001842D01*
X017660Y002160D01*
X017200Y002160D01*
X017200Y002200D01*
X017160Y002200D01*
X017160Y002960D01*
X017142Y002960D01*
X017068Y002948D01*
X016996Y002925D01*
X016928Y002891D01*
X016867Y002846D01*
X016814Y002793D01*
X016769Y002732D01*
X016735Y002664D01*
X016712Y002592D01*
X016700Y002518D01*
X016700Y002200D01*
X017160Y002200D01*
X017160Y002160D01*
X016700Y002160D01*
X016700Y001842D01*
X016712Y001768D01*
X016735Y001696D01*
X016769Y001628D01*
X016814Y001567D01*
X016867Y001514D01*
X016928Y001469D01*
X016996Y001435D01*
X017068Y001412D01*
X017079Y001410D01*
X011639Y001410D01*
X011669Y001423D01*
X011793Y001546D01*
X011860Y001708D01*
X011860Y002483D01*
X011793Y002645D01*
X011669Y002769D01*
X011508Y002836D01*
X011332Y002836D01*
X011171Y002769D01*
X011047Y002645D01*
X010980Y002483D01*
X010980Y001708D01*
X011047Y001546D01*
X011171Y001423D01*
X011201Y001410D01*
X009926Y001410D01*
X009953Y001430D01*
X010006Y001483D01*
X010051Y001544D01*
X010085Y001611D01*
X010108Y001683D01*
X010120Y001758D01*
X010120Y002076D01*
X009660Y002076D01*
X009660Y002116D01*
X009620Y002116D01*
X009620Y002876D01*
X009602Y002876D01*
X009528Y002864D01*
X009456Y002841D01*
X009388Y002806D01*
X009327Y002762D01*
X009274Y002708D01*
X009229Y002647D01*
X009195Y002580D01*
X009172Y002508D01*
X009160Y002433D01*
X009160Y002116D01*
X009620Y002116D01*
X009620Y002076D01*
X009160Y002076D01*
X009160Y001758D01*
X009172Y001683D01*
X009195Y001611D01*
X009229Y001544D01*
X009274Y001483D01*
X009327Y001430D01*
X009354Y001410D01*
X006937Y001410D01*
X007139Y001493D01*
X007367Y001721D01*
X007490Y002019D01*
X007490Y002341D01*
X007367Y002639D01*
X007139Y002867D01*
X006950Y002945D01*
X011987Y002945D01*
X012115Y002817D01*
X012115Y002603D01*
X012155Y002508D01*
X012163Y002499D01*
X012185Y002448D01*
X012630Y002003D01*
X012703Y001930D01*
X012798Y001890D01*
X013740Y001890D01*
X013740Y001792D01*
X013807Y001631D01*
X013931Y001507D01*
X014092Y001440D01*
X014268Y001440D01*
X014429Y001507D01*
X014553Y001631D01*
X014620Y001792D01*
X014620Y002568D01*
X014553Y002729D01*
X014429Y002853D01*
X014268Y002920D01*
X014092Y002920D01*
X013931Y002853D01*
X013807Y002729D01*
X013740Y002568D01*
X013740Y002410D01*
X012958Y002410D01*
X012647Y002721D01*
X012635Y002749D01*
X012635Y002977D01*
X012595Y003072D01*
X012522Y003145D01*
X012242Y003425D01*
X012147Y003465D01*
X005893Y003465D01*
X005798Y003425D01*
X005725Y003352D01*
X005260Y002887D01*
X005220Y002792D01*
X005220Y002643D01*
X004883Y002306D01*
X004872Y002306D01*
X004872Y002433D01*
X004805Y002595D01*
X004732Y002668D01*
X004732Y003983D01*
X004805Y004056D01*
X004872Y004218D01*
X004872Y004993D01*
X004805Y005155D01*
X004681Y005279D01*
X004520Y005346D01*
X004345Y005346D01*
X004183Y005279D01*
X004059Y005155D01*
X003992Y004993D01*
X003992Y004218D01*
X004059Y004056D01*
X004132Y003983D01*
X004132Y002668D01*
X004059Y002595D01*
X003992Y002433D01*
X003992Y001658D01*
X004059Y001496D01*
X004146Y001410D01*
X002995Y001410D01*
X003018Y001433D01*
X003063Y001494D01*
X003097Y001561D01*
X003120Y001633D01*
X003132Y001708D01*
X003132Y002026D01*
X002672Y002026D01*
X002672Y002066D01*
X002632Y002066D01*
X002632Y002826D01*
X002614Y002826D01*
X002540Y002814D01*
X002468Y002791D01*
X002401Y002756D01*
X002340Y002712D01*
X002286Y002658D01*
X002242Y002597D01*
X002207Y002530D01*
X002184Y002458D01*
X002172Y002383D01*
X002172Y002066D01*
X002632Y002066D01*
X002632Y002026D01*
X002172Y002026D01*
X002172Y001708D01*
X002184Y001633D01*
X002207Y001561D01*
X002242Y001494D01*
X002286Y001433D01*
X002309Y001410D01*
X001574Y001410D01*
X001542Y001413D01*
X001483Y001438D01*
X001438Y001483D01*
X001413Y001542D01*
X001410Y001574D01*
X001410Y021786D01*
X001413Y021818D01*
X001438Y021877D01*
X001483Y021922D01*
X001542Y021947D01*
X001574Y021950D01*
X001669Y021950D01*
X001669Y021950D01*
X019027Y021974D01*
X018960Y021907D01*
X018920Y021812D01*
X018920Y021794D01*
X018824Y021698D01*
X018760Y021544D01*
X018760Y020816D01*
X018824Y020662D01*
X018942Y020544D01*
X019032Y020507D01*
X018955Y020474D01*
X018843Y020363D01*
X018783Y020217D01*
X018783Y019543D01*
X018843Y019397D01*
X018880Y019360D01*
X018877Y019360D01*
X018795Y019278D01*
X018795Y018650D01*
X018855Y018590D01*
X018795Y018530D01*
X018795Y017902D01*
X018877Y017820D01*
X019583Y017820D01*
X019618Y017855D01*
X019705Y017819D01*
X019801Y017819D01*
X019370Y017387D01*
X019330Y017292D01*
X019330Y016572D01*
X019271Y016513D01*
X019214Y016375D01*
X019214Y016225D01*
X019271Y016087D01*
X019377Y015981D01*
X019515Y015924D01*
X019665Y015924D01*
X019803Y015981D01*
X019909Y016087D01*
X019966Y016225D01*
X019966Y016375D01*
X019909Y016513D01*
X019850Y016572D01*
X019850Y017132D01*
X019854Y017136D01*
X019854Y017085D01*
X019911Y016947D01*
X020017Y016841D01*
X020155Y016784D01*
X020305Y016784D01*
X020443Y016841D01*
X020549Y016947D01*
X020606Y017085D01*
X020606Y017169D01*
X021030Y017593D01*
X021076Y017482D01*
X021182Y017376D01*
X021320Y017319D01*
X021470Y017319D01*
X021608Y017376D01*
X021714Y017482D01*
X021771Y017620D01*
X021771Y017704D01*
X022043Y017975D01*
X022197Y017975D01*
X021990Y017767D01*
X021950Y017672D01*
X021950Y017581D01*
X021373Y017096D01*
X021255Y017096D01*
X021117Y017039D01*
X021011Y016933D01*
X020954Y016795D01*
X020954Y016645D01*
X021011Y016507D01*
X021117Y016401D01*
X021255Y016344D01*
X021405Y016344D01*
X021543Y016401D01*
X021649Y016507D01*
X021706Y016645D01*
X021706Y016697D01*
X022347Y017235D01*
X022357Y017240D01*
X022386Y017268D01*
X022417Y017294D01*
X022422Y017305D01*
X022430Y017313D01*
X022446Y017350D01*
X022465Y017386D01*
X022466Y017398D01*
X022470Y017408D01*
X022470Y017449D01*
X022473Y017489D01*
X022470Y017500D01*
X022470Y017512D01*
X022578Y017620D01*
X022672Y017620D01*
X022630Y017520D01*
X022630Y017395D01*
X021967Y016849D01*
X021947Y016841D01*
X021902Y016796D01*
X021854Y016756D01*
X021844Y016738D01*
X021829Y016723D01*
X021805Y016665D01*
X021775Y016609D01*
X021773Y016588D01*
X021765Y016569D01*
X021765Y016505D01*
X021759Y016443D01*
X021765Y016422D01*
X021765Y014435D01*
X019154Y014435D01*
X018600Y014989D01*
X018600Y019964D01*
X018577Y020018D01*
X018577Y020217D01*
X018517Y020363D01*
X018405Y020474D01*
X018259Y020535D01*
X018101Y020535D01*
X017955Y020474D01*
X017920Y020440D01*
X017920Y020487D01*
X017905Y020523D01*
X017905Y020631D01*
X017936Y020662D01*
X018000Y020816D01*
X018000Y021544D01*
X017936Y021698D01*
X017818Y021816D01*
X017664Y021880D01*
X017496Y021880D01*
X017342Y021816D01*
X017224Y021698D01*
X017160Y021544D01*
X017160Y020816D01*
X017224Y020662D01*
X017342Y020544D01*
X017385Y020526D01*
X017385Y020483D01*
X017259Y020535D01*
X017101Y020535D01*
X016955Y020474D01*
X016915Y020435D01*
X016915Y020641D01*
X016936Y020662D01*
X017000Y020816D01*
X017000Y021544D01*
X016936Y021698D01*
X016818Y021816D01*
X016664Y021880D01*
X016496Y021880D01*
X016342Y021816D01*
X016224Y021698D01*
X016160Y021544D01*
X016160Y020816D01*
X016224Y020662D01*
X016342Y020544D01*
X016395Y020522D01*
X016395Y020479D01*
X016259Y020535D01*
X016101Y020535D01*
X015955Y020474D01*
X015843Y020363D01*
X015783Y020217D01*
X015783Y019543D01*
X015843Y019397D01*
X015955Y019286D01*
X016101Y019225D01*
X016259Y019225D01*
X016395Y019281D01*
X016395Y017446D01*
X016394Y017295D01*
X016370Y017352D01*
X016297Y017425D01*
X014440Y019283D01*
X014440Y019320D01*
X014517Y019397D01*
X014577Y019543D01*
X014577Y020217D01*
X014517Y020363D01*
X014405Y020474D01*
X014259Y020535D01*
X014101Y020535D01*
X013981Y020485D01*
X013980Y020769D01*
X014000Y020816D01*
X014000Y021544D01*
X013936Y021698D01*
X013818Y021816D01*
X013664Y021880D01*
X013496Y021880D01*
X013342Y021816D01*
X013224Y021698D01*
X013160Y021544D01*
X013160Y020816D01*
X013224Y020662D01*
X013342Y020544D01*
X013381Y020528D01*
X013381Y020484D01*
X013259Y020535D01*
X013101Y020535D01*
X012965Y020479D01*
X012965Y020545D01*
X012922Y020648D01*
X012936Y020662D01*
X013000Y020816D01*
X013000Y021544D01*
X012936Y021698D01*
X012818Y021816D01*
X012664Y021880D01*
X012496Y021880D01*
X012342Y021816D01*
X012224Y021698D01*
X012160Y021544D01*
X012160Y020816D01*
X012224Y020662D01*
X012280Y020606D01*
X012280Y020526D01*
X012259Y020535D01*
X012101Y020535D01*
X011955Y020474D01*
X011843Y020363D01*
X011783Y020217D01*
X011783Y019543D01*
X011843Y019397D01*
X011955Y019286D01*
X012101Y019225D01*
X012259Y019225D01*
X012365Y019269D01*
X012365Y018642D01*
X012361Y018638D01*
X012304Y018500D01*
X012304Y018350D01*
X012361Y018212D01*
X012467Y018106D01*
X012506Y018090D01*
X008184Y018090D01*
X007480Y018794D01*
X007480Y019360D01*
X007517Y019397D01*
X007577Y019543D01*
X007577Y020217D01*
X007517Y020363D01*
X007496Y020384D01*
X007639Y020443D01*
X007867Y020671D01*
X007990Y020969D01*
X007990Y021291D01*
X007867Y021589D01*
X007639Y021817D01*
X007341Y021940D01*
X007019Y021940D01*
X006721Y021817D01*
X006493Y021589D01*
X006370Y021291D01*
X006370Y020969D01*
X006493Y020671D01*
X006721Y020443D01*
X006864Y020384D01*
X006843Y020363D01*
X006783Y020217D01*
X006783Y019543D01*
X006843Y019397D01*
X006880Y019360D01*
X006880Y018644D01*
X006480Y019044D01*
X006480Y019360D01*
X006517Y019397D01*
X006577Y019543D01*
X006577Y020217D01*
X006517Y020363D01*
X006405Y020474D01*
X006259Y020535D01*
X006101Y020535D01*
X005955Y020474D01*
X005843Y020363D01*
X005783Y020217D01*
X005783Y019543D01*
X005843Y019397D01*
X005880Y019360D01*
X005880Y018860D01*
X005926Y018750D01*
X006010Y018666D01*
X007165Y017511D01*
X007165Y017289D01*
X005600Y018854D01*
X005600Y019964D01*
X005577Y020018D01*
X005577Y020217D01*
X005517Y020363D01*
X005405Y020474D01*
X005259Y020535D01*
X005101Y020535D01*
X004955Y020474D01*
X004843Y020363D01*
X004783Y020217D01*
X004783Y020018D01*
X004760Y019964D01*
X004760Y018596D01*
X004824Y018442D01*
X004942Y018324D01*
X006410Y016856D01*
X006410Y009096D01*
X006474Y008942D01*
X006592Y008824D01*
X007032Y008384D01*
X006010Y007362D01*
X005970Y007267D01*
X005970Y006350D01*
X005877Y006350D01*
X005795Y006268D01*
X005795Y005640D01*
X005855Y005580D01*
X005795Y005520D01*
X005795Y004892D01*
X005877Y004810D01*
X005957Y004810D01*
X005957Y004506D01*
X005922Y004506D01*
X005840Y004424D01*
X005840Y003836D01*
X005922Y003754D01*
X006511Y003754D01*
X006593Y003836D01*
X006593Y004424D01*
X006511Y004506D01*
X006477Y004506D01*
X006477Y004810D01*
X006583Y004810D01*
X006665Y004892D01*
X006665Y005520D01*
X006605Y005580D01*
X006665Y005640D01*
X006665Y006268D01*
X006583Y006350D01*
X006490Y006350D01*
X006490Y007107D01*
X007543Y008160D01*
X012706Y008160D01*
X013460Y007406D01*
X013460Y004296D01*
X013514Y004167D01*
X013513Y004166D01*
X013265Y004166D01*
X013265Y004220D01*
X013205Y004280D01*
X013265Y004340D01*
X013265Y004968D01*
X013183Y005050D01*
X012477Y005050D01*
X012395Y004968D01*
X012395Y004914D01*
X011860Y004914D01*
X011860Y005043D01*
X011793Y005205D01*
X011669Y005329D01*
X011508Y005396D01*
X011332Y005396D01*
X011171Y005329D01*
X011047Y005205D01*
X010980Y005043D01*
X010980Y004268D01*
X011047Y004106D01*
X011171Y003983D01*
X011332Y003916D01*
X011508Y003916D01*
X011669Y003983D01*
X011793Y004106D01*
X011860Y004268D01*
X011860Y004394D01*
X012395Y004394D01*
X012395Y004340D01*
X012455Y004280D01*
X012395Y004220D01*
X012395Y003592D01*
X012477Y003510D01*
X013183Y003510D01*
X013265Y003592D01*
X013265Y003646D01*
X013673Y003646D01*
X013768Y003686D01*
X013874Y003792D01*
X014342Y003324D01*
X014496Y003260D01*
X015706Y003260D01*
X015760Y003206D01*
X015760Y002616D01*
X015740Y002568D01*
X015740Y001792D01*
X015807Y001631D01*
X015931Y001507D01*
X016092Y001440D01*
X016268Y001440D01*
X016429Y001507D01*
X016553Y001631D01*
X016620Y001792D01*
X016620Y002568D01*
X016600Y002616D01*
X016600Y003260D01*
X016814Y003260D01*
X016968Y003324D01*
X017318Y003674D01*
X017436Y003792D01*
X017500Y003946D01*
X017500Y004862D01*
X017766Y004862D01*
X017920Y004926D01*
X018920Y005926D01*
X018920Y005531D01*
X018875Y005486D01*
X018820Y005354D01*
X018820Y005211D01*
X018875Y005078D01*
X018976Y004977D01*
X019108Y004922D01*
X019252Y004922D01*
X019384Y004977D01*
X019485Y005078D01*
X019540Y005211D01*
X019540Y005354D01*
X019485Y005486D01*
X019440Y005531D01*
X019440Y005857D01*
X019692Y006110D01*
X019765Y006183D01*
X019805Y006278D01*
X019805Y006848D01*
X019847Y006806D01*
X019985Y006749D01*
X020135Y006749D01*
X020273Y006806D01*
X020331Y006864D01*
X020332Y006861D01*
X020356Y006819D01*
X020389Y006786D01*
X020431Y006762D01*
X020476Y006750D01*
X020810Y006750D01*
X021144Y006750D01*
X021189Y006762D01*
X021231Y006786D01*
X021264Y006819D01*
X021288Y006861D01*
X021300Y006906D01*
X021300Y007000D01*
X020810Y007000D01*
X020810Y007000D01*
X020810Y007000D01*
X020415Y007000D01*
X020415Y007000D01*
X020810Y007000D01*
X020810Y007000D01*
X020810Y006750D01*
X020810Y007000D01*
X020810Y007000D01*
X020810Y007030D01*
X020810Y007030D01*
X020810Y006886D02*
X020810Y006886D01*
X021295Y006886D02*
X021415Y006886D01*
X021415Y006728D02*
X019805Y006728D01*
X019805Y006569D02*
X021485Y006569D01*
X021635Y006730D02*
X021800Y006565D01*
X022900Y006565D01*
X023265Y006200D01*
X023265Y005297D01*
X023280Y005282D01*
X023612Y005143D02*
X023716Y005143D01*
X023640Y005301D02*
X023874Y005301D01*
X023964Y005460D02*
X023596Y005460D01*
X023485Y005618D02*
X024150Y005618D01*
X024410Y005618D02*
X025150Y005618D01*
X025410Y005618D02*
X028674Y005618D01*
X028516Y005777D02*
X023485Y005777D01*
X023485Y005935D02*
X028357Y005935D01*
X028199Y006094D02*
X023485Y006094D01*
X023485Y006252D02*
X028040Y006252D01*
X027882Y006411D02*
X023366Y006411D01*
X023207Y006569D02*
X027723Y006569D01*
X027565Y006728D02*
X023049Y006728D01*
X023047Y006886D02*
X023948Y006886D01*
X023931Y006903D02*
X024043Y006791D01*
X024190Y006730D01*
X024870Y006730D01*
X025017Y006791D01*
X025129Y006903D01*
X025190Y007050D01*
X025190Y007210D01*
X025129Y007357D01*
X025017Y007469D01*
X024870Y007530D01*
X024190Y007530D01*
X024043Y007469D01*
X023931Y007357D01*
X023870Y007210D01*
X023870Y007050D01*
X023931Y006903D01*
X023872Y007045D02*
X023150Y007045D01*
X023150Y007203D02*
X023870Y007203D01*
X023936Y007362D02*
X023150Y007362D01*
X023150Y007520D02*
X024166Y007520D01*
X024894Y007520D02*
X026749Y007520D01*
X026606Y007679D02*
X023150Y007679D01*
X023084Y007837D02*
X026565Y007837D01*
X026510Y007996D02*
X022745Y007996D01*
X022850Y007760D02*
X022150Y007760D01*
X022150Y007510D02*
X021430Y007510D01*
X020810Y007760D02*
X020350Y007760D01*
X020280Y007830D01*
X020280Y008330D01*
X020180Y008430D01*
X019248Y008830D02*
X019142Y008786D01*
X019024Y008668D01*
X018574Y008218D01*
X018510Y008064D01*
X018510Y008014D01*
X017911Y008014D01*
X017895Y008030D01*
X017389Y008030D01*
X017307Y007948D01*
X017307Y007560D01*
X017389Y007478D01*
X017895Y007478D01*
X017911Y007494D01*
X018510Y007494D01*
X018510Y007302D01*
X018488Y007324D01*
X018350Y007381D01*
X018200Y007381D01*
X018062Y007324D01*
X017963Y007225D01*
X017951Y007225D01*
X017895Y007282D01*
X017389Y007282D01*
X017307Y007200D01*
X017307Y006812D01*
X017389Y006730D01*
X017895Y006730D01*
X017950Y006785D01*
X017963Y006785D01*
X018062Y006686D01*
X018200Y006629D01*
X018350Y006629D01*
X018488Y006686D01*
X018510Y006708D01*
X018510Y006704D01*
X017508Y005702D01*
X016946Y005702D01*
X016792Y005638D01*
X016674Y005520D01*
X016610Y005366D01*
X016610Y005199D01*
X016660Y005078D01*
X016660Y004204D01*
X016556Y004100D01*
X014754Y004100D01*
X014300Y004554D01*
X014300Y007664D01*
X014236Y007818D01*
X013236Y008818D01*
X013118Y008936D01*
X012964Y009000D01*
X007604Y009000D01*
X007250Y009354D01*
X007250Y009456D01*
X007295Y009411D01*
X007530Y009176D01*
X007640Y009130D01*
X013461Y009130D01*
X014880Y007711D01*
X014880Y006455D01*
X014926Y006345D01*
X015010Y006261D01*
X015730Y005541D01*
X015730Y005491D01*
X015725Y005486D01*
X015670Y005354D01*
X015670Y005211D01*
X015725Y005078D01*
X015826Y004977D01*
X015958Y004922D01*
X016102Y004922D01*
X016234Y004977D01*
X016335Y005078D01*
X016390Y005211D01*
X016390Y005354D01*
X016335Y005486D01*
X016330Y005491D01*
X016330Y005725D01*
X016284Y005835D01*
X015480Y006639D01*
X015480Y007123D01*
X015547Y007056D01*
X015685Y006999D01*
X015835Y006999D01*
X015973Y007056D01*
X015989Y007072D01*
X016099Y007071D01*
X016100Y007070D01*
X016158Y007070D01*
X016216Y007069D01*
X016218Y007070D01*
X016220Y007070D01*
X016247Y007081D01*
X016247Y007006D01*
X016247Y006846D01*
X016260Y006801D01*
X016283Y006760D01*
X016317Y006726D01*
X016358Y006702D01*
X016404Y006690D01*
X016622Y006690D01*
X016622Y007006D01*
X016622Y007006D01*
X016247Y007006D01*
X016622Y007006D01*
X016622Y007104D01*
X016622Y007104D01*
X016622Y007006D01*
X016622Y007006D01*
X016622Y007006D01*
X016622Y006690D01*
X016841Y006690D01*
X016886Y006702D01*
X016928Y006726D01*
X016961Y006760D01*
X016985Y006801D01*
X016997Y006846D01*
X016997Y007006D01*
X016997Y007166D01*
X016985Y007211D01*
X016961Y007252D01*
X016957Y007256D01*
X016957Y007948D01*
X016875Y008030D01*
X016369Y008030D01*
X016287Y007948D01*
X016287Y007649D01*
X016225Y007675D01*
X016105Y007675D01*
X016095Y007671D01*
X015995Y007672D01*
X015973Y007694D01*
X015835Y007751D01*
X015685Y007751D01*
X015547Y007694D01*
X015480Y007627D01*
X015480Y007895D01*
X015434Y008005D01*
X013839Y009600D01*
X013755Y009684D01*
X013645Y009730D01*
X007824Y009730D01*
X007765Y009789D01*
X007765Y017661D01*
X007806Y017620D01*
X007890Y017536D01*
X008000Y017490D01*
X013312Y017490D01*
X013313Y017490D01*
X013371Y017490D01*
X013430Y017490D01*
X013431Y017490D01*
X013432Y017490D01*
X013486Y017513D01*
X013540Y017536D01*
X013541Y017537D01*
X013542Y017537D01*
X013583Y017579D01*
X013624Y017620D01*
X013625Y017621D01*
X013898Y017899D01*
X013940Y017940D01*
X013940Y017941D01*
X013941Y017942D01*
X013963Y017996D01*
X013985Y018051D01*
X013985Y018052D01*
X013985Y018053D01*
X013985Y018111D01*
X013983Y019004D01*
X015890Y017097D01*
X015890Y016487D01*
X015888Y016442D01*
X015890Y016436D01*
X015890Y016428D01*
X015907Y016387D01*
X015922Y016345D01*
X015927Y016339D01*
X015930Y016333D01*
X015961Y016301D01*
X016102Y016144D01*
X016105Y016137D01*
X016137Y016106D01*
X016166Y016073D01*
X016173Y016069D01*
X016179Y016064D01*
X016220Y016047D01*
X016259Y016028D01*
X016267Y016028D01*
X016275Y016025D01*
X016319Y016025D01*
X016363Y016023D01*
X016370Y016025D01*
X017034Y016029D01*
X017092Y015971D01*
X017230Y015914D01*
X017380Y015914D01*
X017518Y015971D01*
X017624Y016077D01*
X017681Y016215D01*
X017681Y016365D01*
X017624Y016503D01*
X017518Y016609D01*
X017380Y016666D01*
X017230Y016666D01*
X017092Y016609D01*
X017032Y016549D01*
X016986Y016548D01*
X017026Y016645D01*
X017026Y016795D01*
X016969Y016933D01*
X016912Y016990D01*
X016915Y017392D01*
X016915Y017393D01*
X016915Y017444D01*
X016915Y017495D01*
X016915Y017496D01*
X016915Y019325D01*
X016955Y019286D01*
X017101Y019225D01*
X017259Y019225D01*
X017400Y019283D01*
X017400Y018016D01*
X017347Y017994D01*
X017241Y017888D01*
X017184Y017750D01*
X017184Y017600D01*
X017241Y017462D01*
X017347Y017356D01*
X017485Y017299D01*
X017635Y017299D01*
X017760Y017351D01*
X017760Y014731D01*
X017824Y014577D01*
X018624Y013777D01*
X018742Y013659D01*
X018896Y013595D01*
X021765Y013595D01*
X021765Y012131D01*
X021774Y012111D01*
X021550Y012334D01*
X021440Y012380D01*
X021212Y012380D01*
X021193Y012399D01*
X021055Y012456D01*
X020905Y012456D01*
X020767Y012399D01*
X020661Y012293D01*
X020604Y012155D01*
X020604Y012005D01*
X020661Y011867D01*
X020767Y011761D01*
X020905Y011704D01*
X021055Y011704D01*
X021193Y011761D01*
X021212Y011780D01*
X021256Y011780D01*
X021559Y011477D01*
X021520Y011438D01*
X021520Y010842D01*
X021602Y010760D01*
X022598Y010760D01*
X022680Y010842D01*
X022680Y010880D01*
X022718Y010880D01*
X022782Y010816D01*
X022920Y010759D01*
X023070Y010759D01*
X023208Y010816D01*
X023314Y010922D01*
X023371Y011060D01*
X023371Y011210D01*
X023314Y011348D01*
X023208Y011454D01*
X023133Y011485D01*
X024160Y011485D01*
X024160Y009640D01*
X024025Y009696D01*
X023875Y009696D01*
X023788Y009660D01*
X022638Y009660D01*
X022598Y009700D01*
X021602Y009700D01*
X021522Y009620D01*
X020960Y009620D01*
X020850Y009574D01*
X020706Y009430D01*
X020200Y009430D01*
X020233Y009463D01*
X020233Y010997D01*
X020151Y011079D01*
X019169Y011079D01*
X019087Y010997D01*
X019087Y010589D01*
X018896Y010780D01*
X018564Y010780D01*
X018330Y010546D01*
X018330Y010214D01*
X018564Y009980D01*
X018896Y009980D01*
X019087Y010171D01*
X019087Y009463D01*
X019120Y009430D01*
X018804Y009430D01*
X018280Y009954D01*
X018280Y010614D01*
X018380Y010714D01*
X018380Y011046D01*
X018146Y011280D01*
X017814Y011280D01*
X017580Y011046D01*
X017580Y010714D01*
X017680Y010614D01*
X017680Y009770D01*
X017726Y009660D01*
X017810Y009576D01*
X018510Y008876D01*
X018620Y008830D01*
X019248Y008830D01*
X019147Y008788D02*
X014651Y008788D01*
X014493Y008947D02*
X018439Y008947D01*
X018281Y009105D02*
X014334Y009105D01*
X014176Y009264D02*
X018122Y009264D01*
X017964Y009422D02*
X014017Y009422D01*
X013859Y009581D02*
X017805Y009581D01*
X017693Y009739D02*
X007815Y009739D01*
X007765Y009898D02*
X017680Y009898D01*
X017680Y010056D02*
X007765Y010056D01*
X007765Y010215D02*
X017680Y010215D01*
X017680Y010373D02*
X007765Y010373D01*
X007765Y010532D02*
X017680Y010532D01*
X017604Y010690D02*
X007765Y010690D01*
X007765Y010849D02*
X017580Y010849D01*
X017580Y011007D02*
X007765Y011007D01*
X007765Y011166D02*
X017700Y011166D01*
X018260Y011166D02*
X018379Y011166D01*
X018330Y011214D02*
X018564Y010980D01*
X018896Y010980D01*
X018996Y011080D01*
X020530Y011080D01*
X020530Y010620D01*
X020576Y010510D01*
X021026Y010060D01*
X021110Y009976D01*
X021220Y009930D01*
X021522Y009930D01*
X021602Y009850D01*
X022598Y009850D01*
X022678Y009930D01*
X022748Y009930D01*
X022767Y009911D01*
X022905Y009854D01*
X023055Y009854D01*
X023193Y009911D01*
X023299Y010017D01*
X023356Y010155D01*
X023356Y010305D01*
X023299Y010443D01*
X023193Y010549D01*
X023055Y010606D01*
X022905Y010606D01*
X022767Y010549D01*
X022748Y010530D01*
X022678Y010530D01*
X022598Y010610D01*
X021602Y010610D01*
X021522Y010530D01*
X021404Y010530D01*
X021130Y010804D01*
X021130Y011340D01*
X021084Y011450D01*
X021000Y011534D01*
X020900Y011634D01*
X020790Y011680D01*
X018996Y011680D01*
X018896Y011780D01*
X018564Y011780D01*
X018330Y011546D01*
X018330Y011214D01*
X018330Y011324D02*
X007765Y011324D01*
X007765Y011483D02*
X018330Y011483D01*
X018425Y011641D02*
X007765Y011641D01*
X007765Y011800D02*
X020728Y011800D01*
X020623Y011958D02*
X007765Y011958D01*
X007765Y012117D02*
X020604Y012117D01*
X020654Y012275D02*
X007765Y012275D01*
X007765Y012434D02*
X020850Y012434D01*
X021110Y012434D02*
X021765Y012434D01*
X021765Y012592D02*
X007765Y012592D01*
X007765Y012751D02*
X021765Y012751D01*
X021765Y012909D02*
X021351Y012909D01*
X021384Y012942D02*
X021441Y013080D01*
X021441Y013230D01*
X021384Y013368D01*
X021278Y013474D01*
X021140Y013531D01*
X020990Y013531D01*
X020852Y013474D01*
X020783Y013405D01*
X012212Y013405D01*
X012153Y013464D01*
X012015Y013521D01*
X011865Y013521D01*
X011727Y013464D01*
X011621Y013358D01*
X011564Y013220D01*
X011564Y013070D01*
X011621Y012932D01*
X011727Y012826D01*
X011865Y012769D01*
X012015Y012769D01*
X012153Y012826D01*
X012212Y012885D01*
X020803Y012885D01*
X020852Y012836D01*
X020990Y012779D01*
X021140Y012779D01*
X021278Y012836D01*
X021384Y012942D01*
X021436Y013068D02*
X021765Y013068D01*
X021765Y013226D02*
X021441Y013226D01*
X021368Y013385D02*
X021765Y013385D01*
X021765Y013543D02*
X007765Y013543D01*
X007765Y013385D02*
X011647Y013385D01*
X011566Y013226D02*
X007765Y013226D01*
X007765Y013068D02*
X011565Y013068D01*
X011644Y012909D02*
X007765Y012909D01*
X007765Y013702D02*
X018700Y013702D01*
X018541Y013860D02*
X007765Y013860D01*
X007765Y014019D02*
X018383Y014019D01*
X018224Y014177D02*
X007765Y014177D01*
X007765Y014336D02*
X018066Y014336D01*
X017907Y014494D02*
X007765Y014494D01*
X007765Y014653D02*
X017793Y014653D01*
X017760Y014811D02*
X007765Y014811D01*
X007765Y014970D02*
X017760Y014970D01*
X017760Y015128D02*
X007765Y015128D01*
X007765Y015287D02*
X017760Y015287D01*
X017760Y015445D02*
X007765Y015445D01*
X007765Y015604D02*
X017760Y015604D01*
X017760Y015762D02*
X007765Y015762D01*
X007765Y015921D02*
X017214Y015921D01*
X017396Y015921D02*
X017760Y015921D01*
X017760Y016079D02*
X017625Y016079D01*
X017681Y016238D02*
X017760Y016238D01*
X017760Y016396D02*
X017668Y016396D01*
X017760Y016555D02*
X017573Y016555D01*
X017760Y016713D02*
X017026Y016713D01*
X017037Y016555D02*
X016989Y016555D01*
X016994Y016872D02*
X017760Y016872D01*
X017760Y017030D02*
X016912Y017030D01*
X016913Y017189D02*
X017760Y017189D01*
X017751Y017347D02*
X017760Y017347D01*
X017369Y017347D02*
X016914Y017347D01*
X016915Y017506D02*
X017223Y017506D01*
X017184Y017664D02*
X016915Y017664D01*
X016915Y017823D02*
X017214Y017823D01*
X017334Y017981D02*
X016915Y017981D01*
X016915Y018140D02*
X017400Y018140D01*
X017400Y018298D02*
X016915Y018298D01*
X016915Y018457D02*
X017400Y018457D01*
X017400Y018615D02*
X016915Y018615D01*
X016915Y018774D02*
X017400Y018774D01*
X017400Y018932D02*
X016915Y018932D01*
X016915Y019091D02*
X017400Y019091D01*
X017400Y019249D02*
X017317Y019249D01*
X017043Y019249D02*
X016915Y019249D01*
X016395Y019249D02*
X016317Y019249D01*
X016395Y019091D02*
X014632Y019091D01*
X014474Y019249D02*
X015043Y019249D01*
X015101Y019225D02*
X015259Y019225D01*
X015405Y019286D01*
X015517Y019397D01*
X015577Y019543D01*
X015577Y020217D01*
X015517Y020363D01*
X015405Y020474D01*
X015259Y020535D01*
X015101Y020535D01*
X014955Y020474D01*
X014843Y020363D01*
X014783Y020217D01*
X014783Y019543D01*
X014843Y019397D01*
X014955Y019286D01*
X015101Y019225D01*
X015317Y019249D02*
X016043Y019249D01*
X015839Y019408D02*
X015521Y019408D01*
X015577Y019566D02*
X015783Y019566D01*
X015783Y019725D02*
X015577Y019725D01*
X015577Y019883D02*
X015783Y019883D01*
X015783Y020042D02*
X015577Y020042D01*
X015577Y020200D02*
X015783Y020200D01*
X015841Y020359D02*
X015519Y020359D01*
X015496Y020480D02*
X015664Y020480D01*
X015818Y020544D01*
X015936Y020662D01*
X016000Y020816D01*
X016000Y021544D01*
X015936Y021698D01*
X015818Y021816D01*
X015664Y021880D01*
X015496Y021880D01*
X015342Y021816D01*
X015224Y021698D01*
X015160Y021544D01*
X015160Y020816D01*
X015224Y020662D01*
X015342Y020544D01*
X015496Y020480D01*
X015407Y020517D02*
X015302Y020517D01*
X015218Y020676D02*
X014942Y020676D01*
X014936Y020662D02*
X015000Y020816D01*
X015000Y021544D01*
X014936Y021698D01*
X014818Y021816D01*
X014664Y021880D01*
X014496Y021880D01*
X014342Y021816D01*
X014224Y021698D01*
X014160Y021544D01*
X014160Y020816D01*
X014224Y020662D01*
X014342Y020544D01*
X014496Y020480D01*
X014664Y020480D01*
X014818Y020544D01*
X014936Y020662D01*
X015000Y020834D02*
X015160Y020834D01*
X015160Y020993D02*
X015000Y020993D01*
X015000Y021151D02*
X015160Y021151D01*
X015160Y021310D02*
X015000Y021310D01*
X015000Y021468D02*
X015160Y021468D01*
X015194Y021627D02*
X014966Y021627D01*
X014849Y021785D02*
X015311Y021785D01*
X015849Y021785D02*
X016311Y021785D01*
X016194Y021627D02*
X015966Y021627D01*
X016000Y021468D02*
X016160Y021468D01*
X016160Y021310D02*
X016000Y021310D01*
X016000Y021151D02*
X016160Y021151D01*
X016160Y020993D02*
X016000Y020993D01*
X016000Y020834D02*
X016160Y020834D01*
X016218Y020676D02*
X015942Y020676D01*
X016058Y020517D02*
X015753Y020517D01*
X016302Y020517D02*
X016395Y020517D01*
X016915Y020517D02*
X017058Y020517D01*
X016942Y020676D02*
X017218Y020676D01*
X017160Y020834D02*
X017000Y020834D01*
X017000Y020993D02*
X017160Y020993D01*
X017160Y021151D02*
X017000Y021151D01*
X017000Y021310D02*
X017160Y021310D01*
X017160Y021468D02*
X017000Y021468D01*
X016966Y021627D02*
X017194Y021627D01*
X017311Y021785D02*
X016849Y021785D01*
X017849Y021785D02*
X018911Y021785D01*
X018996Y021944D02*
X001534Y021944D01*
X001410Y021785D02*
X006690Y021785D01*
X006531Y021627D02*
X001410Y021627D01*
X001410Y021468D02*
X006443Y021468D01*
X006378Y021310D02*
X001410Y021310D01*
X001410Y021151D02*
X006370Y021151D01*
X006370Y020993D02*
X001410Y020993D01*
X001410Y020834D02*
X006426Y020834D01*
X006492Y020676D02*
X001410Y020676D01*
X001410Y020517D02*
X003961Y020517D01*
X003951Y020512D02*
X003895Y020471D01*
X003846Y020422D01*
X003806Y020367D01*
X003775Y020305D01*
X003753Y020240D01*
X003743Y020172D01*
X003743Y019880D01*
X003743Y019588D01*
X003753Y019520D01*
X003775Y019455D01*
X003806Y019393D01*
X003846Y019338D01*
X003895Y019289D01*
X003951Y019248D01*
X004012Y019217D01*
X004078Y019196D01*
X004146Y019185D01*
X004180Y019185D01*
X004180Y019880D01*
X004617Y019880D01*
X004617Y020172D01*
X004607Y020240D01*
X004585Y020305D01*
X004554Y020367D01*
X004514Y020422D01*
X004465Y020471D01*
X004409Y020512D01*
X004348Y020543D01*
X004282Y020564D01*
X004214Y020575D01*
X004180Y020575D01*
X004146Y020575D01*
X004078Y020564D01*
X004012Y020543D01*
X003951Y020512D01*
X003802Y020359D02*
X001410Y020359D01*
X001410Y020200D02*
X003747Y020200D01*
X003743Y020042D02*
X001410Y020042D01*
X001410Y019883D02*
X003743Y019883D01*
X003743Y019880D02*
X004180Y019880D01*
X004180Y019880D01*
X004180Y019880D01*
X004180Y020575D01*
X004180Y019880D01*
X004617Y019880D01*
X004617Y019588D01*
X004607Y019520D01*
X004585Y019455D01*
X004554Y019393D01*
X004514Y019338D01*
X004465Y019289D01*
X004409Y019248D01*
X004348Y019217D01*
X004282Y019196D01*
X004214Y019185D01*
X004180Y019185D01*
X004180Y019880D01*
X004180Y019880D01*
X004180Y019880D01*
X003743Y019880D01*
X003743Y019725D02*
X001410Y019725D01*
X001410Y019566D02*
X003746Y019566D01*
X003799Y019408D02*
X001410Y019408D01*
X001410Y019249D02*
X003950Y019249D01*
X004180Y019249D02*
X004180Y019249D01*
X004180Y019408D02*
X004180Y019408D01*
X004180Y019566D02*
X004180Y019566D01*
X004180Y019725D02*
X004180Y019725D01*
X004180Y019883D02*
X004180Y019883D01*
X004180Y020042D02*
X004180Y020042D01*
X004180Y020200D02*
X004180Y020200D01*
X004180Y020359D02*
X004180Y020359D01*
X004180Y020517D02*
X004180Y020517D01*
X004399Y020517D02*
X005058Y020517D01*
X005302Y020517D02*
X006058Y020517D01*
X006302Y020517D02*
X006648Y020517D01*
X006519Y020359D02*
X006841Y020359D01*
X006783Y020200D02*
X006577Y020200D01*
X006577Y020042D02*
X006783Y020042D01*
X006783Y019883D02*
X006577Y019883D01*
X006577Y019725D02*
X006783Y019725D01*
X006783Y019566D02*
X006577Y019566D01*
X006521Y019408D02*
X006839Y019408D01*
X006880Y019249D02*
X006480Y019249D01*
X006480Y019091D02*
X006880Y019091D01*
X006880Y018932D02*
X006592Y018932D01*
X006751Y018774D02*
X006880Y018774D01*
X007480Y018932D02*
X012365Y018932D01*
X012365Y018774D02*
X007501Y018774D01*
X007659Y018615D02*
X012351Y018615D01*
X012304Y018457D02*
X007818Y018457D01*
X007976Y018298D02*
X012325Y018298D01*
X012433Y018140D02*
X008135Y018140D01*
X007963Y017506D02*
X007765Y017506D01*
X007765Y017347D02*
X015640Y017347D01*
X015482Y017506D02*
X013468Y017506D01*
X013667Y017664D02*
X015323Y017664D01*
X015165Y017823D02*
X013823Y017823D01*
X013956Y017981D02*
X015006Y017981D01*
X014848Y018140D02*
X013985Y018140D01*
X013985Y018298D02*
X014689Y018298D01*
X014531Y018457D02*
X013984Y018457D01*
X013984Y018615D02*
X014372Y018615D01*
X014214Y018774D02*
X013984Y018774D01*
X013984Y018932D02*
X014055Y018932D01*
X014521Y019408D02*
X014839Y019408D01*
X014783Y019566D02*
X014577Y019566D01*
X014577Y019725D02*
X014783Y019725D01*
X014783Y019883D02*
X014577Y019883D01*
X014577Y020042D02*
X014783Y020042D01*
X014783Y020200D02*
X014577Y020200D01*
X014519Y020359D02*
X014841Y020359D01*
X014753Y020517D02*
X015058Y020517D01*
X014407Y020517D02*
X014302Y020517D01*
X014218Y020676D02*
X013981Y020676D01*
X013981Y020517D02*
X014058Y020517D01*
X014000Y020834D02*
X014160Y020834D01*
X014160Y020993D02*
X014000Y020993D01*
X014000Y021151D02*
X014160Y021151D01*
X014160Y021310D02*
X014000Y021310D01*
X014000Y021468D02*
X014160Y021468D01*
X014194Y021627D02*
X013966Y021627D01*
X013849Y021785D02*
X014311Y021785D01*
X013311Y021785D02*
X012849Y021785D01*
X012966Y021627D02*
X013194Y021627D01*
X013160Y021468D02*
X013000Y021468D01*
X013000Y021310D02*
X013160Y021310D01*
X013160Y021151D02*
X013000Y021151D01*
X013000Y020993D02*
X013160Y020993D01*
X013160Y020834D02*
X013000Y020834D01*
X012942Y020676D02*
X013218Y020676D01*
X013302Y020517D02*
X013381Y020517D01*
X013058Y020517D02*
X012965Y020517D01*
X012218Y020676D02*
X011942Y020676D01*
X011936Y020662D02*
X012000Y020816D01*
X012000Y021544D01*
X011936Y021698D01*
X011818Y021816D01*
X011664Y021880D01*
X011496Y021880D01*
X011342Y021816D01*
X011224Y021698D01*
X011160Y021544D01*
X011160Y020816D01*
X011224Y020662D01*
X011342Y020544D01*
X011496Y020480D01*
X011664Y020480D01*
X011818Y020544D01*
X011936Y020662D01*
X012000Y020834D02*
X012160Y020834D01*
X012160Y020993D02*
X012000Y020993D01*
X012000Y021151D02*
X012160Y021151D01*
X012160Y021310D02*
X012000Y021310D01*
X012000Y021468D02*
X012160Y021468D01*
X012194Y021627D02*
X011966Y021627D01*
X011849Y021785D02*
X012311Y021785D01*
X011311Y021785D02*
X010849Y021785D01*
X010818Y021816D02*
X010664Y021880D01*
X010496Y021880D01*
X010342Y021816D01*
X010224Y021698D01*
X010160Y021544D01*
X010160Y020816D01*
X010224Y020662D01*
X010342Y020544D01*
X010496Y020480D01*
X010664Y020480D01*
X010818Y020544D01*
X010936Y020662D01*
X011000Y020816D01*
X011000Y021544D01*
X010936Y021698D01*
X010818Y021816D01*
X010966Y021627D02*
X011194Y021627D01*
X011160Y021468D02*
X011000Y021468D01*
X011000Y021310D02*
X011160Y021310D01*
X011160Y021151D02*
X011000Y021151D01*
X011000Y020993D02*
X011160Y020993D01*
X011160Y020834D02*
X011000Y020834D01*
X010942Y020676D02*
X011218Y020676D01*
X011259Y020535D02*
X011101Y020535D01*
X010955Y020474D01*
X010843Y020363D01*
X010783Y020217D01*
X010783Y019543D01*
X010843Y019397D01*
X010955Y019286D01*
X011101Y019225D01*
X011259Y019225D01*
X011405Y019286D01*
X011517Y019397D01*
X011577Y019543D01*
X011577Y020217D01*
X011517Y020363D01*
X011405Y020474D01*
X011259Y020535D01*
X011302Y020517D02*
X011407Y020517D01*
X011519Y020359D02*
X011841Y020359D01*
X011783Y020200D02*
X011577Y020200D01*
X011577Y020042D02*
X011783Y020042D01*
X011783Y019883D02*
X011577Y019883D01*
X011577Y019725D02*
X011783Y019725D01*
X011783Y019566D02*
X011577Y019566D01*
X011521Y019408D02*
X011839Y019408D01*
X012043Y019249D02*
X011317Y019249D01*
X011043Y019249D02*
X010317Y019249D01*
X010259Y019225D02*
X010405Y019286D01*
X010517Y019397D01*
X010577Y019543D01*
X010577Y020217D01*
X010517Y020363D01*
X010405Y020474D01*
X010259Y020535D01*
X010101Y020535D01*
X009955Y020474D01*
X009843Y020363D01*
X009783Y020217D01*
X009783Y019543D01*
X009843Y019397D01*
X009955Y019286D01*
X010101Y019225D01*
X010259Y019225D01*
X010043Y019249D02*
X009317Y019249D01*
X009259Y019225D02*
X009405Y019286D01*
X009517Y019397D01*
X009577Y019543D01*
X009577Y020217D01*
X009517Y020363D01*
X009405Y020474D01*
X009259Y020535D01*
X009101Y020535D01*
X008955Y020474D01*
X008843Y020363D01*
X008783Y020217D01*
X008783Y019543D01*
X008843Y019397D01*
X008955Y019286D01*
X009101Y019225D01*
X009259Y019225D01*
X009043Y019249D02*
X008410Y019249D01*
X008409Y019248D02*
X008465Y019289D01*
X008514Y019338D01*
X008554Y019393D01*
X008585Y019455D01*
X008607Y019520D01*
X008617Y019588D01*
X008617Y019880D01*
X008617Y020172D01*
X008607Y020240D01*
X008585Y020305D01*
X008554Y020367D01*
X008514Y020422D01*
X008465Y020471D01*
X008409Y020512D01*
X008362Y020535D01*
X008496Y020480D01*
X008664Y020480D01*
X008818Y020544D01*
X008936Y020662D01*
X009000Y020816D01*
X009000Y021544D01*
X008936Y021698D01*
X008818Y021816D01*
X008664Y021880D01*
X008496Y021880D01*
X008342Y021816D01*
X008224Y021698D01*
X008160Y021544D01*
X008160Y020816D01*
X008224Y020662D01*
X008341Y020545D01*
X008282Y020564D01*
X008214Y020575D01*
X008180Y020575D01*
X008146Y020575D01*
X008078Y020564D01*
X008012Y020543D01*
X007951Y020512D01*
X007895Y020471D01*
X007846Y020422D01*
X007806Y020367D01*
X007775Y020305D01*
X007753Y020240D01*
X007743Y020172D01*
X007743Y019880D01*
X007743Y019588D01*
X007753Y019520D01*
X007775Y019455D01*
X007806Y019393D01*
X007846Y019338D01*
X007895Y019289D01*
X007951Y019248D01*
X008012Y019217D01*
X008078Y019196D01*
X008146Y019185D01*
X008180Y019185D01*
X008180Y019880D01*
X008180Y019880D01*
X008180Y020575D01*
X008180Y019880D01*
X008617Y019880D01*
X008180Y019880D01*
X008180Y019880D01*
X008180Y019880D01*
X007743Y019880D01*
X008180Y019880D01*
X008180Y019185D01*
X008214Y019185D01*
X008282Y019196D01*
X008348Y019217D01*
X008409Y019248D01*
X008561Y019408D02*
X008839Y019408D01*
X008783Y019566D02*
X008614Y019566D01*
X008617Y019725D02*
X008783Y019725D01*
X008783Y019883D02*
X008617Y019883D01*
X008617Y020042D02*
X008783Y020042D01*
X008783Y020200D02*
X008613Y020200D01*
X008558Y020359D02*
X008841Y020359D01*
X008753Y020517D02*
X009058Y020517D01*
X008942Y020676D02*
X009218Y020676D01*
X009224Y020662D02*
X009342Y020544D01*
X009496Y020480D01*
X009664Y020480D01*
X009818Y020544D01*
X009936Y020662D01*
X010000Y020816D01*
X010000Y021544D01*
X009936Y021698D01*
X009818Y021816D01*
X009664Y021880D01*
X009496Y021880D01*
X009342Y021816D01*
X009224Y021698D01*
X009160Y021544D01*
X009160Y020816D01*
X009224Y020662D01*
X009302Y020517D02*
X009407Y020517D01*
X009519Y020359D02*
X009841Y020359D01*
X009783Y020200D02*
X009577Y020200D01*
X009577Y020042D02*
X009783Y020042D01*
X009783Y019883D02*
X009577Y019883D01*
X009577Y019725D02*
X009783Y019725D01*
X009783Y019566D02*
X009577Y019566D01*
X009521Y019408D02*
X009839Y019408D01*
X010521Y019408D02*
X010839Y019408D01*
X010783Y019566D02*
X010577Y019566D01*
X010577Y019725D02*
X010783Y019725D01*
X010783Y019883D02*
X010577Y019883D01*
X010577Y020042D02*
X010783Y020042D01*
X010783Y020200D02*
X010577Y020200D01*
X010519Y020359D02*
X010841Y020359D01*
X010753Y020517D02*
X011058Y020517D01*
X011753Y020517D02*
X012058Y020517D01*
X010407Y020517D02*
X010302Y020517D01*
X010218Y020676D02*
X009942Y020676D01*
X010000Y020834D02*
X010160Y020834D01*
X010160Y020993D02*
X010000Y020993D01*
X010000Y021151D02*
X010160Y021151D01*
X010160Y021310D02*
X010000Y021310D01*
X010000Y021468D02*
X010160Y021468D01*
X010194Y021627D02*
X009966Y021627D01*
X009849Y021785D02*
X010311Y021785D01*
X009311Y021785D02*
X008849Y021785D01*
X008966Y021627D02*
X009194Y021627D01*
X009160Y021468D02*
X009000Y021468D01*
X009000Y021310D02*
X009160Y021310D01*
X009160Y021151D02*
X009000Y021151D01*
X009000Y020993D02*
X009160Y020993D01*
X009160Y020834D02*
X009000Y020834D01*
X008407Y020517D02*
X008399Y020517D01*
X008180Y020517D02*
X008180Y020517D01*
X008180Y020359D02*
X008180Y020359D01*
X008180Y020200D02*
X008180Y020200D01*
X008180Y020042D02*
X008180Y020042D01*
X008180Y019883D02*
X008180Y019883D01*
X008180Y019880D02*
X008180Y019880D01*
X008180Y019725D02*
X008180Y019725D01*
X008180Y019566D02*
X008180Y019566D01*
X008180Y019408D02*
X008180Y019408D01*
X008180Y019249D02*
X008180Y019249D01*
X007950Y019249D02*
X007480Y019249D01*
X007480Y019091D02*
X012365Y019091D01*
X012365Y019249D02*
X012317Y019249D01*
X014791Y018932D02*
X016395Y018932D01*
X016395Y018774D02*
X014949Y018774D01*
X015108Y018615D02*
X016395Y018615D01*
X016395Y018457D02*
X015266Y018457D01*
X015425Y018298D02*
X016395Y018298D01*
X016395Y018140D02*
X015583Y018140D01*
X015742Y017981D02*
X016395Y017981D01*
X016395Y017823D02*
X015900Y017823D01*
X016059Y017664D02*
X016395Y017664D01*
X016395Y017506D02*
X016217Y017506D01*
X016373Y017347D02*
X016394Y017347D01*
X015799Y017189D02*
X007765Y017189D01*
X007765Y017030D02*
X015890Y017030D01*
X015890Y016872D02*
X007765Y016872D01*
X007765Y016713D02*
X015890Y016713D01*
X015890Y016555D02*
X007765Y016555D01*
X007765Y016396D02*
X015903Y016396D01*
X016018Y016238D02*
X007765Y016238D01*
X007765Y016079D02*
X016161Y016079D01*
X018600Y016079D02*
X019279Y016079D01*
X019214Y016238D02*
X018600Y016238D01*
X018600Y016396D02*
X019223Y016396D01*
X019312Y016555D02*
X018600Y016555D01*
X018600Y016713D02*
X019330Y016713D01*
X019330Y016872D02*
X018600Y016872D01*
X018600Y017030D02*
X019330Y017030D01*
X019330Y017189D02*
X018600Y017189D01*
X018600Y017347D02*
X019353Y017347D01*
X019488Y017506D02*
X018600Y017506D01*
X018600Y017664D02*
X019646Y017664D01*
X019696Y017823D02*
X019586Y017823D01*
X018874Y017823D02*
X018600Y017823D01*
X018600Y017981D02*
X018795Y017981D01*
X018795Y018140D02*
X018600Y018140D01*
X018600Y018298D02*
X018795Y018298D01*
X018795Y018457D02*
X018600Y018457D01*
X018600Y018615D02*
X018830Y018615D01*
X018795Y018774D02*
X018600Y018774D01*
X018600Y018932D02*
X018795Y018932D01*
X018795Y019091D02*
X018600Y019091D01*
X018600Y019249D02*
X018795Y019249D01*
X018839Y019408D02*
X018600Y019408D01*
X018600Y019566D02*
X018783Y019566D01*
X018783Y019725D02*
X018600Y019725D01*
X018600Y019883D02*
X018783Y019883D01*
X018783Y020042D02*
X018577Y020042D01*
X018577Y020200D02*
X018783Y020200D01*
X018841Y020359D02*
X018519Y020359D01*
X018302Y020517D02*
X019007Y020517D01*
X018818Y020676D02*
X017942Y020676D01*
X017907Y020517D02*
X018058Y020517D01*
X017385Y020517D02*
X017302Y020517D01*
X018000Y020834D02*
X018760Y020834D01*
X018760Y020993D02*
X018000Y020993D01*
X018000Y021151D02*
X018760Y021151D01*
X018760Y021310D02*
X018000Y021310D01*
X018000Y021468D02*
X018760Y021468D01*
X018794Y021627D02*
X017966Y021627D01*
X019548Y021670D02*
X019812Y021670D01*
X019760Y021544D01*
X019760Y020816D01*
X019824Y020662D01*
X019942Y020544D01*
X020096Y020480D01*
X020264Y020480D01*
X020380Y020528D01*
X020380Y019964D01*
X020255Y020016D01*
X020105Y020016D01*
X019967Y019959D01*
X019861Y019853D01*
X019804Y019715D01*
X019804Y019565D01*
X019861Y019427D01*
X019920Y019368D01*
X019920Y018867D01*
X019861Y018808D01*
X019804Y018670D01*
X019804Y018571D01*
X019705Y018571D01*
X019648Y018547D01*
X019605Y018590D01*
X019665Y018650D01*
X019665Y019278D01*
X019583Y019360D01*
X019530Y019360D01*
X019530Y019429D01*
X019577Y019543D01*
X019577Y020217D01*
X019517Y020363D01*
X019405Y020474D01*
X019328Y020507D01*
X019418Y020544D01*
X019536Y020662D01*
X019600Y020816D01*
X019600Y021544D01*
X019548Y021670D01*
X019566Y021627D02*
X019794Y021627D01*
X019760Y021468D02*
X019600Y021468D01*
X019600Y021310D02*
X019760Y021310D01*
X019760Y021151D02*
X019600Y021151D01*
X019600Y020993D02*
X019760Y020993D01*
X019760Y020834D02*
X019600Y020834D01*
X019542Y020676D02*
X019818Y020676D01*
X020007Y020517D02*
X019353Y020517D01*
X019519Y020359D02*
X020380Y020359D01*
X020380Y020517D02*
X020353Y020517D01*
X020380Y020200D02*
X019577Y020200D01*
X019577Y020042D02*
X020380Y020042D01*
X019891Y019883D02*
X019577Y019883D01*
X019577Y019725D02*
X019808Y019725D01*
X019804Y019566D02*
X019577Y019566D01*
X019530Y019408D02*
X019880Y019408D01*
X019920Y019249D02*
X019665Y019249D01*
X019665Y019091D02*
X019920Y019091D01*
X019920Y018932D02*
X019665Y018932D01*
X019665Y018774D02*
X019847Y018774D01*
X019804Y018615D02*
X019630Y018615D01*
X021440Y018615D02*
X024420Y018615D01*
X024420Y018457D02*
X023850Y018457D01*
X023852Y018455D02*
X023757Y018495D01*
X021883Y018495D01*
X021788Y018455D01*
X021440Y018108D01*
X021440Y020566D01*
X021536Y020662D01*
X021600Y020816D01*
X021600Y021544D01*
X021548Y021670D01*
X021812Y021670D01*
X021760Y021544D01*
X021760Y020816D01*
X021824Y020662D01*
X021942Y020544D01*
X022096Y020480D01*
X022264Y020480D01*
X022418Y020544D01*
X022536Y020662D01*
X022600Y020816D01*
X022600Y021544D01*
X022548Y021670D01*
X022812Y021670D01*
X022760Y021544D01*
X022760Y020816D01*
X022824Y020662D01*
X022942Y020544D01*
X023096Y020480D01*
X023264Y020480D01*
X023418Y020544D01*
X023536Y020662D01*
X023600Y020816D01*
X023600Y021544D01*
X023548Y021670D01*
X023812Y021670D01*
X023760Y021544D01*
X023760Y020816D01*
X023824Y020662D01*
X023942Y020544D01*
X024096Y020480D01*
X024264Y020480D01*
X024418Y020544D01*
X024420Y020546D01*
X024420Y017888D01*
X023925Y018382D01*
X023925Y018382D01*
X023852Y018455D01*
X024010Y018298D02*
X024420Y018298D01*
X024420Y018140D02*
X024168Y018140D01*
X024327Y017981D02*
X024420Y017981D01*
X024940Y017981D02*
X025695Y017981D01*
X025695Y017942D02*
X025777Y017860D01*
X025830Y017860D01*
X025830Y015984D01*
X025793Y015947D01*
X025793Y015279D01*
X025875Y015197D01*
X026265Y015197D01*
X026238Y015190D01*
X026197Y015167D01*
X026163Y015133D01*
X026139Y015092D01*
X026127Y015046D01*
X026127Y014765D01*
X026486Y014765D01*
X026486Y014729D01*
X026127Y014729D01*
X026127Y014448D01*
X026139Y014402D01*
X026163Y014361D01*
X026197Y014327D01*
X026238Y014304D01*
X026283Y014291D01*
X026486Y014291D01*
X026486Y014728D01*
X026522Y014728D01*
X026522Y014291D01*
X026725Y014291D01*
X026770Y014304D01*
X026811Y014327D01*
X026845Y014361D01*
X026869Y014402D01*
X026871Y014411D01*
X026946Y014336D01*
X026820Y014336D01*
X026946Y014336D02*
X026946Y014260D01*
X025683Y014260D01*
X025730Y014308D01*
X025754Y014331D01*
X026011Y014331D01*
X026093Y014413D01*
X026093Y015081D01*
X026011Y015163D01*
X025501Y015163D01*
X025419Y015081D01*
X025419Y014732D01*
X025402Y014715D01*
X024940Y014715D01*
X024940Y020546D01*
X024942Y020544D01*
X025096Y020480D01*
X025264Y020480D01*
X025418Y020544D01*
X025536Y020662D01*
X025600Y020816D01*
X025600Y021544D01*
X025536Y021698D01*
X025418Y021816D01*
X025264Y021880D01*
X025096Y021880D01*
X024942Y021816D01*
X024902Y021776D01*
X024901Y021776D01*
X024900Y021777D01*
X024865Y021813D01*
X024698Y021982D01*
X037150Y022000D01*
X037150Y019974D01*
X037145Y019994D01*
X036867Y020475D01*
X036475Y020867D01*
X035994Y021145D01*
X035458Y021289D01*
X034902Y021289D01*
X034366Y021145D01*
X033885Y020867D01*
X033493Y020475D01*
X033215Y019994D01*
X033071Y019458D01*
X033071Y018902D01*
X033106Y018774D02*
X031290Y018774D01*
X031290Y018932D02*
X030902Y018932D01*
X030806Y018932D01*
X030806Y019028D02*
X030806Y019455D01*
X030574Y019455D01*
X030529Y019443D01*
X030488Y019419D01*
X030454Y019386D01*
X030452Y019383D01*
X030420Y019415D01*
X029792Y019415D01*
X029710Y019333D01*
X029710Y019304D01*
X029465Y019304D01*
X029465Y019318D01*
X029383Y019400D01*
X029330Y019400D01*
X029330Y019640D01*
X029300Y019713D01*
X029367Y019741D01*
X029479Y019853D01*
X029540Y020000D01*
X029540Y020160D01*
X029479Y020307D01*
X029367Y020419D01*
X029220Y020480D01*
X028540Y020480D01*
X028393Y020419D01*
X028281Y020307D01*
X028220Y020160D01*
X028220Y020000D01*
X028281Y019853D01*
X028393Y019741D01*
X028540Y019680D01*
X028580Y019680D01*
X028580Y019670D01*
X028626Y019560D01*
X028730Y019456D01*
X028730Y019400D01*
X028677Y019400D01*
X028595Y019318D01*
X028595Y019304D01*
X028015Y019304D01*
X028015Y019318D01*
X027933Y019400D01*
X027227Y019400D01*
X027145Y019318D01*
X027145Y019304D01*
X026565Y019304D01*
X026565Y019318D01*
X026483Y019400D01*
X025777Y019400D01*
X025695Y019319D01*
X025605Y019356D01*
X025455Y019356D01*
X025317Y019299D01*
X025211Y019193D01*
X025154Y019055D01*
X025154Y018905D01*
X025211Y018767D01*
X025317Y018661D01*
X025455Y018604D01*
X025605Y018604D01*
X025729Y018655D01*
X025755Y018630D01*
X025695Y018570D01*
X025695Y017942D01*
X025830Y017823D02*
X024940Y017823D01*
X024940Y017664D02*
X025830Y017664D01*
X025830Y017506D02*
X024940Y017506D01*
X024940Y017347D02*
X025830Y017347D01*
X025830Y017189D02*
X024940Y017189D01*
X024940Y017030D02*
X025830Y017030D01*
X025830Y016872D02*
X024940Y016872D01*
X024940Y016713D02*
X025830Y016713D01*
X025830Y016555D02*
X024940Y016555D01*
X024940Y016396D02*
X025830Y016396D01*
X025830Y016238D02*
X024940Y016238D01*
X024940Y016079D02*
X025830Y016079D01*
X025793Y015921D02*
X024940Y015921D01*
X024940Y015762D02*
X025793Y015762D01*
X025793Y015604D02*
X024940Y015604D01*
X024940Y015445D02*
X025793Y015445D01*
X025793Y015287D02*
X024940Y015287D01*
X024940Y015128D02*
X025467Y015128D01*
X025419Y014970D02*
X024940Y014970D01*
X024940Y014811D02*
X025419Y014811D01*
X026093Y014811D02*
X026127Y014811D01*
X026127Y014653D02*
X026093Y014653D01*
X026093Y014494D02*
X026127Y014494D01*
X026188Y014336D02*
X026015Y014336D01*
X026486Y014336D02*
X026522Y014336D01*
X026522Y014494D02*
X026486Y014494D01*
X026486Y014653D02*
X026522Y014653D01*
X026522Y014765D02*
X026486Y014765D01*
X026486Y015203D01*
X026390Y015203D01*
X026467Y015279D01*
X026467Y015947D01*
X026430Y015984D01*
X026430Y017860D01*
X026483Y017860D01*
X026565Y017942D01*
X026565Y018570D01*
X026505Y018630D01*
X026565Y018690D01*
X026565Y018704D01*
X027145Y018704D01*
X027145Y018690D01*
X027205Y018630D01*
X027145Y018570D01*
X027145Y017942D01*
X027227Y017860D01*
X027280Y017860D01*
X027280Y015984D01*
X027243Y015947D01*
X027243Y015279D01*
X027325Y015197D01*
X027715Y015197D01*
X027688Y015190D01*
X027647Y015167D01*
X027613Y015133D01*
X027589Y015092D01*
X027577Y015046D01*
X027577Y014765D01*
X027936Y014765D01*
X027936Y015203D01*
X027840Y015203D01*
X027917Y015279D01*
X027917Y015947D01*
X027880Y015984D01*
X027880Y017860D01*
X027933Y017860D01*
X028015Y017942D01*
X028015Y018570D01*
X027955Y018630D01*
X028015Y018690D01*
X028015Y018704D01*
X028595Y018704D01*
X028595Y018690D01*
X028655Y018630D01*
X028595Y018570D01*
X028595Y017942D01*
X028677Y017860D01*
X028730Y017860D01*
X028730Y017700D01*
X028677Y017700D01*
X028595Y017618D01*
X028595Y016990D01*
X028655Y016930D01*
X028595Y016870D01*
X028595Y016242D01*
X028677Y016160D01*
X028730Y016160D01*
X028730Y015984D01*
X028693Y015947D01*
X028693Y015279D01*
X028775Y015197D01*
X029165Y015197D01*
X029138Y015190D01*
X029097Y015167D01*
X029063Y015133D01*
X029039Y015092D01*
X029027Y015046D01*
X029027Y014765D01*
X029386Y014765D01*
X029386Y014729D01*
X029027Y014729D01*
X029027Y014448D01*
X029039Y014402D01*
X029063Y014361D01*
X029097Y014327D01*
X028993Y014413D02*
X028993Y015081D01*
X028911Y015163D01*
X028401Y015163D01*
X028321Y015083D01*
X028319Y015092D01*
X028295Y015133D01*
X028261Y015167D01*
X028220Y015190D01*
X028175Y015203D01*
X027972Y015203D01*
X027972Y014765D01*
X027936Y014765D01*
X027936Y014729D01*
X027577Y014729D01*
X027577Y014448D01*
X027589Y014402D01*
X027613Y014361D01*
X027647Y014327D01*
X027688Y014304D01*
X027733Y014291D01*
X027936Y014291D01*
X027936Y014728D01*
X027972Y014728D01*
X027972Y014291D01*
X028175Y014291D01*
X028220Y014304D01*
X028261Y014327D01*
X028295Y014361D01*
X028319Y014402D01*
X028321Y014411D01*
X028396Y014336D01*
X028270Y014336D01*
X028396Y014336D02*
X028396Y013919D01*
X028357Y013880D01*
X027358Y013880D01*
X027426Y013949D01*
X027466Y014044D01*
X027466Y014336D01*
X027638Y014336D01*
X027543Y014413D02*
X027466Y014336D01*
X027543Y014413D02*
X027543Y015081D01*
X027461Y015163D01*
X026951Y015163D01*
X026871Y015083D01*
X026869Y015092D01*
X026845Y015133D01*
X026811Y015167D01*
X026770Y015190D01*
X026725Y015203D01*
X026522Y015203D01*
X026522Y014765D01*
X026522Y014811D02*
X026486Y014811D01*
X026486Y014970D02*
X026522Y014970D01*
X026522Y015128D02*
X026486Y015128D01*
X026467Y015287D02*
X027243Y015287D01*
X027243Y015445D02*
X026467Y015445D01*
X026467Y015604D02*
X027243Y015604D01*
X027243Y015762D02*
X026467Y015762D01*
X026467Y015921D02*
X027243Y015921D01*
X027280Y016079D02*
X026430Y016079D01*
X026430Y016238D02*
X027280Y016238D01*
X027280Y016396D02*
X026430Y016396D01*
X026430Y016555D02*
X027280Y016555D01*
X027280Y016713D02*
X026430Y016713D01*
X026430Y016872D02*
X027280Y016872D01*
X027280Y017030D02*
X026430Y017030D01*
X026430Y017189D02*
X027280Y017189D01*
X027280Y017347D02*
X026430Y017347D01*
X026430Y017506D02*
X027280Y017506D01*
X027280Y017664D02*
X026430Y017664D01*
X026430Y017823D02*
X027280Y017823D01*
X027145Y017981D02*
X026565Y017981D01*
X026565Y018140D02*
X027145Y018140D01*
X027145Y018298D02*
X026565Y018298D01*
X026565Y018457D02*
X027145Y018457D01*
X027190Y018615D02*
X026520Y018615D01*
X025740Y018615D02*
X025632Y018615D01*
X025695Y018457D02*
X024940Y018457D01*
X024940Y018615D02*
X025428Y018615D01*
X025208Y018774D02*
X024940Y018774D01*
X024940Y018932D02*
X025154Y018932D01*
X025169Y019091D02*
X024940Y019091D01*
X024940Y019249D02*
X025267Y019249D01*
X024940Y019408D02*
X028730Y019408D01*
X028623Y019566D02*
X024940Y019566D01*
X024940Y019725D02*
X028433Y019725D01*
X028269Y019883D02*
X024940Y019883D01*
X024940Y020042D02*
X028220Y020042D01*
X028237Y020200D02*
X024940Y020200D01*
X024940Y020359D02*
X028333Y020359D01*
X029427Y020359D02*
X031278Y020359D01*
X031284Y020367D02*
X031244Y020311D01*
X031212Y020249D01*
X031191Y020183D01*
X031180Y020115D01*
X031180Y020080D01*
X031880Y020080D01*
X031880Y020080D01*
X031880Y020520D01*
X032175Y020520D01*
X032243Y020509D01*
X032309Y020488D01*
X032371Y020456D01*
X032427Y020416D01*
X032476Y020367D01*
X032516Y020311D01*
X032548Y020249D01*
X032569Y020183D01*
X032580Y020115D01*
X032580Y020080D01*
X031880Y020080D01*
X031880Y020080D01*
X031880Y019640D01*
X032175Y019640D01*
X032243Y019651D01*
X032309Y019672D01*
X032371Y019704D01*
X032427Y019744D01*
X032476Y019793D01*
X032516Y019849D01*
X032548Y019911D01*
X032569Y019977D01*
X032580Y020045D01*
X032580Y020080D01*
X031880Y020080D01*
X031880Y020080D01*
X031880Y020080D01*
X031880Y020520D01*
X031585Y020520D01*
X031517Y020509D01*
X031451Y020488D01*
X031389Y020456D01*
X031333Y020416D01*
X031284Y020367D01*
X031196Y020200D02*
X029523Y020200D01*
X029540Y020042D02*
X031181Y020042D01*
X031180Y020045D02*
X031191Y019977D01*
X031212Y019911D01*
X031244Y019849D01*
X031284Y019793D01*
X031333Y019744D01*
X031389Y019704D01*
X031451Y019672D01*
X031517Y019651D01*
X031585Y019640D01*
X031880Y019640D01*
X031880Y020080D01*
X031180Y020080D01*
X031180Y020045D01*
X031227Y019883D02*
X029491Y019883D01*
X029327Y019725D02*
X031361Y019725D01*
X031179Y019443D02*
X031134Y019455D01*
X030902Y019455D01*
X030902Y019028D01*
X030806Y019028D01*
X030806Y019091D02*
X030902Y019091D01*
X030902Y019028D02*
X031290Y019028D01*
X031290Y019299D01*
X031278Y019345D01*
X031254Y019386D01*
X031220Y019419D01*
X031179Y019443D01*
X031232Y019408D02*
X033071Y019408D01*
X033071Y019249D02*
X031290Y019249D01*
X031290Y019091D02*
X033071Y019091D01*
X033101Y019566D02*
X029330Y019566D01*
X029330Y019408D02*
X029784Y019408D01*
X030428Y019408D02*
X030476Y019408D01*
X030806Y019408D02*
X030902Y019408D01*
X030902Y019249D02*
X030806Y019249D01*
X030902Y019028D02*
X030902Y018932D01*
X030902Y018774D02*
X030806Y018774D01*
X030806Y018615D02*
X030902Y018615D01*
X031278Y018615D02*
X033148Y018615D01*
X033191Y018457D02*
X029465Y018457D01*
X029465Y018298D02*
X033255Y018298D01*
X033346Y018140D02*
X029465Y018140D01*
X029465Y017981D02*
X033438Y017981D01*
X033556Y017823D02*
X029330Y017823D01*
X029419Y017664D02*
X033714Y017664D01*
X033873Y017506D02*
X029465Y017506D01*
X029465Y017347D02*
X034138Y017347D01*
X034466Y017189D02*
X029465Y017189D01*
X029465Y017030D02*
X037150Y017030D01*
X037150Y016872D02*
X035647Y016872D01*
X035712Y016713D02*
X037150Y016713D01*
X037150Y016555D02*
X035712Y016555D01*
X035712Y016396D02*
X037150Y016396D01*
X037150Y016238D02*
X035712Y016238D01*
X035712Y016079D02*
X037150Y016079D01*
X037150Y015921D02*
X035712Y015921D01*
X035712Y015762D02*
X037150Y015762D01*
X037150Y015604D02*
X035712Y015604D01*
X035712Y015445D02*
X037150Y015445D01*
X037150Y015287D02*
X035646Y015287D01*
X036023Y015128D02*
X037150Y015128D01*
X037150Y014970D02*
X036297Y014970D01*
X036531Y014811D02*
X037150Y014811D01*
X037150Y014653D02*
X036689Y014653D01*
X036848Y014494D02*
X037150Y014494D01*
X037150Y014336D02*
X036948Y014336D01*
X037039Y014177D02*
X037150Y014177D01*
X037150Y014019D02*
X037131Y014019D01*
X034750Y015287D02*
X034110Y015287D01*
X034094Y015271D02*
X034176Y015353D01*
X034176Y016807D01*
X034094Y016889D01*
X033230Y016889D01*
X033148Y016807D01*
X033148Y016380D01*
X032096Y016380D01*
X031946Y016530D01*
X031614Y016530D01*
X031380Y016296D01*
X031380Y015964D01*
X031614Y015730D01*
X031946Y015730D01*
X031996Y015780D01*
X033148Y015780D01*
X033148Y015353D01*
X033230Y015271D01*
X034094Y015271D01*
X034176Y015445D02*
X034684Y015445D01*
X034684Y015604D02*
X034176Y015604D01*
X034176Y015762D02*
X034684Y015762D01*
X034684Y015921D02*
X034176Y015921D01*
X034176Y016079D02*
X034684Y016079D01*
X034684Y016238D02*
X034176Y016238D01*
X034176Y016396D02*
X034684Y016396D01*
X034684Y016555D02*
X034176Y016555D01*
X034176Y016713D02*
X034684Y016713D01*
X034748Y016872D02*
X034112Y016872D01*
X033213Y016872D02*
X029464Y016872D01*
X029465Y016713D02*
X033148Y016713D01*
X033148Y016555D02*
X029465Y016555D01*
X029465Y016396D02*
X031480Y016396D01*
X031380Y016238D02*
X029461Y016238D01*
X029330Y016079D02*
X031380Y016079D01*
X031424Y015921D02*
X029367Y015921D01*
X029367Y015762D02*
X031582Y015762D01*
X031978Y015762D02*
X033148Y015762D01*
X033148Y015604D02*
X029367Y015604D01*
X029367Y015445D02*
X033148Y015445D01*
X033214Y015287D02*
X029367Y015287D01*
X029422Y015203D02*
X029422Y014765D01*
X029781Y014765D01*
X029781Y015046D01*
X029769Y015092D01*
X029745Y015133D01*
X029711Y015167D01*
X029670Y015190D01*
X029625Y015203D01*
X029422Y015203D01*
X029422Y015128D02*
X029386Y015128D01*
X029386Y014970D02*
X029422Y014970D01*
X029422Y014811D02*
X029386Y014811D01*
X029386Y014653D02*
X029422Y014653D01*
X029422Y014494D02*
X029386Y014494D01*
X029386Y014336D02*
X029422Y014336D01*
X029720Y014336D02*
X033412Y014336D01*
X033321Y014177D02*
X028916Y014177D01*
X028916Y014019D02*
X033229Y014019D01*
X033179Y013860D02*
X028916Y013860D01*
X028892Y013702D02*
X033137Y013702D01*
X033094Y013543D02*
X028756Y013543D01*
X028740Y013377D02*
X028740Y012785D01*
X029410Y012785D01*
X029410Y013221D01*
X029398Y013267D01*
X029374Y013308D01*
X029341Y013341D01*
X029300Y013365D01*
X029254Y013377D01*
X028740Y013377D01*
X028740Y013226D02*
X028580Y013226D01*
X028580Y013068D02*
X028740Y013068D01*
X028740Y012909D02*
X028580Y012909D01*
X028580Y012785D02*
X028740Y012785D01*
X028740Y012625D01*
X029410Y012625D01*
X029410Y012189D01*
X029398Y012143D01*
X029374Y012102D01*
X029341Y012069D01*
X029300Y012045D01*
X029254Y012033D01*
X028740Y012033D01*
X028740Y012625D01*
X028580Y012625D01*
X028580Y012033D01*
X028065Y012033D01*
X028019Y012045D01*
X027978Y012069D01*
X027945Y012102D01*
X027921Y012143D01*
X027909Y012189D01*
X027909Y012625D01*
X028580Y012625D01*
X028580Y012785D01*
X028580Y012751D02*
X026811Y012751D01*
X026811Y012909D02*
X027909Y012909D01*
X027909Y013068D02*
X026811Y013068D01*
X026811Y013226D02*
X027910Y013226D01*
X028576Y013385D02*
X033071Y013385D01*
X033071Y013226D02*
X029409Y013226D01*
X029410Y013068D02*
X033071Y013068D01*
X033071Y012909D02*
X029410Y012909D01*
X028740Y012751D02*
X033112Y012751D01*
X033155Y012592D02*
X029410Y012592D01*
X029410Y012434D02*
X030137Y012434D01*
X030115Y012428D02*
X030074Y012404D01*
X030041Y012370D01*
X030017Y012329D01*
X030005Y012284D01*
X030005Y012052D01*
X030432Y012052D01*
X030432Y011956D01*
X030005Y011956D01*
X030005Y011724D01*
X030017Y011679D01*
X030041Y011638D01*
X030074Y011604D01*
X030077Y011602D01*
X030045Y011570D01*
X030045Y010942D01*
X030127Y010860D01*
X030180Y010860D01*
X030180Y010500D01*
X030127Y010500D01*
X030045Y010418D01*
X030045Y010340D01*
X029622Y010340D01*
X029649Y010367D01*
X029706Y010505D01*
X029706Y010655D01*
X029649Y010793D01*
X029543Y010899D01*
X029405Y010956D01*
X029255Y010956D01*
X029213Y010939D01*
X029215Y010946D01*
X029215Y011080D01*
X029215Y011214D01*
X029203Y011259D01*
X029179Y011301D01*
X029146Y011334D01*
X029104Y011358D01*
X029059Y011370D01*
X028806Y011370D01*
X028769Y011380D01*
X028310Y011380D01*
X028310Y011370D01*
X028310Y011370D01*
X028310Y011380D01*
X027851Y011380D01*
X027806Y011368D01*
X027764Y011344D01*
X027731Y011311D01*
X027707Y011269D01*
X027695Y011224D01*
X027695Y011080D01*
X028310Y011080D01*
X028630Y011080D01*
X029215Y011080D01*
X028630Y011080D01*
X028630Y011080D01*
X028630Y011080D01*
X028310Y011080D01*
X028310Y011080D01*
X028310Y011080D01*
X027695Y011080D01*
X027695Y010936D01*
X027707Y010891D01*
X027731Y010849D01*
X027764Y010816D01*
X027783Y010806D01*
X027735Y010758D01*
X027735Y010402D01*
X027807Y010330D01*
X027735Y010258D01*
X027735Y009902D01*
X027807Y009830D01*
X027735Y009758D01*
X027735Y009402D01*
X027817Y009320D01*
X028050Y009320D01*
X028050Y009298D01*
X028090Y009203D01*
X028369Y008924D01*
X028369Y008840D01*
X028426Y008702D01*
X028532Y008596D01*
X028670Y008539D01*
X028820Y008539D01*
X028958Y008596D01*
X029064Y008702D01*
X029121Y008840D01*
X029121Y008990D01*
X029064Y009128D01*
X028958Y009234D01*
X028820Y009291D01*
X028736Y009291D01*
X028708Y009320D01*
X029192Y009320D01*
X029210Y009302D01*
X029210Y007943D01*
X029250Y007848D01*
X029820Y007278D01*
X029893Y007205D01*
X029988Y007165D01*
X030045Y007165D01*
X030045Y007142D01*
X030127Y007060D01*
X030833Y007060D01*
X030915Y007142D01*
X030915Y007770D01*
X030855Y007830D01*
X030915Y007890D01*
X030915Y008518D01*
X030833Y008600D01*
X030780Y008600D01*
X030780Y008960D01*
X030833Y008960D01*
X030915Y009042D01*
X030915Y009670D01*
X030855Y009730D01*
X030915Y009790D01*
X030915Y010418D01*
X030833Y010500D01*
X030780Y010500D01*
X030780Y010860D01*
X030833Y010860D01*
X030915Y010942D01*
X030915Y011570D01*
X030883Y011602D01*
X030886Y011604D01*
X030919Y011638D01*
X030943Y011679D01*
X030955Y011724D01*
X030955Y011956D01*
X030528Y011956D01*
X030528Y012052D01*
X030955Y012052D01*
X030955Y012284D01*
X030943Y012329D01*
X030919Y012370D01*
X030886Y012404D01*
X030845Y012428D01*
X030799Y012440D01*
X030528Y012440D01*
X030528Y012052D01*
X030432Y012052D01*
X030432Y012440D01*
X030161Y012440D01*
X030115Y012428D01*
X030005Y012275D02*
X029410Y012275D01*
X029383Y012117D02*
X030005Y012117D01*
X030005Y011800D02*
X025927Y011800D01*
X025941Y011641D02*
X030039Y011641D01*
X030045Y011483D02*
X025895Y011483D01*
X025829Y011958D02*
X030432Y011958D01*
X030528Y011958D02*
X031340Y011958D01*
X031340Y011948D02*
X031598Y011690D01*
X031780Y011690D01*
X031962Y011690D01*
X032220Y011948D01*
X032220Y012130D01*
X032220Y012312D01*
X031962Y012570D01*
X031780Y012570D01*
X031780Y012130D01*
X031780Y012130D01*
X032220Y012130D01*
X031780Y012130D01*
X031780Y012130D01*
X031780Y012130D01*
X031340Y012130D01*
X031340Y012312D01*
X031598Y012570D01*
X031780Y012570D01*
X031780Y012130D01*
X031780Y011690D01*
X031780Y012130D01*
X031780Y012130D01*
X031340Y012130D01*
X031340Y011948D01*
X031340Y012117D02*
X030955Y012117D01*
X030955Y012275D02*
X031340Y012275D01*
X031461Y012434D02*
X030823Y012434D01*
X030528Y012434D02*
X030432Y012434D01*
X030432Y012275D02*
X030528Y012275D01*
X030528Y012117D02*
X030432Y012117D01*
X030955Y011800D02*
X031488Y011800D01*
X031780Y011800D02*
X031780Y011800D01*
X031780Y011958D02*
X031780Y011958D01*
X031780Y012117D02*
X031780Y012117D01*
X031780Y012275D02*
X031780Y012275D01*
X031780Y012434D02*
X031780Y012434D01*
X032099Y012434D02*
X033197Y012434D01*
X033268Y012275D02*
X032220Y012275D01*
X032220Y012117D02*
X033359Y012117D01*
X033451Y011958D02*
X032220Y011958D01*
X032072Y011800D02*
X033579Y011800D01*
X033737Y011641D02*
X030921Y011641D01*
X030915Y011483D02*
X033903Y011483D01*
X034178Y011324D02*
X030915Y011324D01*
X030915Y011166D02*
X034552Y011166D01*
X035808Y011166D02*
X037150Y011166D01*
X037150Y011324D02*
X036182Y011324D01*
X036457Y011483D02*
X037150Y011483D01*
X037150Y011641D02*
X036623Y011641D01*
X036781Y011800D02*
X037150Y011800D01*
X037150Y011958D02*
X036909Y011958D01*
X037001Y012117D02*
X037150Y012117D01*
X037150Y012275D02*
X037092Y012275D01*
X037150Y011007D02*
X030915Y011007D01*
X030780Y010849D02*
X037150Y010849D01*
X037150Y010690D02*
X030780Y010690D01*
X030780Y010532D02*
X037150Y010532D01*
X037150Y010373D02*
X030915Y010373D01*
X030915Y010215D02*
X037150Y010215D01*
X037150Y010056D02*
X030915Y010056D01*
X030915Y009898D02*
X037150Y009898D01*
X037150Y009739D02*
X030864Y009739D01*
X030915Y009581D02*
X037150Y009581D01*
X037150Y009422D02*
X030915Y009422D01*
X030915Y009264D02*
X034655Y009264D01*
X035100Y009264D02*
X035260Y009264D01*
X035260Y009105D02*
X035100Y009105D01*
X035100Y008947D02*
X035260Y008947D01*
X035260Y008788D02*
X035100Y008788D01*
X035100Y008630D02*
X035260Y008630D01*
X035260Y008471D02*
X035100Y008471D01*
X035100Y008313D02*
X035260Y008313D01*
X035260Y008154D02*
X035100Y008154D01*
X035100Y007996D02*
X035260Y007996D01*
X035260Y007837D02*
X035100Y007837D01*
X035100Y007679D02*
X035260Y007679D01*
X035260Y007520D02*
X035100Y007520D01*
X035100Y007362D02*
X035260Y007362D01*
X035100Y007203D02*
X030915Y007203D01*
X030915Y007362D02*
X033039Y007362D01*
X033059Y007520D02*
X030915Y007520D01*
X030915Y007679D02*
X033090Y007679D01*
X033134Y007837D02*
X030862Y007837D01*
X030915Y007996D02*
X033192Y007996D01*
X033265Y008154D02*
X030915Y008154D01*
X030915Y008313D02*
X033354Y008313D01*
X033462Y008471D02*
X030915Y008471D01*
X030780Y008630D02*
X033593Y008630D01*
X033755Y008788D02*
X030780Y008788D01*
X030780Y008947D02*
X033956Y008947D01*
X034226Y009105D02*
X030915Y009105D01*
X030180Y008960D02*
X030180Y008600D01*
X030127Y008600D01*
X030045Y008518D01*
X030045Y007890D01*
X030105Y007830D01*
X030054Y007779D01*
X029730Y008103D01*
X029730Y009462D01*
X029690Y009557D01*
X029617Y009630D01*
X029447Y009800D01*
X029400Y009820D01*
X030045Y009820D01*
X030045Y009790D01*
X030105Y009730D01*
X030045Y009670D01*
X030045Y009042D01*
X030127Y008960D01*
X030180Y008960D01*
X030180Y008947D02*
X029730Y008947D01*
X029730Y009105D02*
X030045Y009105D01*
X030045Y009264D02*
X029730Y009264D01*
X029730Y009422D02*
X030045Y009422D01*
X030045Y009581D02*
X029667Y009581D01*
X029509Y009739D02*
X030096Y009739D01*
X029210Y009264D02*
X028887Y009264D01*
X029074Y009105D02*
X029210Y009105D01*
X029210Y008947D02*
X029121Y008947D01*
X029100Y008788D02*
X029210Y008788D01*
X029210Y008630D02*
X028992Y008630D01*
X029210Y008471D02*
X028090Y008471D01*
X028090Y008599D02*
X028078Y008645D01*
X028054Y008686D01*
X028020Y008719D01*
X027979Y008743D01*
X027934Y008755D01*
X027702Y008755D01*
X027702Y008328D01*
X028090Y008328D01*
X028090Y008599D01*
X028082Y008630D02*
X028498Y008630D01*
X028390Y008788D02*
X027155Y008788D01*
X027155Y008947D02*
X028346Y008947D01*
X028187Y009105D02*
X027155Y009105D01*
X027155Y009264D02*
X028064Y009264D01*
X027735Y009422D02*
X027155Y009422D01*
X027118Y009581D02*
X027735Y009581D01*
X027735Y009739D02*
X026964Y009739D01*
X026821Y009898D02*
X027739Y009898D01*
X027735Y010056D02*
X026825Y010056D01*
X026825Y010215D02*
X027735Y010215D01*
X027764Y010373D02*
X026796Y010373D01*
X026825Y010532D02*
X027735Y010532D01*
X027735Y010690D02*
X026825Y010690D01*
X026772Y010849D02*
X027732Y010849D01*
X027695Y011007D02*
X026825Y011007D01*
X026825Y011166D02*
X027695Y011166D01*
X027744Y011324D02*
X026759Y011324D01*
X026773Y012117D02*
X027936Y012117D01*
X027909Y012275D02*
X026811Y012275D01*
X026811Y012434D02*
X027909Y012434D01*
X027909Y012592D02*
X026811Y012592D01*
X025428Y012117D02*
X025352Y012117D01*
X025301Y011958D02*
X025157Y011958D01*
X025203Y011800D02*
X025005Y011800D01*
X025000Y011641D02*
X025189Y011641D01*
X025244Y011483D02*
X025000Y011483D01*
X025000Y011324D02*
X025334Y011324D01*
X025385Y011166D02*
X025000Y011166D01*
X025000Y011007D02*
X025385Y011007D01*
X024160Y011007D02*
X023349Y011007D01*
X023371Y011166D02*
X024160Y011166D01*
X024160Y011324D02*
X023324Y011324D01*
X023139Y011483D02*
X024160Y011483D01*
X024160Y010849D02*
X023241Y010849D01*
X023211Y010532D02*
X024160Y010532D01*
X024160Y010690D02*
X021244Y010690D01*
X021130Y010849D02*
X021520Y010849D01*
X021520Y011007D02*
X021130Y011007D01*
X021130Y011166D02*
X021520Y011166D01*
X021520Y011324D02*
X021130Y011324D01*
X021052Y011483D02*
X021553Y011483D01*
X021395Y011641D02*
X020884Y011641D01*
X020530Y011007D02*
X020223Y011007D01*
X020233Y010849D02*
X020530Y010849D01*
X020530Y010690D02*
X020233Y010690D01*
X020233Y010532D02*
X020567Y010532D01*
X020713Y010373D02*
X020233Y010373D01*
X020233Y010215D02*
X020871Y010215D01*
X021030Y010056D02*
X020233Y010056D01*
X020233Y009898D02*
X021554Y009898D01*
X020865Y009581D02*
X020233Y009581D01*
X020233Y009739D02*
X024160Y009739D01*
X024160Y009898D02*
X023160Y009898D01*
X023315Y010056D02*
X024160Y010056D01*
X024160Y010215D02*
X023356Y010215D01*
X023328Y010373D02*
X024160Y010373D01*
X025000Y009591D02*
X025090Y009554D01*
X025240Y009554D01*
X025378Y009611D01*
X025385Y009618D01*
X025385Y009412D01*
X025467Y009330D01*
X025747Y009330D01*
X025757Y009320D01*
X026635Y009320D01*
X026635Y008715D01*
X026592Y008715D01*
X026510Y008633D01*
X026510Y008620D01*
X025444Y008620D01*
X025000Y009064D01*
X025000Y009591D01*
X025000Y009581D02*
X025026Y009581D01*
X025000Y009422D02*
X025385Y009422D01*
X025385Y009581D02*
X025304Y009581D01*
X025000Y009264D02*
X026635Y009264D01*
X026635Y009105D02*
X025000Y009105D01*
X025118Y008947D02*
X026635Y008947D01*
X026635Y008788D02*
X025276Y008788D01*
X025435Y008630D02*
X026510Y008630D01*
X027606Y008630D02*
X027702Y008630D01*
X027702Y008471D02*
X027606Y008471D01*
X027702Y008313D02*
X029210Y008313D01*
X029210Y008154D02*
X028090Y008154D01*
X028278Y007996D02*
X029210Y007996D01*
X029260Y007837D02*
X028489Y007837D01*
X028647Y007679D02*
X029419Y007679D01*
X029577Y007520D02*
X028806Y007520D01*
X028964Y007362D02*
X029736Y007362D01*
X029897Y007203D02*
X029123Y007203D01*
X029281Y007045D02*
X033036Y007045D01*
X033031Y007096D02*
X033045Y006927D01*
X033071Y006761D01*
X033111Y006596D01*
X033163Y006436D01*
X033227Y006280D01*
X033304Y006129D01*
X033392Y005985D01*
X033491Y005849D01*
X033601Y005720D01*
X033720Y005601D01*
X033849Y005491D01*
X033985Y005392D01*
X034129Y005304D01*
X034280Y005227D01*
X034436Y005163D01*
X034596Y005111D01*
X034761Y005071D01*
X034927Y005045D01*
X035096Y005031D01*
X035100Y005031D01*
X035100Y007100D01*
X033031Y007100D01*
X033031Y007096D01*
X033051Y006886D02*
X029440Y006886D01*
X028795Y006569D02*
X028459Y006569D01*
X028617Y006411D02*
X028954Y006411D01*
X029112Y006252D02*
X028776Y006252D01*
X028934Y006094D02*
X030651Y006094D01*
X030010Y005935D02*
X029093Y005935D01*
X029251Y005777D02*
X030010Y005777D01*
X030010Y005618D02*
X029410Y005618D01*
X029568Y005460D02*
X030010Y005460D01*
X030010Y005301D02*
X029727Y005301D01*
X029885Y005143D02*
X030146Y005143D01*
X030154Y004984D02*
X030044Y004984D01*
X030202Y004826D02*
X030267Y004826D01*
X030361Y004667D02*
X032220Y004667D01*
X032117Y004509D02*
X032043Y004509D01*
X032043Y004350D02*
X032117Y004350D01*
X032117Y004192D02*
X032043Y004192D01*
X032043Y004033D02*
X032117Y004033D01*
X032870Y004033D02*
X032880Y004033D01*
X032880Y003875D02*
X024247Y003875D01*
X024125Y003753D02*
X024593Y004220D01*
X025258Y004220D01*
X025317Y004161D01*
X025455Y004104D01*
X025605Y004104D01*
X025743Y004161D01*
X025849Y004267D01*
X025906Y004405D01*
X025906Y004555D01*
X025849Y004693D01*
X025743Y004799D01*
X025605Y004856D01*
X025455Y004856D01*
X025317Y004799D01*
X025258Y004740D01*
X024433Y004740D01*
X024338Y004700D01*
X023797Y004160D01*
X022703Y004160D01*
X022608Y004120D01*
X022108Y003620D01*
X022035Y003547D01*
X021995Y003452D01*
X021995Y002880D01*
X021931Y002853D01*
X021807Y002729D01*
X021740Y002568D01*
X021740Y001792D01*
X021807Y001631D01*
X021931Y001507D01*
X022092Y001440D01*
X022268Y001440D01*
X022429Y001507D01*
X022553Y001631D01*
X022620Y001792D01*
X022620Y002568D01*
X022553Y002729D01*
X022515Y002767D01*
X022515Y003292D01*
X022863Y003640D01*
X023957Y003640D01*
X024052Y003680D01*
X024125Y003753D01*
X024089Y003716D02*
X032792Y003716D01*
X032633Y003558D02*
X022780Y003558D01*
X022622Y003399D02*
X023231Y003399D01*
X023260Y003427D02*
X022960Y003127D01*
X022920Y003032D01*
X022920Y002842D01*
X022807Y002729D01*
X022740Y002568D01*
X022740Y001792D01*
X022807Y001631D01*
X022931Y001507D01*
X023092Y001440D01*
X023268Y001440D01*
X023429Y001507D01*
X023553Y001631D01*
X023620Y001792D01*
X023620Y002568D01*
X023553Y002729D01*
X023440Y002842D01*
X023440Y002872D01*
X023588Y003020D01*
X026672Y003020D01*
X026870Y002822D01*
X026870Y002578D01*
X026910Y002483D01*
X027060Y002333D01*
X027133Y002260D01*
X027228Y002220D01*
X029241Y002220D01*
X029257Y002181D01*
X029381Y002057D01*
X029542Y001990D01*
X029718Y001990D01*
X029879Y002057D01*
X030003Y002181D01*
X030070Y002342D01*
X030070Y003118D01*
X030003Y003279D01*
X029879Y003403D01*
X029718Y003470D01*
X029542Y003470D01*
X029381Y003403D01*
X029257Y003279D01*
X029190Y003118D01*
X029190Y002740D01*
X027390Y002740D01*
X027390Y002982D01*
X027350Y003077D01*
X027277Y003150D01*
X026927Y003500D01*
X026832Y003540D01*
X023428Y003540D01*
X023333Y003500D01*
X023260Y003427D01*
X023073Y003241D02*
X022515Y003241D01*
X022515Y003082D02*
X022941Y003082D01*
X022920Y002924D02*
X022515Y002924D01*
X022517Y002765D02*
X022843Y002765D01*
X022756Y002607D02*
X022604Y002607D01*
X022620Y002448D02*
X022740Y002448D01*
X022740Y002290D02*
X022620Y002290D01*
X022620Y002131D02*
X022740Y002131D01*
X022740Y001973D02*
X022620Y001973D01*
X022620Y001814D02*
X022740Y001814D01*
X022797Y001656D02*
X022563Y001656D01*
X022405Y001497D02*
X022955Y001497D01*
X023405Y001497D02*
X023955Y001497D01*
X023931Y001507D02*
X024092Y001440D01*
X024268Y001440D01*
X024429Y001507D01*
X024553Y001631D01*
X024620Y001792D01*
X024620Y002568D01*
X024553Y002729D01*
X024429Y002853D01*
X024268Y002920D01*
X024092Y002920D01*
X023931Y002853D01*
X023807Y002729D01*
X023740Y002568D01*
X023740Y001792D01*
X023807Y001631D01*
X023931Y001507D01*
X023797Y001656D02*
X023563Y001656D01*
X023620Y001814D02*
X023740Y001814D01*
X023740Y001973D02*
X023620Y001973D01*
X023620Y002131D02*
X023740Y002131D01*
X023740Y002290D02*
X023620Y002290D01*
X023620Y002448D02*
X023740Y002448D01*
X023756Y002607D02*
X023604Y002607D01*
X023517Y002765D02*
X023843Y002765D01*
X023491Y002924D02*
X026769Y002924D01*
X026870Y002765D02*
X026517Y002765D01*
X026553Y002729D02*
X026429Y002853D01*
X026268Y002920D01*
X026092Y002920D01*
X025931Y002853D01*
X025807Y002729D01*
X025740Y002568D01*
X025740Y001792D01*
X025807Y001631D01*
X025931Y001507D01*
X026092Y001440D01*
X026268Y001440D01*
X026429Y001507D01*
X026553Y001631D01*
X026620Y001792D01*
X026620Y002568D01*
X026553Y002729D01*
X026604Y002607D02*
X026870Y002607D01*
X026944Y002448D02*
X026620Y002448D01*
X026620Y002290D02*
X027103Y002290D01*
X026620Y002131D02*
X029307Y002131D01*
X029953Y002131D02*
X030254Y002131D01*
X030264Y002117D02*
X030317Y002064D01*
X030378Y002019D01*
X030446Y001985D01*
X030518Y001962D01*
X030592Y001950D01*
X030610Y001950D01*
X030610Y002710D01*
X030650Y002710D01*
X030650Y002750D01*
X031110Y002750D01*
X031110Y003068D01*
X031098Y003142D01*
X031075Y003214D01*
X031041Y003282D01*
X030996Y003343D01*
X030943Y003396D01*
X030882Y003441D01*
X030814Y003475D01*
X030742Y003498D01*
X030668Y003510D01*
X030650Y003510D01*
X030650Y002750D01*
X030610Y002750D01*
X030610Y003510D01*
X030592Y003510D01*
X030518Y003498D01*
X030446Y003475D01*
X030378Y003441D01*
X030317Y003396D01*
X030264Y003343D01*
X030219Y003282D01*
X030185Y003214D01*
X030162Y003142D01*
X030150Y003068D01*
X030150Y002750D01*
X030610Y002750D01*
X030610Y002710D01*
X030150Y002710D01*
X030150Y002392D01*
X030162Y002318D01*
X030185Y002246D01*
X030219Y002178D01*
X030264Y002117D01*
X030171Y002290D02*
X030048Y002290D01*
X030070Y002448D02*
X030150Y002448D01*
X030150Y002607D02*
X030070Y002607D01*
X030070Y002765D02*
X030150Y002765D01*
X030150Y002924D02*
X030070Y002924D01*
X030070Y003082D02*
X030152Y003082D01*
X030199Y003241D02*
X030019Y003241D01*
X029883Y003399D02*
X030321Y003399D01*
X030610Y003399D02*
X030650Y003399D01*
X030650Y003241D02*
X030610Y003241D01*
X030610Y003082D02*
X030650Y003082D01*
X030650Y002924D02*
X030610Y002924D01*
X030610Y002765D02*
X030650Y002765D01*
X030650Y002710D02*
X031110Y002710D01*
X031110Y002392D01*
X031098Y002318D01*
X031075Y002246D01*
X031041Y002178D01*
X030996Y002117D01*
X030943Y002064D01*
X030882Y002019D01*
X030814Y001985D01*
X030742Y001962D01*
X030668Y001950D01*
X030650Y001950D01*
X030650Y002710D01*
X030650Y002607D02*
X030610Y002607D01*
X030610Y002448D02*
X030650Y002448D01*
X030650Y002290D02*
X030610Y002290D01*
X030610Y002131D02*
X030650Y002131D01*
X030650Y001973D02*
X030610Y001973D01*
X030485Y001973D02*
X026620Y001973D01*
X026620Y001814D02*
X037150Y001814D01*
X037150Y001656D02*
X026563Y001656D01*
X026405Y001497D02*
X037150Y001497D01*
X037150Y001973D02*
X034775Y001973D01*
X034742Y001962D02*
X034814Y001985D01*
X034882Y002019D01*
X034943Y002064D01*
X034996Y002117D01*
X035041Y002178D01*
X035075Y002246D01*
X035098Y002318D01*
X035110Y002392D01*
X035110Y002710D01*
X034650Y002710D01*
X034650Y002750D01*
X035110Y002750D01*
X035110Y003068D01*
X035098Y003142D01*
X035075Y003214D01*
X035041Y003282D01*
X034996Y003343D01*
X034943Y003396D01*
X034882Y003441D01*
X034814Y003475D01*
X034742Y003498D01*
X034668Y003510D01*
X034650Y003510D01*
X034650Y002750D01*
X034610Y002750D01*
X034610Y003510D01*
X034592Y003510D01*
X034518Y003498D01*
X034446Y003475D01*
X034378Y003441D01*
X034317Y003396D01*
X034264Y003343D01*
X034219Y003282D01*
X034185Y003214D01*
X034162Y003142D01*
X034150Y003068D01*
X034150Y002750D01*
X034610Y002750D01*
X034610Y002710D01*
X034650Y002710D01*
X034650Y001950D01*
X034668Y001950D01*
X034742Y001962D01*
X034650Y001973D02*
X034610Y001973D01*
X034610Y001950D02*
X034610Y002710D01*
X034150Y002710D01*
X034150Y002392D01*
X034162Y002318D01*
X034185Y002246D01*
X034219Y002178D01*
X034264Y002117D01*
X034317Y002064D01*
X034378Y002019D01*
X034446Y001985D01*
X034518Y001962D01*
X034592Y001950D01*
X034610Y001950D01*
X034485Y001973D02*
X031775Y001973D01*
X031742Y001962D02*
X031814Y001985D01*
X031882Y002019D01*
X031943Y002064D01*
X031996Y002117D01*
X032041Y002178D01*
X032075Y002246D01*
X032098Y002318D01*
X032110Y002392D01*
X032110Y002710D01*
X031650Y002710D01*
X031650Y002750D01*
X032110Y002750D01*
X032110Y003068D01*
X032098Y003142D01*
X032075Y003214D01*
X032041Y003282D01*
X031996Y003343D01*
X031943Y003396D01*
X031882Y003441D01*
X031814Y003475D01*
X031742Y003498D01*
X031668Y003510D01*
X031650Y003510D01*
X031650Y002750D01*
X031610Y002750D01*
X031610Y003510D01*
X031592Y003510D01*
X031518Y003498D01*
X031446Y003475D01*
X031378Y003441D01*
X031317Y003396D01*
X031264Y003343D01*
X031219Y003282D01*
X031185Y003214D01*
X031162Y003142D01*
X031150Y003068D01*
X031150Y002750D01*
X031610Y002750D01*
X031610Y002710D01*
X031650Y002710D01*
X031650Y001950D01*
X031668Y001950D01*
X031742Y001962D01*
X031650Y001973D02*
X031610Y001973D01*
X031610Y001950D02*
X031610Y002710D01*
X031150Y002710D01*
X031150Y002392D01*
X031162Y002318D01*
X031185Y002246D01*
X031219Y002178D01*
X031264Y002117D01*
X031317Y002064D01*
X031378Y002019D01*
X031446Y001985D01*
X031518Y001962D01*
X031592Y001950D01*
X031610Y001950D01*
X031485Y001973D02*
X030775Y001973D01*
X031006Y002131D02*
X031254Y002131D01*
X031171Y002290D02*
X031089Y002290D01*
X031110Y002448D02*
X031150Y002448D01*
X031150Y002607D02*
X031110Y002607D01*
X031110Y002765D02*
X031150Y002765D01*
X031150Y002924D02*
X031110Y002924D01*
X031108Y003082D02*
X031152Y003082D01*
X031199Y003241D02*
X031061Y003241D01*
X030939Y003399D02*
X031321Y003399D01*
X031610Y003399D02*
X031650Y003399D01*
X031650Y003241D02*
X031610Y003241D01*
X031610Y003082D02*
X031650Y003082D01*
X031650Y002924D02*
X031610Y002924D01*
X031610Y002765D02*
X031650Y002765D01*
X031650Y002607D02*
X031610Y002607D01*
X031610Y002448D02*
X031650Y002448D01*
X031650Y002290D02*
X031610Y002290D01*
X031610Y002131D02*
X031650Y002131D01*
X032006Y002131D02*
X032307Y002131D01*
X032212Y002290D02*
X032089Y002290D01*
X032110Y002448D02*
X032190Y002448D01*
X032190Y002607D02*
X032110Y002607D01*
X032110Y002765D02*
X032190Y002765D01*
X032190Y002924D02*
X032110Y002924D01*
X032108Y003082D02*
X032190Y003082D01*
X032241Y003241D02*
X032061Y003241D01*
X031939Y003399D02*
X032377Y003399D01*
X033070Y003082D02*
X033190Y003082D01*
X033190Y003118D02*
X033257Y003279D01*
X033381Y003403D01*
X033542Y003470D01*
X033718Y003470D01*
X033879Y003403D01*
X034003Y003279D01*
X034070Y003118D01*
X034070Y002342D01*
X034003Y002181D01*
X033879Y002057D01*
X033718Y001990D01*
X033542Y001990D01*
X033381Y002057D01*
X033257Y002181D01*
X033190Y002342D01*
X033190Y003118D01*
X033165Y003241D02*
X033241Y003241D01*
X033323Y003399D02*
X033377Y003399D01*
X033454Y003558D02*
X037150Y003558D01*
X037150Y003716D02*
X033480Y003716D01*
X033480Y003875D02*
X037150Y003875D01*
X037150Y004033D02*
X033480Y004033D01*
X033480Y004192D02*
X037150Y004192D01*
X037150Y004350D02*
X033480Y004350D01*
X033480Y004509D02*
X037150Y004509D01*
X037150Y004667D02*
X033480Y004667D01*
X033480Y004826D02*
X037150Y004826D01*
X037150Y004984D02*
X033480Y004984D01*
X033480Y005143D02*
X034498Y005143D01*
X034135Y005301D02*
X033480Y005301D01*
X033480Y005460D02*
X033893Y005460D01*
X033704Y005618D02*
X033390Y005618D01*
X033350Y005777D02*
X033553Y005777D01*
X033429Y005935D02*
X033350Y005935D01*
X033326Y006094D02*
X031494Y006094D01*
X031447Y006252D02*
X033242Y006252D01*
X033173Y006411D02*
X031295Y006411D01*
X031137Y006569D02*
X033119Y006569D01*
X033079Y006728D02*
X030978Y006728D01*
X031550Y005935D02*
X031810Y005935D01*
X032535Y005143D02*
X032880Y005143D01*
X032880Y004984D02*
X032694Y004984D01*
X032740Y004826D02*
X032880Y004826D01*
X032880Y004667D02*
X032740Y004667D01*
X032870Y004509D02*
X032880Y004509D01*
X032870Y004350D02*
X032880Y004350D01*
X032870Y004192D02*
X032880Y004192D01*
X033883Y003399D02*
X034321Y003399D01*
X034199Y003241D02*
X034019Y003241D01*
X034070Y003082D02*
X034152Y003082D01*
X034150Y002924D02*
X034070Y002924D01*
X034070Y002765D02*
X034150Y002765D01*
X034150Y002607D02*
X034070Y002607D01*
X034070Y002448D02*
X034150Y002448D01*
X034171Y002290D02*
X034048Y002290D01*
X033953Y002131D02*
X034254Y002131D01*
X034610Y002131D02*
X034650Y002131D01*
X034650Y002290D02*
X034610Y002290D01*
X034610Y002448D02*
X034650Y002448D01*
X034650Y002607D02*
X034610Y002607D01*
X034610Y002765D02*
X034650Y002765D01*
X034650Y002924D02*
X034610Y002924D01*
X034610Y003082D02*
X034650Y003082D01*
X034650Y003241D02*
X034610Y003241D01*
X034610Y003399D02*
X034650Y003399D01*
X034939Y003399D02*
X037150Y003399D01*
X037150Y003241D02*
X035061Y003241D01*
X035108Y003082D02*
X037150Y003082D01*
X037150Y002924D02*
X035110Y002924D01*
X035110Y002765D02*
X037150Y002765D01*
X037150Y002607D02*
X035110Y002607D01*
X035110Y002448D02*
X037150Y002448D01*
X037150Y002290D02*
X035089Y002290D01*
X035006Y002131D02*
X037150Y002131D01*
X033307Y002131D02*
X032953Y002131D01*
X033048Y002290D02*
X033212Y002290D01*
X033190Y002448D02*
X033070Y002448D01*
X033070Y002607D02*
X033190Y002607D01*
X033190Y002765D02*
X033070Y002765D01*
X033070Y002924D02*
X033190Y002924D01*
X030297Y004033D02*
X024406Y004033D01*
X024564Y004192D02*
X025286Y004192D01*
X025774Y004192D02*
X030101Y004192D01*
X029942Y004350D02*
X025883Y004350D01*
X025906Y004509D02*
X029784Y004509D01*
X029625Y004667D02*
X025860Y004667D01*
X025679Y004826D02*
X029467Y004826D01*
X029308Y004984D02*
X025491Y004984D01*
X025381Y004826D02*
X024247Y004826D01*
X024304Y004667D02*
X024089Y004667D01*
X024146Y004509D02*
X023930Y004509D01*
X023987Y004350D02*
X017500Y004350D01*
X017500Y004192D02*
X023829Y004192D01*
X022520Y004033D02*
X017500Y004033D01*
X017470Y003875D02*
X022362Y003875D01*
X022203Y003716D02*
X017360Y003716D01*
X017201Y003558D02*
X022045Y003558D01*
X021995Y003399D02*
X017043Y003399D01*
X016600Y003241D02*
X021995Y003241D01*
X021995Y003082D02*
X016600Y003082D01*
X016600Y002924D02*
X016993Y002924D01*
X017160Y002924D02*
X017200Y002924D01*
X017200Y002960D02*
X017200Y002200D01*
X017660Y002200D01*
X017660Y002518D01*
X017648Y002592D01*
X017625Y002664D01*
X017591Y002732D01*
X017546Y002793D01*
X017493Y002846D01*
X017432Y002891D01*
X017364Y002925D01*
X017292Y002948D01*
X017218Y002960D01*
X017200Y002960D01*
X017367Y002924D02*
X017993Y002924D01*
X018160Y002924D02*
X018200Y002924D01*
X018200Y002960D02*
X018200Y002200D01*
X018660Y002200D01*
X018660Y002518D01*
X018648Y002592D01*
X018625Y002664D01*
X018591Y002732D01*
X018546Y002793D01*
X018493Y002846D01*
X018432Y002891D01*
X018364Y002925D01*
X018292Y002948D01*
X018218Y002960D01*
X018200Y002960D01*
X018367Y002924D02*
X021995Y002924D01*
X021843Y002765D02*
X021517Y002765D01*
X021553Y002729D02*
X021429Y002853D01*
X021268Y002920D01*
X021092Y002920D01*
X020931Y002853D01*
X020807Y002729D01*
X020740Y002568D01*
X020740Y001792D01*
X020807Y001631D01*
X020931Y001507D01*
X021092Y001440D01*
X021268Y001440D01*
X021429Y001507D01*
X021553Y001631D01*
X021620Y001792D01*
X021620Y002568D01*
X021553Y002729D01*
X021604Y002607D02*
X021756Y002607D01*
X021740Y002448D02*
X021620Y002448D01*
X021620Y002290D02*
X021740Y002290D01*
X021740Y002131D02*
X021620Y002131D01*
X021620Y001973D02*
X021740Y001973D01*
X021740Y001814D02*
X021620Y001814D01*
X021563Y001656D02*
X021797Y001656D01*
X021955Y001497D02*
X021405Y001497D01*
X020955Y001497D02*
X019405Y001497D01*
X019429Y001507D02*
X019268Y001440D01*
X019092Y001440D01*
X018931Y001507D01*
X018807Y001631D01*
X018740Y001792D01*
X018740Y002568D01*
X018807Y002729D01*
X018931Y002853D01*
X019092Y002920D01*
X019268Y002920D01*
X019429Y002853D01*
X019553Y002729D01*
X019620Y002568D01*
X019620Y001792D01*
X019553Y001631D01*
X019429Y001507D01*
X019563Y001656D02*
X020797Y001656D01*
X020740Y001814D02*
X019620Y001814D01*
X019620Y001973D02*
X020740Y001973D01*
X020740Y002131D02*
X019620Y002131D01*
X019620Y002290D02*
X020740Y002290D01*
X020740Y002448D02*
X019620Y002448D01*
X019604Y002607D02*
X020756Y002607D01*
X020843Y002765D02*
X019517Y002765D01*
X018843Y002765D02*
X018566Y002765D01*
X018644Y002607D02*
X018756Y002607D01*
X018740Y002448D02*
X018660Y002448D01*
X018660Y002290D02*
X018740Y002290D01*
X018740Y002131D02*
X018660Y002131D01*
X018660Y001973D02*
X018740Y001973D01*
X018740Y001814D02*
X018656Y001814D01*
X018604Y001656D02*
X018797Y001656D01*
X018955Y001497D02*
X018469Y001497D01*
X017891Y001497D02*
X017469Y001497D01*
X017604Y001656D02*
X017756Y001656D01*
X017704Y001814D02*
X017656Y001814D01*
X017660Y001973D02*
X017700Y001973D01*
X017700Y002131D02*
X017660Y002131D01*
X017660Y002290D02*
X017700Y002290D01*
X017700Y002448D02*
X017660Y002448D01*
X017644Y002607D02*
X017716Y002607D01*
X017794Y002765D02*
X017566Y002765D01*
X017200Y002765D02*
X017160Y002765D01*
X017160Y002607D02*
X017200Y002607D01*
X017200Y002448D02*
X017160Y002448D01*
X017160Y002290D02*
X017200Y002290D01*
X016700Y002290D02*
X016620Y002290D01*
X016620Y002448D02*
X016700Y002448D01*
X016716Y002607D02*
X016604Y002607D01*
X016600Y002765D02*
X016794Y002765D01*
X016700Y002131D02*
X016620Y002131D01*
X016620Y001973D02*
X016700Y001973D01*
X016704Y001814D02*
X016620Y001814D01*
X016563Y001656D02*
X016756Y001656D01*
X016891Y001497D02*
X016405Y001497D01*
X015955Y001497D02*
X015405Y001497D01*
X015429Y001507D02*
X015553Y001631D01*
X015620Y001792D01*
X015620Y002568D01*
X015553Y002729D01*
X015429Y002853D01*
X015268Y002920D01*
X015092Y002920D01*
X014931Y002853D01*
X014807Y002729D01*
X014740Y002568D01*
X014740Y001792D01*
X014807Y001631D01*
X014931Y001507D01*
X015092Y001440D01*
X015268Y001440D01*
X015429Y001507D01*
X015563Y001656D02*
X015797Y001656D01*
X015740Y001814D02*
X015620Y001814D01*
X015620Y001973D02*
X015740Y001973D01*
X015740Y002131D02*
X015620Y002131D01*
X015620Y002290D02*
X015740Y002290D01*
X015740Y002448D02*
X015620Y002448D01*
X015604Y002607D02*
X015756Y002607D01*
X015760Y002765D02*
X015517Y002765D01*
X015760Y002924D02*
X012635Y002924D01*
X012635Y002765D02*
X013843Y002765D01*
X013756Y002607D02*
X012761Y002607D01*
X012920Y002448D02*
X013740Y002448D01*
X014517Y002765D02*
X014843Y002765D01*
X014756Y002607D02*
X014604Y002607D01*
X014620Y002448D02*
X014740Y002448D01*
X014740Y002290D02*
X014620Y002290D01*
X014620Y002131D02*
X014740Y002131D01*
X014740Y001973D02*
X014620Y001973D01*
X014620Y001814D02*
X014740Y001814D01*
X014797Y001656D02*
X014563Y001656D01*
X014405Y001497D02*
X014955Y001497D01*
X013955Y001497D02*
X011744Y001497D01*
X011838Y001656D02*
X013797Y001656D01*
X013740Y001814D02*
X011860Y001814D01*
X011860Y001973D02*
X012660Y001973D01*
X012501Y002131D02*
X011860Y002131D01*
X011860Y002290D02*
X012343Y002290D01*
X012184Y002448D02*
X011860Y002448D01*
X011809Y002607D02*
X012115Y002607D01*
X012115Y002765D02*
X011673Y002765D01*
X012009Y002924D02*
X007001Y002924D01*
X007240Y002765D02*
X009332Y002765D01*
X009209Y002607D02*
X007380Y002607D01*
X007446Y002448D02*
X009162Y002448D01*
X009160Y002290D02*
X007490Y002290D01*
X007490Y002131D02*
X009160Y002131D01*
X009160Y001973D02*
X007471Y001973D01*
X007405Y001814D02*
X009160Y001814D01*
X009181Y001656D02*
X007301Y001656D01*
X007142Y001497D02*
X009264Y001497D01*
X010016Y001497D02*
X011096Y001497D01*
X011002Y001656D02*
X010099Y001656D01*
X010120Y001814D02*
X010980Y001814D01*
X010980Y001973D02*
X010120Y001973D01*
X010120Y002116D02*
X009660Y002116D01*
X009660Y002876D01*
X009678Y002876D01*
X009752Y002864D01*
X009824Y002841D01*
X009892Y002806D01*
X009953Y002762D01*
X010006Y002708D01*
X010051Y002647D01*
X010085Y002580D01*
X010108Y002508D01*
X010120Y002433D01*
X010120Y002116D01*
X010120Y002131D02*
X010980Y002131D01*
X010980Y002290D02*
X010120Y002290D01*
X010118Y002448D02*
X010980Y002448D01*
X011031Y002607D02*
X010071Y002607D01*
X009948Y002765D02*
X011167Y002765D01*
X012269Y003399D02*
X014267Y003399D01*
X014109Y003558D02*
X013231Y003558D01*
X013799Y003716D02*
X013950Y003716D01*
X013503Y004192D02*
X013265Y004192D01*
X013265Y004350D02*
X013460Y004350D01*
X013460Y004509D02*
X013265Y004509D01*
X013265Y004667D02*
X013460Y004667D01*
X013460Y004826D02*
X013265Y004826D01*
X013249Y004984D02*
X013460Y004984D01*
X013460Y005143D02*
X011819Y005143D01*
X011860Y004984D02*
X012411Y004984D01*
X011697Y005301D02*
X013460Y005301D01*
X013460Y005460D02*
X006665Y005460D01*
X006665Y005301D02*
X009307Y005301D01*
X009327Y005322D02*
X009274Y005268D01*
X009229Y005207D01*
X009195Y005140D01*
X009172Y005068D01*
X009160Y004993D01*
X009160Y004676D01*
X009620Y004676D01*
X009620Y005436D01*
X009602Y005436D01*
X009528Y005424D01*
X009456Y005401D01*
X009388Y005366D01*
X009327Y005322D01*
X009196Y005143D02*
X006665Y005143D01*
X006665Y004984D02*
X009160Y004984D01*
X009160Y004826D02*
X006599Y004826D01*
X006477Y004667D02*
X009620Y004667D01*
X009620Y004676D02*
X009620Y004636D01*
X009160Y004636D01*
X009160Y004318D01*
X009172Y004243D01*
X009195Y004171D01*
X009229Y004104D01*
X009274Y004043D01*
X009327Y003990D01*
X009388Y003945D01*
X009456Y003911D01*
X009528Y003887D01*
X009602Y003876D01*
X009620Y003876D01*
X009620Y004636D01*
X009660Y004636D01*
X009660Y004676D01*
X009620Y004676D01*
X009660Y004676D02*
X009660Y005436D01*
X009678Y005436D01*
X009752Y005424D01*
X009824Y005401D01*
X009892Y005366D01*
X009953Y005322D01*
X010006Y005268D01*
X010051Y005207D01*
X010085Y005140D01*
X010108Y005068D01*
X010120Y004993D01*
X010120Y004676D01*
X009660Y004676D01*
X009660Y004667D02*
X010980Y004667D01*
X010980Y004509D02*
X010120Y004509D01*
X010120Y004636D02*
X009660Y004636D01*
X009660Y003876D01*
X009678Y003876D01*
X009752Y003887D01*
X009824Y003911D01*
X009892Y003945D01*
X009953Y003990D01*
X010006Y004043D01*
X010051Y004104D01*
X010085Y004171D01*
X010108Y004243D01*
X010120Y004318D01*
X010120Y004636D01*
X010120Y004826D02*
X010980Y004826D01*
X010980Y004984D02*
X010120Y004984D01*
X010084Y005143D02*
X011021Y005143D01*
X011143Y005301D02*
X009973Y005301D01*
X009660Y005301D02*
X009620Y005301D01*
X009620Y005143D02*
X009660Y005143D01*
X009660Y004984D02*
X009620Y004984D01*
X009620Y004826D02*
X009660Y004826D01*
X009660Y004509D02*
X009620Y004509D01*
X009620Y004350D02*
X009660Y004350D01*
X009660Y004192D02*
X009620Y004192D01*
X009620Y004033D02*
X009660Y004033D01*
X009996Y004033D02*
X011120Y004033D01*
X011012Y004192D02*
X010091Y004192D01*
X010120Y004350D02*
X010980Y004350D01*
X011720Y004033D02*
X012395Y004033D01*
X012395Y003875D02*
X007460Y003875D01*
X007460Y003870D02*
X007460Y004092D01*
X007082Y004092D01*
X007082Y004168D01*
X007460Y004168D01*
X007460Y004390D01*
X007447Y004436D01*
X007424Y004477D01*
X007390Y004510D01*
X007349Y004534D01*
X007303Y004546D01*
X007081Y004546D01*
X007081Y004168D01*
X007005Y004168D01*
X007005Y004092D01*
X006627Y004092D01*
X006627Y003870D01*
X006639Y003824D01*
X006663Y003783D01*
X006697Y003750D01*
X006738Y003726D01*
X006783Y003714D01*
X007005Y003714D01*
X007005Y004092D01*
X007081Y004092D01*
X007081Y003714D01*
X007303Y003714D01*
X007349Y003726D01*
X007390Y003750D01*
X007424Y003783D01*
X007447Y003824D01*
X007460Y003870D01*
X007460Y004033D02*
X009284Y004033D01*
X009189Y004192D02*
X007460Y004192D01*
X007460Y004350D02*
X009160Y004350D01*
X009160Y004509D02*
X007392Y004509D01*
X007081Y004509D02*
X007005Y004509D01*
X007005Y004546D02*
X006783Y004546D01*
X006738Y004534D01*
X006697Y004510D01*
X006663Y004477D01*
X006639Y004436D01*
X006627Y004390D01*
X006627Y004168D01*
X007005Y004168D01*
X007005Y004546D01*
X007005Y004350D02*
X007081Y004350D01*
X007081Y004192D02*
X007005Y004192D01*
X007005Y004033D02*
X007081Y004033D01*
X007081Y003875D02*
X007005Y003875D01*
X007005Y003716D02*
X007081Y003716D01*
X007312Y003716D02*
X012395Y003716D01*
X012429Y003558D02*
X004732Y003558D01*
X004732Y003716D02*
X006775Y003716D01*
X006627Y003875D02*
X006593Y003875D01*
X006593Y004033D02*
X006627Y004033D01*
X006627Y004192D02*
X006593Y004192D01*
X006593Y004350D02*
X006627Y004350D01*
X006695Y004509D02*
X006477Y004509D01*
X005957Y004509D02*
X004872Y004509D01*
X004872Y004667D02*
X005957Y004667D01*
X005861Y004826D02*
X004872Y004826D01*
X004872Y004984D02*
X005795Y004984D01*
X005795Y005143D02*
X004810Y005143D01*
X004628Y005301D02*
X005795Y005301D01*
X005795Y005460D02*
X001410Y005460D01*
X001410Y005618D02*
X005817Y005618D01*
X005795Y005777D02*
X001410Y005777D01*
X001410Y005935D02*
X005795Y005935D01*
X005795Y006094D02*
X001410Y006094D01*
X001410Y006252D02*
X005795Y006252D01*
X005970Y006411D02*
X001410Y006411D01*
X001410Y006569D02*
X005970Y006569D01*
X005970Y006728D02*
X001410Y006728D01*
X001410Y006886D02*
X005970Y006886D01*
X005970Y007045D02*
X001410Y007045D01*
X001410Y007203D02*
X005970Y007203D01*
X006009Y007362D02*
X001410Y007362D01*
X001410Y007520D02*
X006167Y007520D01*
X006326Y007679D02*
X001410Y007679D01*
X001410Y007837D02*
X006484Y007837D01*
X006643Y007996D02*
X001410Y007996D01*
X001410Y008154D02*
X006801Y008154D01*
X006960Y008313D02*
X001410Y008313D01*
X001410Y008471D02*
X006945Y008471D01*
X006787Y008630D02*
X001410Y008630D01*
X001410Y008788D02*
X006628Y008788D01*
X006472Y008947D02*
X001410Y008947D01*
X001410Y009105D02*
X006410Y009105D01*
X006410Y009264D02*
X001410Y009264D01*
X001410Y009422D02*
X006410Y009422D01*
X006410Y009581D02*
X001410Y009581D01*
X001410Y009739D02*
X006410Y009739D01*
X006410Y009898D02*
X001410Y009898D01*
X001410Y010056D02*
X006410Y010056D01*
X006410Y010215D02*
X001410Y010215D01*
X001410Y010373D02*
X006410Y010373D01*
X006410Y010532D02*
X001410Y010532D01*
X001410Y010690D02*
X006410Y010690D01*
X006410Y010849D02*
X001410Y010849D01*
X001410Y011007D02*
X006410Y011007D01*
X006410Y011166D02*
X001410Y011166D01*
X001410Y011324D02*
X006410Y011324D01*
X006410Y011483D02*
X001410Y011483D01*
X001410Y011641D02*
X006410Y011641D01*
X006410Y011800D02*
X001410Y011800D01*
X001410Y011958D02*
X006410Y011958D01*
X006410Y012117D02*
X001410Y012117D01*
X001410Y012275D02*
X006410Y012275D01*
X006410Y012434D02*
X001410Y012434D01*
X001410Y012592D02*
X006410Y012592D01*
X006410Y012751D02*
X001410Y012751D01*
X001410Y012909D02*
X006410Y012909D01*
X006410Y013068D02*
X001410Y013068D01*
X001410Y013226D02*
X006410Y013226D01*
X006410Y013385D02*
X001410Y013385D01*
X001410Y013543D02*
X006410Y013543D01*
X006410Y013702D02*
X001410Y013702D01*
X001410Y013860D02*
X006410Y013860D01*
X006410Y014019D02*
X001410Y014019D01*
X001410Y014177D02*
X006410Y014177D01*
X006410Y014336D02*
X001410Y014336D01*
X001410Y014494D02*
X006410Y014494D01*
X006410Y014653D02*
X001410Y014653D01*
X001410Y014811D02*
X006410Y014811D01*
X006410Y014970D02*
X001410Y014970D01*
X001410Y015128D02*
X006410Y015128D01*
X006410Y015287D02*
X001410Y015287D01*
X001410Y015445D02*
X006410Y015445D01*
X006410Y015604D02*
X001410Y015604D01*
X001410Y015762D02*
X006410Y015762D01*
X006410Y015921D02*
X001410Y015921D01*
X001410Y016079D02*
X006410Y016079D01*
X006410Y016238D02*
X001410Y016238D01*
X001410Y016396D02*
X006410Y016396D01*
X006410Y016555D02*
X001410Y016555D01*
X001410Y016713D02*
X006410Y016713D01*
X006395Y016872D02*
X001410Y016872D01*
X001410Y017030D02*
X006236Y017030D01*
X006078Y017189D02*
X001410Y017189D01*
X001410Y017347D02*
X005919Y017347D01*
X005761Y017506D02*
X001410Y017506D01*
X001410Y017664D02*
X005602Y017664D01*
X005444Y017823D02*
X001410Y017823D01*
X001410Y017981D02*
X005285Y017981D01*
X005127Y018140D02*
X001410Y018140D01*
X001410Y018298D02*
X004968Y018298D01*
X004818Y018457D02*
X001410Y018457D01*
X001410Y018615D02*
X004760Y018615D01*
X004760Y018774D02*
X001410Y018774D01*
X001410Y018932D02*
X004760Y018932D01*
X004760Y019091D02*
X001410Y019091D01*
X004410Y019249D02*
X004760Y019249D01*
X004760Y019408D02*
X004561Y019408D01*
X004614Y019566D02*
X004760Y019566D01*
X004760Y019725D02*
X004617Y019725D01*
X004617Y019883D02*
X004760Y019883D01*
X004783Y020042D02*
X004617Y020042D01*
X004613Y020200D02*
X004783Y020200D01*
X004841Y020359D02*
X004558Y020359D01*
X005519Y020359D02*
X005841Y020359D01*
X005783Y020200D02*
X005577Y020200D01*
X005577Y020042D02*
X005783Y020042D01*
X005783Y019883D02*
X005600Y019883D01*
X005600Y019725D02*
X005783Y019725D01*
X005783Y019566D02*
X005600Y019566D01*
X005600Y019408D02*
X005839Y019408D01*
X005880Y019249D02*
X005600Y019249D01*
X005600Y019091D02*
X005880Y019091D01*
X005880Y018932D02*
X005600Y018932D01*
X005680Y018774D02*
X005916Y018774D01*
X005839Y018615D02*
X006061Y018615D01*
X005997Y018457D02*
X006219Y018457D01*
X006156Y018298D02*
X006378Y018298D01*
X006314Y018140D02*
X006536Y018140D01*
X006473Y017981D02*
X006695Y017981D01*
X006631Y017823D02*
X006853Y017823D01*
X006790Y017664D02*
X007012Y017664D01*
X006948Y017506D02*
X007165Y017506D01*
X007165Y017347D02*
X007107Y017347D01*
X007521Y019408D02*
X007799Y019408D01*
X007746Y019566D02*
X007577Y019566D01*
X007577Y019725D02*
X007743Y019725D01*
X007743Y019883D02*
X007577Y019883D01*
X007577Y020042D02*
X007743Y020042D01*
X007747Y020200D02*
X007577Y020200D01*
X007519Y020359D02*
X007802Y020359D01*
X007712Y020517D02*
X007961Y020517D01*
X007868Y020676D02*
X008218Y020676D01*
X008160Y020834D02*
X007934Y020834D01*
X007990Y020993D02*
X008160Y020993D01*
X008160Y021151D02*
X007990Y021151D01*
X007982Y021310D02*
X008160Y021310D01*
X008160Y021468D02*
X007917Y021468D01*
X007829Y021627D02*
X008194Y021627D01*
X008311Y021785D02*
X007670Y021785D01*
X009753Y020517D02*
X010058Y020517D01*
X018600Y015921D02*
X021765Y015921D01*
X021765Y016079D02*
X019901Y016079D01*
X019966Y016238D02*
X021765Y016238D01*
X021765Y016396D02*
X021531Y016396D01*
X021669Y016555D02*
X021765Y016555D01*
X021726Y016713D02*
X021825Y016713D01*
X021914Y016872D02*
X021994Y016872D01*
X022103Y017030D02*
X022186Y017030D01*
X022291Y017189D02*
X022379Y017189D01*
X022445Y017347D02*
X022572Y017347D01*
X022630Y017506D02*
X022470Y017506D01*
X022045Y017823D02*
X021890Y017823D01*
X021950Y017664D02*
X021771Y017664D01*
X021724Y017506D02*
X021860Y017506D01*
X021672Y017347D02*
X021538Y017347D01*
X021483Y017189D02*
X020626Y017189D01*
X020583Y017030D02*
X021108Y017030D01*
X020986Y016872D02*
X020474Y016872D01*
X019986Y016872D02*
X019850Y016872D01*
X019850Y017030D02*
X019877Y017030D01*
X019850Y016713D02*
X020954Y016713D01*
X020991Y016555D02*
X019868Y016555D01*
X019957Y016396D02*
X021129Y016396D01*
X021765Y015762D02*
X018600Y015762D01*
X018600Y015604D02*
X021765Y015604D01*
X021765Y015445D02*
X018600Y015445D01*
X018600Y015287D02*
X021765Y015287D01*
X021765Y015128D02*
X018600Y015128D01*
X018619Y014970D02*
X021765Y014970D01*
X021765Y014811D02*
X018778Y014811D01*
X018936Y014653D02*
X021765Y014653D01*
X021765Y014494D02*
X019095Y014494D01*
X022605Y014494D02*
X022630Y014494D01*
X022630Y014520D02*
X022630Y013840D01*
X022691Y013693D01*
X022796Y013588D01*
X022796Y013275D01*
X022742Y013275D01*
X022660Y013193D01*
X022660Y012487D01*
X022742Y012405D01*
X023370Y012405D01*
X023402Y012437D01*
X023404Y012434D01*
X023438Y012401D01*
X023479Y012377D01*
X023524Y012365D01*
X023756Y012365D01*
X023756Y012792D01*
X023852Y012792D01*
X023852Y012365D01*
X024084Y012365D01*
X024129Y012377D01*
X024170Y012401D01*
X024204Y012434D01*
X024228Y012475D01*
X024240Y012521D01*
X024240Y012792D01*
X023852Y012792D01*
X023852Y012888D01*
X023756Y012888D01*
X023756Y013315D01*
X023524Y013315D01*
X023479Y013303D01*
X023438Y013279D01*
X023404Y013246D01*
X023402Y013243D01*
X023370Y013275D01*
X023316Y013275D01*
X023316Y013640D01*
X023369Y013693D01*
X023430Y013840D01*
X023430Y014520D01*
X023369Y014667D01*
X023257Y014779D01*
X023110Y014840D01*
X022950Y014840D01*
X022803Y014779D01*
X022691Y014667D01*
X022630Y014520D01*
X022605Y014653D02*
X022685Y014653D01*
X022605Y014811D02*
X022880Y014811D01*
X023180Y014811D02*
X023570Y014811D01*
X023570Y014653D02*
X023375Y014653D01*
X023430Y014494D02*
X023570Y014494D01*
X023570Y014336D02*
X023430Y014336D01*
X023430Y014177D02*
X023570Y014177D01*
X023597Y014019D02*
X023430Y014019D01*
X023430Y013860D02*
X023737Y013860D01*
X023896Y013702D02*
X023372Y013702D01*
X023316Y013543D02*
X024054Y013543D01*
X024084Y013315D02*
X023852Y013315D01*
X023852Y012888D01*
X024240Y012888D01*
X024240Y013159D01*
X024228Y013205D01*
X024204Y013246D01*
X024170Y013279D01*
X024129Y013303D01*
X024084Y013315D01*
X024215Y013226D02*
X025385Y013226D01*
X025191Y013068D02*
X024240Y013068D01*
X024240Y012909D02*
X024996Y012909D01*
X024801Y012751D02*
X024240Y012751D01*
X024240Y012592D02*
X024606Y012592D01*
X024411Y012434D02*
X024203Y012434D01*
X023852Y012434D02*
X023756Y012434D01*
X023756Y012592D02*
X023852Y012592D01*
X023852Y012751D02*
X023756Y012751D01*
X023756Y012909D02*
X023852Y012909D01*
X023852Y013068D02*
X023756Y013068D01*
X023756Y013226D02*
X023852Y013226D01*
X024234Y013385D02*
X023316Y013385D01*
X022796Y013385D02*
X022605Y013385D01*
X022605Y013543D02*
X022796Y013543D01*
X022688Y013702D02*
X022605Y013702D01*
X022605Y013860D02*
X022630Y013860D01*
X022630Y014019D02*
X022605Y014019D01*
X022605Y014177D02*
X022630Y014177D01*
X022630Y014336D02*
X022605Y014336D01*
X022605Y014970D02*
X023570Y014970D01*
X023570Y015128D02*
X022605Y015128D01*
X022605Y015287D02*
X023570Y015287D01*
X023570Y015445D02*
X022605Y015445D01*
X022605Y015604D02*
X023570Y015604D01*
X023570Y015762D02*
X022605Y015762D01*
X022605Y015921D02*
X023570Y015921D01*
X023570Y016079D02*
X022605Y016079D01*
X022605Y016238D02*
X023570Y016238D01*
X023570Y016396D02*
X022738Y016396D01*
X023193Y016555D02*
X023570Y016555D01*
X023570Y016713D02*
X023377Y016713D01*
X023430Y016872D02*
X023570Y016872D01*
X023570Y017030D02*
X023430Y017030D01*
X023453Y017189D02*
X023570Y017189D01*
X023570Y017347D02*
X023430Y017347D01*
X023430Y017506D02*
X023507Y017506D01*
X024940Y018140D02*
X025695Y018140D01*
X025695Y018298D02*
X024940Y018298D01*
X024420Y018774D02*
X021440Y018774D01*
X021440Y018932D02*
X024420Y018932D01*
X024420Y019091D02*
X021440Y019091D01*
X021440Y019249D02*
X024420Y019249D01*
X024420Y019408D02*
X021440Y019408D01*
X021440Y019566D02*
X024420Y019566D01*
X024420Y019725D02*
X021440Y019725D01*
X021440Y019883D02*
X024420Y019883D01*
X024420Y020042D02*
X021440Y020042D01*
X021440Y020200D02*
X024420Y020200D01*
X024420Y020359D02*
X021440Y020359D01*
X021440Y020517D02*
X022007Y020517D01*
X021818Y020676D02*
X021542Y020676D01*
X021600Y020834D02*
X021760Y020834D01*
X021760Y020993D02*
X021600Y020993D01*
X021600Y021151D02*
X021760Y021151D01*
X021760Y021310D02*
X021600Y021310D01*
X021600Y021468D02*
X021760Y021468D01*
X021794Y021627D02*
X021566Y021627D01*
X022566Y021627D02*
X022794Y021627D01*
X022760Y021468D02*
X022600Y021468D01*
X022600Y021310D02*
X022760Y021310D01*
X022760Y021151D02*
X022600Y021151D01*
X022600Y020993D02*
X022760Y020993D01*
X022760Y020834D02*
X022600Y020834D01*
X022542Y020676D02*
X022818Y020676D01*
X023007Y020517D02*
X022353Y020517D01*
X023353Y020517D02*
X024007Y020517D01*
X023818Y020676D02*
X023542Y020676D01*
X023600Y020834D02*
X023760Y020834D01*
X023760Y020993D02*
X023600Y020993D01*
X023600Y021151D02*
X023760Y021151D01*
X023760Y021310D02*
X023600Y021310D01*
X023600Y021468D02*
X023760Y021468D01*
X023794Y021627D02*
X023566Y021627D01*
X024736Y021944D02*
X037150Y021944D01*
X037150Y021785D02*
X032841Y021785D01*
X032746Y021880D02*
X032414Y021880D01*
X032180Y021646D01*
X032180Y021314D01*
X032414Y021080D01*
X032746Y021080D01*
X032980Y021314D01*
X032980Y021646D01*
X032746Y021880D01*
X032980Y021627D02*
X037150Y021627D01*
X037150Y021468D02*
X032980Y021468D01*
X032975Y021310D02*
X037150Y021310D01*
X037150Y021151D02*
X035971Y021151D01*
X036258Y020993D02*
X037150Y020993D01*
X037150Y020834D02*
X036508Y020834D01*
X036666Y020676D02*
X037150Y020676D01*
X037150Y020517D02*
X036825Y020517D01*
X036934Y020359D02*
X037150Y020359D01*
X037150Y020200D02*
X037026Y020200D01*
X037117Y020042D02*
X037150Y020042D01*
X034389Y021151D02*
X032817Y021151D01*
X032343Y021151D02*
X028817Y021151D01*
X028746Y021080D02*
X028980Y021314D01*
X028980Y021646D01*
X028746Y021880D01*
X028414Y021880D01*
X028180Y021646D01*
X028180Y021314D01*
X028414Y021080D01*
X028746Y021080D01*
X028975Y021310D02*
X032185Y021310D01*
X032180Y021468D02*
X028980Y021468D01*
X028980Y021627D02*
X032180Y021627D01*
X032319Y021785D02*
X028841Y021785D01*
X028319Y021785D02*
X026449Y021785D01*
X026418Y021816D02*
X026264Y021880D01*
X026096Y021880D01*
X025942Y021816D01*
X025824Y021698D01*
X025760Y021544D01*
X025760Y020816D01*
X025824Y020662D01*
X025942Y020544D01*
X026096Y020480D01*
X026264Y020480D01*
X026418Y020544D01*
X026536Y020662D01*
X026600Y020816D01*
X026600Y021544D01*
X026536Y021698D01*
X026418Y021816D01*
X026566Y021627D02*
X028180Y021627D01*
X028180Y021468D02*
X026600Y021468D01*
X026600Y021310D02*
X028185Y021310D01*
X028343Y021151D02*
X026600Y021151D01*
X026600Y020993D02*
X034102Y020993D01*
X033852Y020834D02*
X026600Y020834D01*
X026542Y020676D02*
X033694Y020676D01*
X033535Y020517D02*
X032193Y020517D01*
X031880Y020517D02*
X031880Y020517D01*
X031880Y020359D02*
X031880Y020359D01*
X031880Y020200D02*
X031880Y020200D01*
X031880Y020042D02*
X031880Y020042D01*
X031880Y019883D02*
X031880Y019883D01*
X031880Y019725D02*
X031880Y019725D01*
X032399Y019725D02*
X033143Y019725D01*
X033185Y019883D02*
X032533Y019883D01*
X032579Y020042D02*
X033243Y020042D01*
X033334Y020200D02*
X032564Y020200D01*
X032482Y020359D02*
X033426Y020359D01*
X031567Y020517D02*
X026353Y020517D01*
X026007Y020517D02*
X025353Y020517D01*
X025542Y020676D02*
X025818Y020676D01*
X025760Y020834D02*
X025600Y020834D01*
X025600Y020993D02*
X025760Y020993D01*
X025760Y021151D02*
X025600Y021151D01*
X025600Y021310D02*
X025760Y021310D01*
X025760Y021468D02*
X025600Y021468D01*
X025566Y021627D02*
X025794Y021627D01*
X025911Y021785D02*
X025449Y021785D01*
X024911Y021785D02*
X024893Y021785D01*
X024940Y020517D02*
X025007Y020517D01*
X024420Y020517D02*
X024353Y020517D01*
X021790Y018457D02*
X021440Y018457D01*
X021440Y018298D02*
X021630Y018298D01*
X021472Y018140D02*
X021440Y018140D01*
X021066Y017506D02*
X020943Y017506D01*
X020785Y017347D02*
X021252Y017347D01*
X026045Y015128D02*
X026160Y015128D01*
X026127Y014970D02*
X026093Y014970D01*
X026848Y015128D02*
X026917Y015128D01*
X027495Y015128D02*
X027610Y015128D01*
X027577Y014970D02*
X027543Y014970D01*
X027543Y014811D02*
X027577Y014811D01*
X027577Y014653D02*
X027543Y014653D01*
X027543Y014494D02*
X027577Y014494D01*
X027936Y014494D02*
X027972Y014494D01*
X027972Y014336D02*
X027936Y014336D01*
X027936Y014653D02*
X027972Y014653D01*
X027972Y014811D02*
X027936Y014811D01*
X027936Y014970D02*
X027972Y014970D01*
X027972Y015128D02*
X027936Y015128D01*
X027917Y015287D02*
X028693Y015287D01*
X028693Y015445D02*
X027917Y015445D01*
X027917Y015604D02*
X028693Y015604D01*
X028693Y015762D02*
X027917Y015762D01*
X027917Y015921D02*
X028693Y015921D01*
X028730Y016079D02*
X027880Y016079D01*
X027880Y016238D02*
X028599Y016238D01*
X028595Y016396D02*
X027880Y016396D01*
X027880Y016555D02*
X028595Y016555D01*
X028595Y016713D02*
X027880Y016713D01*
X027880Y016872D02*
X028596Y016872D01*
X028595Y017030D02*
X027880Y017030D01*
X027880Y017189D02*
X028595Y017189D01*
X028595Y017347D02*
X027880Y017347D01*
X027880Y017506D02*
X028595Y017506D01*
X028641Y017664D02*
X027880Y017664D01*
X027880Y017823D02*
X028730Y017823D01*
X028595Y017981D02*
X028015Y017981D01*
X028015Y018140D02*
X028595Y018140D01*
X028595Y018298D02*
X028015Y018298D01*
X028015Y018457D02*
X028595Y018457D01*
X028640Y018615D02*
X027970Y018615D01*
X029420Y018615D02*
X029722Y018615D01*
X032080Y016396D02*
X033148Y016396D01*
X034063Y014970D02*
X029781Y014970D01*
X029781Y014811D02*
X033829Y014811D01*
X033671Y014653D02*
X029781Y014653D01*
X029781Y014494D02*
X033512Y014494D01*
X034337Y015128D02*
X029748Y015128D01*
X029060Y015128D02*
X028945Y015128D01*
X028993Y014970D02*
X029027Y014970D01*
X029027Y014811D02*
X028993Y014811D01*
X028993Y014653D02*
X029027Y014653D01*
X029027Y014494D02*
X028993Y014494D01*
X028993Y014413D02*
X028916Y014336D01*
X028396Y014177D02*
X027466Y014177D01*
X027455Y014019D02*
X028396Y014019D01*
X028367Y015128D02*
X028298Y015128D01*
X028580Y012592D02*
X028740Y012592D01*
X028740Y012434D02*
X028580Y012434D01*
X028580Y012275D02*
X028740Y012275D01*
X028740Y012117D02*
X028580Y012117D01*
X029156Y011324D02*
X030045Y011324D01*
X030045Y011166D02*
X029215Y011166D01*
X029215Y011007D02*
X030045Y011007D01*
X030180Y010849D02*
X029594Y010849D01*
X029692Y010690D02*
X030180Y010690D01*
X030180Y010532D02*
X029706Y010532D01*
X029651Y010373D02*
X030045Y010373D01*
X030180Y008788D02*
X029730Y008788D01*
X029730Y008630D02*
X030180Y008630D01*
X030045Y008471D02*
X029730Y008471D01*
X029730Y008313D02*
X030045Y008313D01*
X030045Y008154D02*
X029730Y008154D01*
X029837Y007996D02*
X030045Y007996D01*
X029996Y007837D02*
X030098Y007837D01*
X028478Y006886D02*
X028142Y006886D01*
X028188Y007045D02*
X028320Y007045D01*
X028300Y006728D02*
X028637Y006728D01*
X026948Y006886D02*
X025112Y006886D01*
X025188Y007045D02*
X026872Y007045D01*
X026870Y007203D02*
X025190Y007203D01*
X025124Y007362D02*
X026936Y007362D01*
X025062Y008154D02*
X024398Y008154D01*
X024556Y008313D02*
X024903Y008313D01*
X024745Y008471D02*
X024715Y008471D01*
X022930Y007680D02*
X022930Y007080D01*
X022860Y007010D01*
X022855Y007010D01*
X022840Y006995D01*
X022520Y006995D01*
X021635Y007190D02*
X021635Y006730D01*
X021643Y006411D02*
X019805Y006411D01*
X019794Y006252D02*
X022902Y006252D01*
X023045Y006094D02*
X019676Y006094D01*
X019518Y005935D02*
X023045Y005935D01*
X023045Y005777D02*
X019440Y005777D01*
X019440Y005618D02*
X020050Y005618D01*
X019864Y005460D02*
X019496Y005460D01*
X019540Y005301D02*
X019820Y005301D01*
X019848Y005143D02*
X019512Y005143D01*
X019391Y004984D02*
X019969Y004984D01*
X021110Y004826D02*
X017500Y004826D01*
X017500Y004667D02*
X021269Y004667D01*
X021427Y004509D02*
X017500Y004509D01*
X017978Y004984D02*
X018969Y004984D01*
X018848Y005143D02*
X018136Y005143D01*
X018295Y005301D02*
X018820Y005301D01*
X018864Y005460D02*
X018453Y005460D01*
X018612Y005618D02*
X018920Y005618D01*
X018920Y005777D02*
X018770Y005777D01*
X018058Y006252D02*
X015867Y006252D01*
X015709Y006411D02*
X018217Y006411D01*
X018375Y006569D02*
X015550Y006569D01*
X015480Y006728D02*
X016315Y006728D01*
X016247Y006886D02*
X015480Y006886D01*
X015480Y007045D02*
X015575Y007045D01*
X015945Y007045D02*
X016247Y007045D01*
X016622Y007045D02*
X016622Y007045D01*
X016622Y007006D02*
X016997Y007006D01*
X016622Y007006D01*
X016622Y007006D01*
X016622Y006886D02*
X016622Y006886D01*
X016622Y006728D02*
X016622Y006728D01*
X016929Y006728D02*
X018020Y006728D01*
X018275Y007005D02*
X017643Y007005D01*
X017642Y007006D01*
X017307Y007045D02*
X016997Y007045D01*
X016987Y007203D02*
X017310Y007203D01*
X017307Y006886D02*
X016997Y006886D01*
X016957Y007362D02*
X018153Y007362D01*
X018397Y007362D02*
X018510Y007362D01*
X017347Y007520D02*
X016957Y007520D01*
X016957Y007679D02*
X017307Y007679D01*
X017307Y007837D02*
X016957Y007837D01*
X016909Y007996D02*
X017355Y007996D01*
X018547Y008154D02*
X015285Y008154D01*
X015438Y007996D02*
X016335Y007996D01*
X016287Y007837D02*
X015480Y007837D01*
X015480Y007679D02*
X015531Y007679D01*
X015989Y007679D02*
X016287Y007679D01*
X015127Y008313D02*
X018669Y008313D01*
X018827Y008471D02*
X014968Y008471D01*
X014810Y008630D02*
X018986Y008630D01*
X019087Y009581D02*
X018654Y009581D01*
X018495Y009739D02*
X019087Y009739D01*
X019087Y009898D02*
X018337Y009898D01*
X018280Y010056D02*
X018488Y010056D01*
X018330Y010215D02*
X018280Y010215D01*
X018280Y010373D02*
X018330Y010373D01*
X018330Y010532D02*
X018280Y010532D01*
X018356Y010690D02*
X018474Y010690D01*
X018380Y010849D02*
X019087Y010849D01*
X019097Y011007D02*
X018923Y011007D01*
X018537Y011007D02*
X018380Y011007D01*
X018986Y010690D02*
X019087Y010690D01*
X019087Y010056D02*
X018972Y010056D01*
X021403Y010532D02*
X021524Y010532D01*
X022676Y010532D02*
X022749Y010532D01*
X022749Y010849D02*
X022680Y010849D01*
X022646Y009898D02*
X022800Y009898D01*
X022415Y008430D02*
X022525Y008320D01*
X022525Y007775D01*
X022850Y007760D02*
X022930Y007680D01*
X021415Y007045D02*
X021300Y007045D01*
X021310Y005618D02*
X023045Y005618D01*
X022964Y005460D02*
X021496Y005460D01*
X021540Y005301D02*
X022920Y005301D01*
X022948Y005143D02*
X021642Y005143D01*
X021050Y005618D02*
X020310Y005618D01*
X017900Y006094D02*
X016026Y006094D01*
X016184Y005935D02*
X017741Y005935D01*
X017583Y005777D02*
X016309Y005777D01*
X016330Y005618D02*
X016772Y005618D01*
X016649Y005460D02*
X016346Y005460D01*
X016390Y005301D02*
X016610Y005301D01*
X016633Y005143D02*
X016362Y005143D01*
X016241Y004984D02*
X016660Y004984D01*
X016660Y004826D02*
X014300Y004826D01*
X014300Y004984D02*
X014763Y004984D01*
X014775Y004972D02*
X014841Y004928D01*
X014913Y004898D01*
X014991Y004882D01*
X015030Y004882D01*
X015030Y005282D01*
X015030Y004882D01*
X015069Y004882D01*
X015147Y004898D01*
X015219Y004928D01*
X015285Y004972D01*
X015341Y005027D01*
X015384Y005093D01*
X015415Y005166D01*
X015430Y005243D01*
X015430Y005282D01*
X015030Y005282D01*
X015030Y005282D01*
X014630Y005282D01*
X014630Y005243D01*
X014645Y005166D01*
X014676Y005093D01*
X014719Y005027D01*
X014775Y004972D01*
X014655Y005143D02*
X014300Y005143D01*
X014300Y005301D02*
X014630Y005301D01*
X014630Y005282D02*
X015030Y005282D01*
X015030Y005282D01*
X015030Y005282D01*
X015430Y005282D01*
X015430Y005322D01*
X015415Y005399D01*
X015384Y005472D01*
X015341Y005537D01*
X015285Y005593D01*
X015219Y005637D01*
X015147Y005667D01*
X015069Y005682D01*
X015030Y005682D01*
X014991Y005682D01*
X014913Y005667D01*
X014841Y005637D01*
X014775Y005593D01*
X014719Y005537D01*
X014676Y005472D01*
X014645Y005399D01*
X014630Y005322D01*
X014630Y005282D01*
X014670Y005460D02*
X014300Y005460D01*
X014300Y005618D02*
X014812Y005618D01*
X015030Y005618D02*
X015030Y005618D01*
X015030Y005682D02*
X015030Y005282D01*
X015030Y005282D01*
X015030Y005682D01*
X015030Y005460D02*
X015030Y005460D01*
X015030Y005301D02*
X015030Y005301D01*
X015030Y005143D02*
X015030Y005143D01*
X015030Y004984D02*
X015030Y004984D01*
X015297Y004984D02*
X015819Y004984D01*
X015698Y005143D02*
X015405Y005143D01*
X015430Y005301D02*
X015670Y005301D01*
X015714Y005460D02*
X015390Y005460D01*
X015248Y005618D02*
X015653Y005618D01*
X015494Y005777D02*
X014300Y005777D01*
X014300Y005935D02*
X015336Y005935D01*
X015177Y006094D02*
X014300Y006094D01*
X014300Y006252D02*
X015019Y006252D01*
X014899Y006411D02*
X014300Y006411D01*
X014300Y006569D02*
X014880Y006569D01*
X014880Y006728D02*
X014300Y006728D01*
X014300Y006886D02*
X014880Y006886D01*
X014880Y007045D02*
X014300Y007045D01*
X014300Y007203D02*
X014880Y007203D01*
X014880Y007362D02*
X014300Y007362D01*
X014300Y007520D02*
X014880Y007520D01*
X014880Y007679D02*
X014294Y007679D01*
X014217Y007837D02*
X014754Y007837D01*
X014595Y007996D02*
X014058Y007996D01*
X013900Y008154D02*
X014437Y008154D01*
X014278Y008313D02*
X013741Y008313D01*
X013583Y008471D02*
X014120Y008471D01*
X013961Y008630D02*
X013424Y008630D01*
X013266Y008788D02*
X013803Y008788D01*
X013644Y008947D02*
X013093Y008947D01*
X013236Y008818D02*
X013236Y008818D01*
X013486Y009105D02*
X007499Y009105D01*
X007442Y009264D02*
X007340Y009264D01*
X007284Y009422D02*
X007250Y009422D01*
X007537Y008154D02*
X012712Y008154D01*
X012871Y007996D02*
X007378Y007996D01*
X007220Y007837D02*
X013029Y007837D01*
X013188Y007679D02*
X007061Y007679D01*
X006903Y007520D02*
X013346Y007520D01*
X013460Y007362D02*
X006744Y007362D01*
X006586Y007203D02*
X013460Y007203D01*
X013460Y007045D02*
X006490Y007045D01*
X006490Y006886D02*
X013460Y006886D01*
X013460Y006728D02*
X006490Y006728D01*
X006490Y006569D02*
X013460Y006569D01*
X013460Y006411D02*
X006490Y006411D01*
X006665Y006252D02*
X013460Y006252D01*
X013460Y006094D02*
X006665Y006094D01*
X006665Y005935D02*
X013460Y005935D01*
X013460Y005777D02*
X006665Y005777D01*
X006643Y005618D02*
X013460Y005618D01*
X014300Y004667D02*
X016660Y004667D01*
X016660Y004509D02*
X014345Y004509D01*
X014504Y004350D02*
X016660Y004350D01*
X016648Y004192D02*
X014662Y004192D01*
X015726Y003241D02*
X012427Y003241D01*
X012586Y003082D02*
X015760Y003082D01*
X018160Y002765D02*
X018200Y002765D01*
X018200Y002607D02*
X018160Y002607D01*
X018160Y002448D02*
X018200Y002448D01*
X018200Y002290D02*
X018160Y002290D01*
X012395Y004192D02*
X011828Y004192D01*
X011860Y004350D02*
X012395Y004350D01*
X009660Y002765D02*
X009620Y002765D01*
X009620Y002607D02*
X009660Y002607D01*
X009660Y002448D02*
X009620Y002448D01*
X009620Y002290D02*
X009660Y002290D01*
X009660Y002131D02*
X009620Y002131D01*
X006423Y001410D02*
X004719Y001410D01*
X004805Y001496D01*
X004872Y001658D01*
X004872Y001786D01*
X005042Y001786D01*
X005138Y001825D01*
X005627Y002315D01*
X005700Y002388D01*
X005740Y002483D01*
X005740Y002632D01*
X006053Y002945D01*
X006410Y002945D01*
X006221Y002867D01*
X005993Y002639D01*
X005870Y002341D01*
X005870Y002019D01*
X005993Y001721D01*
X006221Y001493D01*
X006423Y001410D01*
X006218Y001497D02*
X004805Y001497D01*
X004871Y001656D02*
X006059Y001656D01*
X005955Y001814D02*
X005111Y001814D01*
X005285Y001973D02*
X005889Y001973D01*
X005870Y002131D02*
X005444Y002131D01*
X005602Y002290D02*
X005870Y002290D01*
X005914Y002448D02*
X005725Y002448D01*
X005740Y002607D02*
X005980Y002607D01*
X005873Y002765D02*
X006120Y002765D01*
X006031Y002924D02*
X006359Y002924D01*
X005771Y003399D02*
X004732Y003399D01*
X004732Y003241D02*
X005613Y003241D01*
X005454Y003082D02*
X004732Y003082D01*
X004732Y002924D02*
X005296Y002924D01*
X005220Y002765D02*
X004732Y002765D01*
X004794Y002607D02*
X005184Y002607D01*
X005025Y002448D02*
X004866Y002448D01*
X004132Y002765D02*
X002887Y002765D01*
X002904Y002756D02*
X002836Y002791D01*
X002765Y002814D01*
X002690Y002826D01*
X002672Y002826D01*
X002672Y002066D01*
X003132Y002066D01*
X003132Y002383D01*
X003120Y002458D01*
X003097Y002530D01*
X003063Y002597D01*
X003018Y002658D01*
X002965Y002712D01*
X002904Y002756D01*
X003056Y002607D02*
X004071Y002607D01*
X003998Y002448D02*
X003122Y002448D01*
X003132Y002290D02*
X003992Y002290D01*
X003992Y002131D02*
X003132Y002131D01*
X003132Y001973D02*
X003992Y001973D01*
X003992Y001814D02*
X003132Y001814D01*
X003124Y001656D02*
X003993Y001656D01*
X004059Y001497D02*
X003064Y001497D01*
X002240Y001497D02*
X001432Y001497D01*
X001410Y001656D02*
X002181Y001656D01*
X002172Y001814D02*
X001410Y001814D01*
X001410Y001973D02*
X002172Y001973D01*
X002172Y002131D02*
X001410Y002131D01*
X001410Y002290D02*
X002172Y002290D01*
X002182Y002448D02*
X001410Y002448D01*
X001410Y002607D02*
X002248Y002607D01*
X002418Y002765D02*
X001410Y002765D01*
X001410Y002924D02*
X004132Y002924D01*
X004132Y003082D02*
X001410Y003082D01*
X001410Y003241D02*
X004132Y003241D01*
X004132Y003399D02*
X001410Y003399D01*
X001410Y003558D02*
X004132Y003558D01*
X004132Y003716D02*
X001410Y003716D01*
X001410Y003875D02*
X002441Y003875D01*
X002468Y003861D02*
X002540Y003837D01*
X002614Y003826D01*
X002632Y003826D01*
X002632Y004586D01*
X002172Y004586D01*
X002172Y004268D01*
X002184Y004193D01*
X002207Y004121D01*
X002242Y004054D01*
X002286Y003993D01*
X002340Y003940D01*
X002401Y003895D01*
X002468Y003861D01*
X002632Y003875D02*
X002672Y003875D01*
X002672Y003826D02*
X002690Y003826D01*
X002765Y003837D01*
X002836Y003861D01*
X002904Y003895D01*
X002965Y003940D01*
X003018Y003993D01*
X003063Y004054D01*
X003097Y004121D01*
X003120Y004193D01*
X003132Y004268D01*
X003132Y004586D01*
X002672Y004586D01*
X002672Y004626D01*
X002632Y004626D01*
X002632Y005386D01*
X002614Y005386D01*
X002540Y005374D01*
X002468Y005351D01*
X002401Y005316D01*
X002340Y005272D01*
X002286Y005218D01*
X002242Y005157D01*
X002207Y005090D01*
X002184Y005018D01*
X002172Y004943D01*
X002172Y004626D01*
X002632Y004626D01*
X002632Y004586D01*
X002672Y004586D01*
X002672Y003826D01*
X002863Y003875D02*
X004132Y003875D01*
X004083Y004033D02*
X003047Y004033D01*
X003120Y004192D02*
X004003Y004192D01*
X003992Y004350D02*
X003132Y004350D01*
X003132Y004509D02*
X003992Y004509D01*
X003992Y004667D02*
X003132Y004667D01*
X003132Y004626D02*
X003132Y004943D01*
X003120Y005018D01*
X003097Y005090D01*
X003063Y005157D01*
X003018Y005218D01*
X002965Y005272D01*
X002904Y005316D01*
X002836Y005351D01*
X002765Y005374D01*
X002690Y005386D01*
X002672Y005386D01*
X002672Y004626D01*
X003132Y004626D01*
X003132Y004826D02*
X003992Y004826D01*
X003992Y004984D02*
X003126Y004984D01*
X003070Y005143D02*
X004054Y005143D01*
X004237Y005301D02*
X002925Y005301D01*
X002672Y005301D02*
X002632Y005301D01*
X002632Y005143D02*
X002672Y005143D01*
X002672Y004984D02*
X002632Y004984D01*
X002632Y004826D02*
X002672Y004826D01*
X002672Y004667D02*
X002632Y004667D01*
X002632Y004509D02*
X002672Y004509D01*
X002672Y004350D02*
X002632Y004350D01*
X002632Y004192D02*
X002672Y004192D01*
X002672Y004033D02*
X002632Y004033D01*
X002257Y004033D02*
X001410Y004033D01*
X001410Y004192D02*
X002185Y004192D01*
X002172Y004350D02*
X001410Y004350D01*
X001410Y004509D02*
X002172Y004509D01*
X002172Y004667D02*
X001410Y004667D01*
X001410Y004826D02*
X002172Y004826D01*
X002179Y004984D02*
X001410Y004984D01*
X001410Y005143D02*
X002234Y005143D01*
X002380Y005301D02*
X001410Y005301D01*
X004872Y004350D02*
X005840Y004350D01*
X005840Y004192D02*
X004861Y004192D01*
X004782Y004033D02*
X005840Y004033D01*
X005840Y003875D02*
X004732Y003875D01*
X002672Y002765D02*
X002632Y002765D01*
X002632Y002607D02*
X002672Y002607D01*
X002672Y002448D02*
X002632Y002448D01*
X002632Y002290D02*
X002672Y002290D01*
X002672Y002131D02*
X002632Y002131D01*
X021609Y012275D02*
X021765Y012275D01*
X021768Y012117D02*
X021771Y012117D01*
X022605Y012434D02*
X022713Y012434D01*
X022660Y012592D02*
X022605Y012592D01*
X022605Y012751D02*
X022660Y012751D01*
X022660Y012909D02*
X022605Y012909D01*
X022605Y013068D02*
X022660Y013068D01*
X022693Y013226D02*
X022605Y013226D01*
X023399Y012434D02*
X023405Y012434D01*
X035100Y007045D02*
X035260Y007045D01*
X035260Y006886D02*
X035100Y006886D01*
X035100Y006728D02*
X035260Y006728D01*
X035260Y006569D02*
X035100Y006569D01*
X035100Y006411D02*
X035260Y006411D01*
X035260Y006252D02*
X035100Y006252D01*
X035100Y006094D02*
X035260Y006094D01*
X035260Y005935D02*
X035100Y005935D01*
X035100Y005777D02*
X035260Y005777D01*
X035260Y005618D02*
X035100Y005618D01*
X035100Y005460D02*
X035260Y005460D01*
X035260Y005301D02*
X035100Y005301D01*
X035100Y005143D02*
X035260Y005143D01*
X035862Y005143D02*
X037150Y005143D01*
X037150Y005301D02*
X036225Y005301D01*
X036467Y005460D02*
X037150Y005460D01*
X037150Y005618D02*
X036656Y005618D01*
X036807Y005777D02*
X037150Y005777D01*
X037150Y005935D02*
X036931Y005935D01*
X037034Y006094D02*
X037150Y006094D01*
X037150Y006252D02*
X037118Y006252D01*
X037095Y008154D02*
X037150Y008154D01*
X037150Y008313D02*
X037006Y008313D01*
X036898Y008471D02*
X037150Y008471D01*
X037150Y008630D02*
X036767Y008630D01*
X036605Y008788D02*
X037150Y008788D01*
X037150Y008947D02*
X036404Y008947D01*
X036134Y009105D02*
X037150Y009105D01*
X037150Y009264D02*
X035705Y009264D01*
X028833Y005460D02*
X025596Y005460D01*
X025640Y005301D02*
X028991Y005301D01*
X029150Y005143D02*
X025612Y005143D01*
X027029Y003399D02*
X029377Y003399D01*
X029241Y003241D02*
X027187Y003241D01*
X027346Y003082D02*
X029190Y003082D01*
X029190Y002924D02*
X027390Y002924D01*
X027390Y002765D02*
X029190Y002765D01*
X025843Y002765D02*
X025517Y002765D01*
X025553Y002729D02*
X025429Y002853D01*
X025268Y002920D01*
X025092Y002920D01*
X024931Y002853D01*
X024807Y002729D01*
X024740Y002568D01*
X024740Y001792D01*
X024807Y001631D01*
X024931Y001507D01*
X025092Y001440D01*
X025268Y001440D01*
X025429Y001507D01*
X025553Y001631D01*
X025620Y001792D01*
X025620Y002568D01*
X025553Y002729D01*
X025604Y002607D02*
X025756Y002607D01*
X025740Y002448D02*
X025620Y002448D01*
X025620Y002290D02*
X025740Y002290D01*
X025740Y002131D02*
X025620Y002131D01*
X025620Y001973D02*
X025740Y001973D01*
X025740Y001814D02*
X025620Y001814D01*
X025563Y001656D02*
X025797Y001656D01*
X025955Y001497D02*
X025405Y001497D01*
X024955Y001497D02*
X024405Y001497D01*
X024563Y001656D02*
X024797Y001656D01*
X024740Y001814D02*
X024620Y001814D01*
X024620Y001973D02*
X024740Y001973D01*
X024740Y002131D02*
X024620Y002131D01*
X024620Y002290D02*
X024740Y002290D01*
X024740Y002448D02*
X024620Y002448D01*
X024604Y002607D02*
X024756Y002607D01*
X024843Y002765D02*
X024517Y002765D01*
X035894Y017189D02*
X037150Y017189D01*
X037150Y017347D02*
X036222Y017347D01*
X036487Y017506D02*
X037150Y017506D01*
X037150Y017664D02*
X036646Y017664D01*
X036804Y017823D02*
X037150Y017823D01*
X037150Y017981D02*
X036922Y017981D01*
X037014Y018140D02*
X037150Y018140D01*
X037150Y018298D02*
X037105Y018298D01*
D35*
X028656Y014747D02*
X028656Y013811D01*
X028465Y013620D01*
X024345Y013620D01*
X023830Y014135D01*
X023830Y017550D01*
X023500Y017880D01*
X022470Y017880D01*
X022210Y017620D01*
X022210Y017460D01*
X021330Y016720D01*
X020230Y017160D02*
X021180Y018110D01*
X021180Y021180D01*
X020640Y020720D02*
X020180Y021180D01*
X020640Y020720D02*
X020640Y018290D01*
X019590Y017240D01*
X019590Y016300D01*
X021395Y017695D02*
X021935Y018235D01*
X023705Y018235D01*
X024275Y017665D01*
X024275Y014310D01*
X024320Y014265D01*
X024320Y014245D01*
X024565Y014000D01*
X027110Y014000D01*
X027206Y014096D01*
X027206Y014747D01*
X025756Y014747D02*
X025756Y014701D01*
X025510Y014455D01*
X024770Y014455D01*
X024665Y014560D01*
X024680Y014575D01*
X024680Y021630D01*
X024385Y021930D01*
X019350Y021930D01*
X019180Y021760D01*
X019180Y021180D01*
X017645Y021060D02*
X017645Y020450D01*
X017660Y020435D01*
X017660Y017775D01*
X017560Y017675D01*
X016655Y017445D02*
X016650Y016720D01*
X016325Y016285D02*
X016150Y016480D01*
X016150Y017205D01*
X014180Y019175D01*
X014180Y019880D01*
X016580Y021180D02*
X016655Y021105D01*
X016655Y017445D01*
X016325Y016285D02*
X017305Y016290D01*
X020180Y018595D02*
X020180Y019640D01*
X017645Y021060D02*
X017580Y021180D01*
X023030Y014180D02*
X023056Y014154D01*
X023056Y012840D01*
X021065Y013155D02*
X021055Y013145D01*
X011940Y013145D01*
X007595Y008580D02*
X006230Y007215D01*
X006230Y005954D01*
X006230Y005206D02*
X006217Y005193D01*
X006217Y004130D01*
X005945Y003205D02*
X012095Y003205D01*
X012375Y002925D01*
X012375Y002655D01*
X012405Y002625D01*
X012405Y002595D01*
X012850Y002150D01*
X014150Y002150D01*
X014180Y002180D01*
X013621Y003906D02*
X012830Y003906D01*
X013621Y003906D02*
X013988Y004273D01*
X012830Y004654D02*
X011422Y004654D01*
X011420Y004656D01*
X016165Y007375D02*
X016617Y007375D01*
X016622Y007380D01*
X017642Y007754D02*
X018854Y007754D01*
X018930Y007830D01*
X019545Y007445D02*
X019630Y007530D01*
X019545Y007445D02*
X019545Y006330D01*
X019180Y005965D01*
X019180Y005282D01*
X022255Y003400D02*
X022255Y002255D01*
X022180Y002180D01*
X023180Y002180D02*
X023180Y002980D01*
X023480Y003280D01*
X026780Y003280D01*
X027130Y002930D01*
X027130Y002630D01*
X027280Y002480D01*
X029380Y002480D01*
X029630Y002730D01*
X030380Y004280D02*
X027530Y007130D01*
X029470Y007995D02*
X030040Y007425D01*
X030449Y007425D01*
X030480Y007456D01*
X029470Y007995D02*
X029470Y009410D01*
X029300Y009580D01*
X028630Y009580D01*
X028310Y009580D02*
X028310Y009350D01*
X028745Y008915D01*
X028630Y010080D02*
X030456Y010080D01*
X030480Y010104D01*
X029330Y010580D02*
X028630Y010580D01*
X028310Y010580D01*
X026895Y009440D02*
X026755Y009580D01*
X026250Y009580D01*
X025930Y009580D01*
X025930Y010080D02*
X025320Y010085D01*
X025165Y009930D01*
X025220Y010570D02*
X025920Y010570D01*
X025930Y010580D01*
X025930Y011080D02*
X025565Y011445D01*
X025565Y011690D01*
X022995Y011135D02*
X022990Y011140D01*
X022100Y011140D01*
X026895Y009440D02*
X026895Y008291D01*
X026906Y008280D01*
X030406Y005630D02*
X030406Y005054D01*
X030480Y004980D01*
X032330Y004980D01*
X032480Y004830D01*
X032480Y004293D01*
X032493Y004280D01*
X031667Y004280D02*
X030380Y004280D01*
X025530Y004480D02*
X024485Y004480D01*
X023905Y003900D01*
X022755Y003900D01*
X022255Y003400D01*
X005945Y003205D02*
X005480Y002740D01*
X005480Y002535D01*
X004991Y002046D01*
X004432Y002046D01*
D36*
X022100Y009320D02*
X023950Y009320D01*
X026905Y008279D02*
X026905Y007845D01*
X027080Y007670D01*
X028175Y007670D01*
X029390Y006455D01*
X030770Y006455D01*
X031154Y006071D01*
X031154Y005630D01*
X026906Y008280D02*
X026905Y008279D01*
M02*
