G75*
%MOIN*%
%OFA0B0*%
%FSLAX24Y24*%
%IPPOS*%
%LPD*%
%AMOC8*
5,1,8,0,0,1.08239X$1,22.5*
%
%ADD10C,0.0100*%
%ADD11C,0.0060*%
%ADD12C,0.0000*%
D10*
X001574Y001180D02*
X037386Y001180D01*
X037380Y001174D02*
X037380Y022230D01*
X001574Y022180D01*
X001535Y022178D01*
X001497Y022172D01*
X001460Y022163D01*
X001423Y022150D01*
X001388Y022133D01*
X001355Y022114D01*
X001324Y022091D01*
X001295Y022065D01*
X001269Y022036D01*
X001246Y022005D01*
X001227Y021972D01*
X001210Y021937D01*
X001197Y021900D01*
X001188Y021863D01*
X001182Y021825D01*
X001180Y021786D01*
X001180Y001574D01*
X001182Y001535D01*
X001188Y001497D01*
X001197Y001460D01*
X001210Y001423D01*
X001227Y001388D01*
X001246Y001355D01*
X001269Y001324D01*
X001295Y001295D01*
X001324Y001269D01*
X001355Y001246D01*
X001388Y001227D01*
X001423Y001210D01*
X001460Y001197D01*
X001497Y001188D01*
X001535Y001182D01*
X001574Y001180D01*
D11*
X017043Y018810D02*
X017377Y019144D01*
X017210Y019144D02*
X017210Y018810D01*
X017377Y018810D02*
X017043Y019144D01*
X017043Y018977D02*
X017377Y018977D01*
D12*
X006550Y021130D02*
X006552Y021180D01*
X006558Y021230D01*
X006568Y021279D01*
X006582Y021327D01*
X006599Y021374D01*
X006620Y021419D01*
X006645Y021463D01*
X006673Y021504D01*
X006705Y021543D01*
X006739Y021580D01*
X006776Y021614D01*
X006816Y021644D01*
X006858Y021671D01*
X006902Y021695D01*
X006948Y021716D01*
X006995Y021732D01*
X007043Y021745D01*
X007093Y021754D01*
X007142Y021759D01*
X007193Y021760D01*
X007243Y021757D01*
X007292Y021750D01*
X007341Y021739D01*
X007389Y021724D01*
X007435Y021706D01*
X007480Y021684D01*
X007523Y021658D01*
X007564Y021629D01*
X007603Y021597D01*
X007639Y021562D01*
X007671Y021524D01*
X007701Y021484D01*
X007728Y021441D01*
X007751Y021397D01*
X007770Y021351D01*
X007786Y021303D01*
X007798Y021254D01*
X007806Y021205D01*
X007810Y021155D01*
X007810Y021105D01*
X007806Y021055D01*
X007798Y021006D01*
X007786Y020957D01*
X007770Y020909D01*
X007751Y020863D01*
X007728Y020819D01*
X007701Y020776D01*
X007671Y020736D01*
X007639Y020698D01*
X007603Y020663D01*
X007564Y020631D01*
X007523Y020602D01*
X007480Y020576D01*
X007435Y020554D01*
X007389Y020536D01*
X007341Y020521D01*
X007292Y020510D01*
X007243Y020503D01*
X007193Y020500D01*
X007142Y020501D01*
X007093Y020506D01*
X007043Y020515D01*
X006995Y020528D01*
X006948Y020544D01*
X006902Y020565D01*
X006858Y020589D01*
X006816Y020616D01*
X006776Y020646D01*
X006739Y020680D01*
X006705Y020717D01*
X006673Y020756D01*
X006645Y020797D01*
X006620Y020841D01*
X006599Y020886D01*
X006582Y020933D01*
X006568Y020981D01*
X006558Y021030D01*
X006552Y021080D01*
X006550Y021130D01*
X006050Y002180D02*
X006052Y002230D01*
X006058Y002280D01*
X006068Y002329D01*
X006082Y002377D01*
X006099Y002424D01*
X006120Y002469D01*
X006145Y002513D01*
X006173Y002554D01*
X006205Y002593D01*
X006239Y002630D01*
X006276Y002664D01*
X006316Y002694D01*
X006358Y002721D01*
X006402Y002745D01*
X006448Y002766D01*
X006495Y002782D01*
X006543Y002795D01*
X006593Y002804D01*
X006642Y002809D01*
X006693Y002810D01*
X006743Y002807D01*
X006792Y002800D01*
X006841Y002789D01*
X006889Y002774D01*
X006935Y002756D01*
X006980Y002734D01*
X007023Y002708D01*
X007064Y002679D01*
X007103Y002647D01*
X007139Y002612D01*
X007171Y002574D01*
X007201Y002534D01*
X007228Y002491D01*
X007251Y002447D01*
X007270Y002401D01*
X007286Y002353D01*
X007298Y002304D01*
X007306Y002255D01*
X007310Y002205D01*
X007310Y002155D01*
X007306Y002105D01*
X007298Y002056D01*
X007286Y002007D01*
X007270Y001959D01*
X007251Y001913D01*
X007228Y001869D01*
X007201Y001826D01*
X007171Y001786D01*
X007139Y001748D01*
X007103Y001713D01*
X007064Y001681D01*
X007023Y001652D01*
X006980Y001626D01*
X006935Y001604D01*
X006889Y001586D01*
X006841Y001571D01*
X006792Y001560D01*
X006743Y001553D01*
X006693Y001550D01*
X006642Y001551D01*
X006593Y001556D01*
X006543Y001565D01*
X006495Y001578D01*
X006448Y001594D01*
X006402Y001615D01*
X006358Y001639D01*
X006316Y001666D01*
X006276Y001696D01*
X006239Y001730D01*
X006205Y001767D01*
X006173Y001806D01*
X006145Y001847D01*
X006120Y001891D01*
X006099Y001936D01*
X006082Y001983D01*
X006068Y002031D01*
X006058Y002080D01*
X006052Y002130D01*
X006050Y002180D01*
M02*
