%
M48
M72
T01C0.0240
T02C0.0315
T03C0.0320
T04C0.0335
T05C0.0400
T06C0.1260
%
T01
X17030Y5282
X16030Y5282
X15030Y5282
X21180Y5282
X20180Y5282
X19180Y5282
X25280Y5282
X24280Y5282
X23280Y5282
T02
X4180Y19880
X5180Y19880
X6180Y19880
X19180Y19880
X7180Y19880
X8180Y19880
X9180Y19880
X10180Y19880
X11180Y19880
X12180Y19880
X13180Y19880
X14180Y19880
X15180Y19880
X16180Y19880
X17180Y19880
X18180Y19880
X25530Y18980
X31930Y18180
X31930Y17380
X31130Y17380
X31930Y18980
X25555Y16615
X25550Y15820
X25550Y17410
X17230Y15480
X17230Y14680
X14980Y17080
X17280Y10880
X17280Y10080
X17280Y11680
X14980Y15480
X14980Y14680
X14980Y16280
X15030Y10880
X15030Y10080
X15030Y11680
X12630Y15480
X12630Y14680
X12630Y16280
X12680Y10880
X12680Y10080
X12680Y11680
X10380Y15480
X10380Y14680
X10380Y16280
X10430Y10880
X10430Y10080
X10430Y11680
X7930Y15480
X7930Y14680
X7930Y16280
X7980Y10880
X7980Y10080
X7980Y11680
X5580Y15480
X5580Y14680
X5580Y16280
X5630Y10880
X5630Y10080
X5630Y11680
X3330Y15480
X3330Y14680
X3330Y16280
X3380Y10880
X3380Y10080
X3380Y11680
X27830Y4330
X27830Y3030
X27830Y5130
X29980Y8780
X32180Y8480
X32180Y10080
X35980Y3280
X35980Y2480
X35980Y4080
X35080Y10130
X35880Y10130
X34280Y10130
X19205Y12330
X18405Y12330
X20005Y12330
X3530Y6130
X4330Y6130
X2730Y6130
X10530Y6130
X11330Y6130
X9730Y6130
X20215Y6310
X16580Y6250
X28155Y16345
X28155Y17145
X26830Y16355
X26830Y17155
X12830Y6150
X14705Y6125
X24850Y13095
X22680Y19980
X21730Y20230
X19830Y20280
X23580Y18930
X23680Y19980
X5580Y1730
X26180Y8880
X21330Y16720
X16650Y16720
X21395Y17695
X17560Y17675
X19780Y18195
X17305Y16290
X19590Y16300
X29330Y10580
X28745Y8915
X25530Y4480
X25565Y11690
X22995Y11135
X25220Y10570
X20980Y12080
X22980Y10230
X11940Y13145
X21065Y13155
X20180Y19640
X20180Y18595
X20230Y17160
X12680Y18425
X15760Y7375
X20060Y7125
X21430Y7510
X18275Y7005
X23950Y9320
X25165Y9930
T03
X32580Y21480
X28580Y21480
X28880Y20080
X31880Y20080
X31780Y12130
X31780Y16130
X23030Y17180
X23030Y14180
X27530Y7130
X24530Y7130
X18730Y11380
X17980Y10880
X18730Y10380
T04
X26180Y21180
X25180Y21180
X24180Y21180
X23180Y21180
X22180Y21180
X21180Y21180
X20180Y21180
X19180Y21180
X17580Y21180
X16580Y21180
X15580Y21180
X14580Y21180
X13580Y21180
X12580Y21180
X11580Y21180
X10580Y21180
X9580Y21180
X8580Y21180
T05
X21180Y2180
X22180Y2180
X23180Y2180
X24180Y2180
X25180Y2180
X26180Y2180
X14180Y2180
X15180Y2180
X16180Y2180
X17180Y2180
X18180Y2180
X19180Y2180
X29630Y2730
X30630Y2730
X31630Y2730
X32630Y2730
X33630Y2730
X34630Y2730
X4432Y4606
X2652Y4606
X4432Y2046
X2652Y2046
X11420Y4656
X9640Y4656
X11420Y2096
X9640Y2096
T06
X7180Y21130
X6680Y2180
X35180Y13180
X35180Y19180
X35180Y7180
M30
